<?xml version="1.0" encoding="UTF-8" standalone="no"?>
<svg
   xmlns:dc="http://purl.org/dc/elements/1.1/"
   xmlns:cc="http://creativecommons.org/ns#"
   xmlns:rdf="http://www.w3.org/1999/02/22-rdf-syntax-ns#"
   xmlns:svg="http://www.w3.org/2000/svg"
   xmlns="http://www.w3.org/2000/svg"
   xmlns:sodipodi="http://sodipodi.sourceforge.net/DTD/sodipodi-0.dtd"
   xmlns:inkscape="http://www.inkscape.org/namespaces/inkscape"
   width="40"
   height="40.000004"
   viewBox="0 0 40 40.000004"
   version="1.1"
   id="svg4"
   sodipodi:docname="bluetooth_search_2.svg"
   inkscape:version="0.92.4 (5da689c313, 2019-01-14)"
   inkscape:export-filename="C:\Users\barto\Desktop\Work\Graphics\icons\bluetooth_connecting_2_56px.png"
   inkscape:export-xdpi="134.39999"
   inkscape:export-ydpi="134.39999">
  <metadata
     id="metadata10">
    <rdf:RDF>
      <cc:Work
         rdf:about="">
        <dc:format>image/svg+xml</dc:format>
        <dc:type
           rdf:resource="http://purl.org/dc/dcmitype/StillImage" />
        <dc:title></dc:title>
      </cc:Work>
    </rdf:RDF>
  </metadata>
  <defs
     id="defs8" />
  <sodipodi:namedview
     pagecolor="#ffffff"
     bordercolor="#666666"
     borderopacity="1"
     objecttolerance="10"
     gridtolerance="10"
     guidetolerance="10"
     inkscape:pageopacity="0"
     inkscape:pageshadow="2"
     inkscape:window-width="1920"
     inkscape:window-height="1057"
     id="namedview6"
     showgrid="false"
     inkscape:pagecheckerboard="true"
     inkscape:zoom="9.8333333"
     inkscape:cx="-10.34205"
     inkscape:cy="21.210545"
     inkscape:window-x="-8"
     inkscape:window-y="-8"
     inkscape:window-maximized="1"
     inkscape:current-layer="svg4"
     fit-margin-top="0"
     fit-margin-left="0"
     fit-margin-right="0"
     fit-margin-bottom="0" />
  <path
     style="fill:#ffffff;stroke-width:2"
     inkscape:connector-curvature="0"
     d="m 26.46,20.020001 4.64,4.64 c 0.56,-1.44 0.88,-3.02 0.88,-4.66 0,-1.64 -0.32,-3.18 -0.86,-4.62 z M 37.04,9.4200011 34.52,11.940001 c 1.26,2.42 1.96,5.14 1.96,8.04 0,2.9 -0.72,5.64 -1.96,8.04 l 2.4,2.4 c 1.94,-3.08 3.08,-6.72 3.08,-10.62 -0.02,-3.78 -1.1,-7.34 -2.96,-10.3799999 z M 29.4,11.420001 17.98,1e-6 h -2 v 15.18 L 6.8,6.0000011 l -2.82,2.82 11.18,11.1799999 -11.18,11.18 2.82,2.82 9.18,-9.18 v 15.18 h 2 l 11.42,-11.42 -8.6,-8.58 z m -9.42,-3.7599999 3.76,3.7599999 -3.76,3.76 z m 3.76,20.9199999 -3.76,3.76 v -7.52 z"
     id="path4-1" />
</svg>
