<?xml version="1.0" encoding="UTF-8" standalone="no"?>
<!-- Created with Inkscape (http://www.inkscape.org/) -->

<svg
   xmlns:dc="http://purl.org/dc/elements/1.1/"
   xmlns:cc="http://creativecommons.org/ns#"
   xmlns:rdf="http://www.w3.org/1999/02/22-rdf-syntax-ns#"
   xmlns:svg="http://www.w3.org/2000/svg"
   xmlns="http://www.w3.org/2000/svg"
   xmlns:sodipodi="http://sodipodi.sourceforge.net/DTD/sodipodi-0.dtd"
   xmlns:inkscape="http://www.inkscape.org/namespaces/inkscape"
   width="48"
   height="48"
   viewBox="0 0 12.7 12.700001"
   version="1.1"
   id="svg1367"
   sodipodi:docname="button_clear.svg"
   inkscape:version="0.92.4 (5da689c313, 2019-01-14)"
   inkscape:export-filename="C:\Users\barto\Desktop\Work\Graphics\icons\button_clear_64px.png"
   inkscape:export-xdpi="128"
   inkscape:export-ydpi="128">
  <defs
     id="defs1361" />
  <sodipodi:namedview
     id="base"
     pagecolor="#ffffff"
     bordercolor="#666666"
     borderopacity="1.0"
     inkscape:pageopacity="0.0"
     inkscape:pageshadow="2"
     inkscape:zoom="8.0000006"
     inkscape:cx="14.262338"
     inkscape:cy="20.545784"
     inkscape:document-units="mm"
     inkscape:current-layer="layer1"
     showgrid="false"
     inkscape:pagecheckerboard="true"
     units="px"
     inkscape:window-width="1920"
     inkscape:window-height="1057"
     inkscape:window-x="-8"
     inkscape:window-y="-8"
     inkscape:window-maximized="1"
     fit-margin-top="0"
     fit-margin-left="0"
     fit-margin-right="0"
     fit-margin-bottom="0"
     showguides="true"
     inkscape:guide-bbox="true"
     inkscape:snap-midpoints="true"
     inkscape:snap-bbox="true"
     inkscape:snap-bbox-edge-midpoints="true" />
  <metadata
     id="metadata1364">
    <rdf:RDF>
      <cc:Work
         rdf:about="">
        <dc:format>image/svg+xml</dc:format>
        <dc:type
           rdf:resource="http://purl.org/dc/dcmitype/StillImage" />
        <dc:title></dc:title>
      </cc:Work>
    </rdf:RDF>
  </metadata>
  <g
     inkscape:label="Layer 1"
     inkscape:groupmode="layer"
     id="layer1"
     transform="translate(-1.4650212,-280.79426)">
    <g
       aria-label="+"
       style="font-style:normal;font-variant:normal;font-weight:900;font-stretch:normal;font-size:12.12121201px;line-height:1.25;font-family:Lato;-inkscape-font-specification:'Lato Heavy';letter-spacing:0px;word-spacing:0px;fill:#000000;fill-opacity:1;stroke:none;stroke-width:0.26458332"
       id="text823" />
    <g
       aria-label="+"
       style="font-style:normal;font-variant:normal;font-weight:normal;font-stretch:normal;font-size:7.05555534px;line-height:1.25;font-family:Lato;-inkscape-font-specification:Lato;letter-spacing:0px;word-spacing:0px;fill:#000000;fill-opacity:1;stroke:none;stroke-width:0.26458332"
       id="text1481" />
    <g
       id="g846"
       transform="translate(-1.2251775e-7,-0.19826)">
      <g
         id="g885" />
    </g>
    <g
       aria-label="+"
       style="font-style:normal;font-variant:normal;font-weight:900;font-stretch:normal;font-size:12.12121201px;line-height:1.25;font-family:Lato;-inkscape-font-specification:'Lato Heavy';letter-spacing:0px;word-spacing:0px;fill:#000000;fill-opacity:1;stroke:none;stroke-width:0.26458332"
       id="text823-5"
       transform="translate(13.559889,-0.69453075)" />
    <g
       aria-label="+"
       style="font-style:normal;font-variant:normal;font-weight:normal;font-stretch:normal;font-size:7.05555534px;line-height:1.25;font-family:Lato;-inkscape-font-specification:Lato;letter-spacing:0px;word-spacing:0px;fill:#000000;fill-opacity:1;stroke:none;stroke-width:0.26458332"
       id="text1481-2"
       transform="translate(13.559889,-0.69453075)" />
    <path
       style="fill:#ffffff;stroke-width:0.29614994"
       d="m 4.6193512,282.91075 c -0.46412,0.005 -0.96127,0.31311 -1.01906,0.80615 -0.02304,1.82923 -0.0046,3.6604 -0.01034,5.49011 0.03788,0.49182 -0.06773,0.99208 0.04754,1.47691 0.08376,0.41867 0.492374,0.68565 0.903304,0.68885 0.808932,0.006 1.618552,0.005 2.427758,0.003 v 0.002 c 0.28223,-3.2e-4 0.5642228,-6.9e-4 0.8464598,-5.3e-4 0.282238,-2.4e-4 0.564231,1.8e-4 0.84646,5.3e-4 v -0.002 c 0.809206,8.2e-4 1.618826,0.003 2.427759,-0.003 0.410929,-0.003 0.819542,-0.27018 0.903304,-0.68885 0.11528,-0.48483 0.0097,-0.98509 0.04754,-1.47691 -0.0058,-1.82971 0.01267,-3.66088 -0.01034,-5.49011 -0.05779,-0.49303 -0.55494,-0.80158 -1.019059,-0.80615 -1.065128,0.003 -2.130498,0.006 -3.195671,0.01 -1.0651741,-0.003 -2.1305441,-0.006 -3.1956701,-0.01 z m 2.052071,2.33526 1.1854568,1.18597 1.107943,-1.10742 0.664042,0.66404 -1.107426,1.10743 1.191659,1.19165 -0.754476,0.75448 -1.191659,-1.19166 -1.1017409,1.10174 -0.6640429,-0.66456 1.1017421,-1.10174 -1.1859741,-1.18546 z"
       id="path865-1"
       inkscape:connector-curvature="0" />
  </g>
</svg>
