<?xml version="1.0" encoding="UTF-8" standalone="no"?>
<!-- Created with Inkscape (http://www.inkscape.org/) -->

<svg
   xmlns:dc="http://purl.org/dc/elements/1.1/"
   xmlns:cc="http://creativecommons.org/ns#"
   xmlns:rdf="http://www.w3.org/1999/02/22-rdf-syntax-ns#"
   xmlns:svg="http://www.w3.org/2000/svg"
   xmlns="http://www.w3.org/2000/svg"
   xmlns:sodipodi="http://sodipodi.sourceforge.net/DTD/sodipodi-0.dtd"
   xmlns:inkscape="http://www.inkscape.org/namespaces/inkscape"
   version="1.1"
   id="svg2"
   width="140"
   height="63.636066"
   viewBox="0 0 140 63.636067"
   sodipodi:docname="button_back_140px.svg"
   inkscape:export-filename="C:\Users\barto\Desktop\Work\Graphics\icons\redone\button_back_140px.png"
   inkscape:export-xdpi="96"
   inkscape:export-ydpi="96"
   inkscape:version="0.92.4 (5da689c313, 2019-01-14)">
  <metadata
     id="metadata8">
    <rdf:RDF>
      <cc:Work
         rdf:about="">
        <dc:format>image/svg+xml</dc:format>
        <dc:type
           rdf:resource="http://purl.org/dc/dcmitype/StillImage" />
        <dc:title />
      </cc:Work>
    </rdf:RDF>
  </metadata>
  <defs
     id="defs6" />
  <sodipodi:namedview
     pagecolor="#ffffff"
     bordercolor="#666666"
     borderopacity="1"
     objecttolerance="10"
     gridtolerance="10"
     guidetolerance="10"
     inkscape:pageopacity="0"
     inkscape:pageshadow="2"
     inkscape:window-width="1920"
     inkscape:window-height="1057"
     id="namedview4"
     showgrid="false"
     inkscape:pagecheckerboard="true"
     fit-margin-top="0"
     fit-margin-left="0"
     fit-margin-right="0"
     fit-margin-bottom="0"
     inkscape:zoom="5.8961589"
     inkscape:cx="36.12714"
     inkscape:cy="26.623149"
     inkscape:window-x="-8"
     inkscape:window-y="-8"
     inkscape:window-maximized="1"
     inkscape:current-layer="svg2" />
  <path
     id="path1037-7"
     style="fill:#ffffff;stroke-width:0.75000006"
     d="M 132.92933,0 H 79.899281 C 77.459898,0 75.550817,1.237367 74.278095,3.111098 L 55.151916,31.818034 74.278095,60.489617 c 1.272722,1.873728 3.181803,3.14645 5.621186,3.14645 h 53.030049 c 3.88887,0 7.07067,-3.181803 7.07067,-7.070676 V 7.070674 C 140,3.181806 136.8182,0 132.92933,0 Z M 77.777415,0 H 24.747362 C 22.307979,0 20.398895,1.237367 19.126175,3.111098 L 0,31.818034 19.126175,60.489617 c 1.27272,1.873728 3.181804,3.14645 5.621187,3.14645 h 53.030053 c 3.888871,0 7.070674,-3.181803 7.070674,-7.070676 V 7.070674 C 84.848089,3.181806 81.666286,0 77.777415,0 Z"
     inkscape:connector-curvature="0" />
</svg>
