<?xml version="1.0" encoding="UTF-8" standalone="no"?>
<!-- Created with Inkscape (http://www.inkscape.org/) -->

<svg
   xmlns:dc="http://purl.org/dc/elements/1.1/"
   xmlns:cc="http://creativecommons.org/ns#"
   xmlns:rdf="http://www.w3.org/1999/02/22-rdf-syntax-ns#"
   xmlns:svg="http://www.w3.org/2000/svg"
   xmlns="http://www.w3.org/2000/svg"
   xmlns:sodipodi="http://sodipodi.sourceforge.net/DTD/sodipodi-0.dtd"
   xmlns:inkscape="http://www.inkscape.org/namespaces/inkscape"
   version="1.1"
   id="svg2"
   width="140"
   height="63.636066"
   viewBox="0 0 140 63.636067"
   sodipodi:docname="filled_next_140px.svg"
   inkscape:export-filename="C:\Users\barto\Desktop\Work\Graphics\icons\filled_next_140px.png"
   inkscape:export-xdpi="96"
   inkscape:export-ydpi="96"
   inkscape:version="0.92.4 (5da689c313, 2019-01-14)">
  <metadata
     id="metadata8">
    <rdf:RDF>
      <cc:Work
         rdf:about="">
        <dc:format>image/svg+xml</dc:format>
        <dc:type
           rdf:resource="http://purl.org/dc/dcmitype/StillImage" />
        <dc:title></dc:title>
      </cc:Work>
    </rdf:RDF>
  </metadata>
  <defs
     id="defs6" />
  <sodipodi:namedview
     pagecolor="#ffffff"
     bordercolor="#666666"
     borderopacity="1"
     objecttolerance="10"
     gridtolerance="10"
     guidetolerance="10"
     inkscape:pageopacity="0"
     inkscape:pageshadow="2"
     inkscape:window-width="1920"
     inkscape:window-height="1057"
     id="namedview4"
     showgrid="false"
     inkscape:pagecheckerboard="true"
     fit-margin-top="0"
     fit-margin-left="0"
     fit-margin-right="0"
     fit-margin-bottom="0"
     inkscape:zoom="5.8961589"
     inkscape:cx="65.044271"
     inkscape:cy="26.623149"
     inkscape:window-x="-8"
     inkscape:window-y="-8"
     inkscape:window-maximized="1"
     inkscape:current-layer="svg2" />
  <path
     id="path1037-7"
     style="fill:#ffffff;stroke-width:0.75000006"
     d="m 7.07067,0 h 53.030049 c 2.439383,0 4.348464,1.237367 5.621186,3.111098 L 84.848084,31.818034 65.721905,60.489617 c -1.272722,1.873728 -3.181803,3.14645 -5.621186,3.14645 H 7.07067 C 3.1818,63.636067 0,60.454264 0,56.565391 V 7.070674 C 0,3.181806 3.1818,0 7.07067,0 Z m 55.151915,0 h 53.030055 c 2.43938,0 4.34847,1.237367 5.62118,3.111098 L 140,31.818034 120.87382,60.489617 c -1.27271,1.873728 -3.1818,3.14645 -5.62118,3.14645 H 62.222585 c -3.888871,0 -7.070674,-3.181803 -7.070674,-7.070676 V 7.070674 C 55.151911,3.181806 58.333714,0 62.222585,0 Z"
     inkscape:connector-curvature="0" />
</svg>
