<?xml version="1.0" encoding="UTF-8" standalone="no"?>
<!-- Created with Inkscape (http://www.inkscape.org/) -->

<svg
   xmlns:dc="http://purl.org/dc/elements/1.1/"
   xmlns:cc="http://creativecommons.org/ns#"
   xmlns:rdf="http://www.w3.org/1999/02/22-rdf-syntax-ns#"
   xmlns:svg="http://www.w3.org/2000/svg"
   xmlns="http://www.w3.org/2000/svg"
   xmlns:sodipodi="http://sodipodi.sourceforge.net/DTD/sodipodi-0.dtd"
   xmlns:inkscape="http://www.inkscape.org/namespaces/inkscape"
   width="48"
   height="48"
   viewBox="0 0 12.7 12.700001"
   version="1.1"
   id="svg1367"
   sodipodi:docname="button_plus.svg"
   inkscape:version="0.92.4 (5da689c313, 2019-01-14)"
   inkscape:export-filename="C:\Users\barto\Desktop\Work\Graphics\icons\button_plus_64px.png"
   inkscape:export-xdpi="128"
   inkscape:export-ydpi="128">
  <defs
     id="defs1361" />
  <sodipodi:namedview
     id="base"
     pagecolor="#ffffff"
     bordercolor="#666666"
     borderopacity="1.0"
     inkscape:pageopacity="0.0"
     inkscape:pageshadow="2"
     inkscape:zoom="16.000001"
     inkscape:cx="19.101181"
     inkscape:cy="23.50999"
     inkscape:document-units="mm"
     inkscape:current-layer="layer1"
     showgrid="false"
     inkscape:pagecheckerboard="true"
     units="px"
     inkscape:window-width="1920"
     inkscape:window-height="1057"
     inkscape:window-x="-8"
     inkscape:window-y="-8"
     inkscape:window-maximized="1"
     fit-margin-top="0"
     fit-margin-left="0"
     fit-margin-right="0"
     fit-margin-bottom="0"
     showguides="true"
     inkscape:guide-bbox="true"
     inkscape:snap-midpoints="true"
     inkscape:snap-bbox="true"
     inkscape:snap-bbox-edge-midpoints="true" />
  <metadata
     id="metadata1364">
    <rdf:RDF>
      <cc:Work
         rdf:about="">
        <dc:format>image/svg+xml</dc:format>
        <dc:type
           rdf:resource="http://purl.org/dc/dcmitype/StillImage" />
        <dc:title />
      </cc:Work>
    </rdf:RDF>
  </metadata>
  <g
     inkscape:label="Layer 1"
     inkscape:groupmode="layer"
     id="layer1"
     transform="translate(-1.4650212,-280.79426)">
    <path
       style="fill:#ffffff;stroke-width:1.1193068"
       d="M 11.921875 8 C 10.167723 8.018898 8.2887276 9.1834167 8.0703125 11.046875 C 7.9832395 17.9605 8.053021 24.881436 8.03125 31.796875 C 8.1744109 33.655722 7.7752525 35.546478 8.2109375 37.378906 C 8.5275221 38.961281 10.071881 39.970327 11.625 39.982422 C 14.682383 40.005102 17.742366 39.999707 20.800781 39.992188 L 20.800781 40 C 21.867478 39.9988 22.933278 39.997447 24 39.998047 C 25.066721 39.99714 26.132525 39.998744 27.199219 40 L 27.199219 39.992188 C 30.257635 39.995287 33.317615 40.005132 36.375 39.982422 C 37.928117 39.971082 39.472483 38.961281 39.789062 37.378906 C 40.224766 35.546478 39.825732 33.655722 39.96875 31.796875 C 39.94683 24.881436 40.016687 17.9605 39.929688 11.046875 C 39.711267 9.1834387 37.832279 8.0172724 36.078125 8 C 32.052449 8.0113386 28.025851 8.0219913 24 8.0371094 C 19.974147 8.0257708 15.94755 8.0151181 11.921875 8 z M 21.96875 15.871094 L 26 15.871094 L 26 22.208984 L 31.919922 22.208984 L 31.919922 25.759766 L 26 25.759766 L 26 32.128906 L 21.96875 32.128906 L 21.96875 25.759766 L 16.080078 25.759766 L 16.080078 22.208984 L 21.96875 22.208984 L 21.96875 15.871094 z "
       transform="matrix(0.26458333,0,0,0.26458333,1.4650212,280.79426)"
       id="path865" />
    <g
       aria-label="+"
       style="font-style:normal;font-variant:normal;font-weight:900;font-stretch:normal;font-size:12.12121201px;line-height:1.25;font-family:Lato;-inkscape-font-specification:'Lato Heavy';letter-spacing:0px;word-spacing:0px;fill:#000000;fill-opacity:1;stroke:none;stroke-width:0.26458332"
       id="text823" />
    <g
       aria-label="+"
       style="font-style:normal;font-variant:normal;font-weight:normal;font-stretch:normal;font-size:7.05555534px;line-height:1.25;font-family:Lato;-inkscape-font-specification:Lato;letter-spacing:0px;word-spacing:0px;fill:#000000;fill-opacity:1;stroke:none;stroke-width:0.26458332"
       id="text1481" />
  </g>
</svg>
