<?xml version="1.0" encoding="UTF-8" standalone="no"?>
<svg
   xmlns:dc="http://purl.org/dc/elements/1.1/"
   xmlns:cc="http://creativecommons.org/ns#"
   xmlns:rdf="http://www.w3.org/1999/02/22-rdf-syntax-ns#"
   xmlns:svg="http://www.w3.org/2000/svg"
   xmlns="http://www.w3.org/2000/svg"
   xmlns:sodipodi="http://sodipodi.sourceforge.net/DTD/sodipodi-0.dtd"
   xmlns:inkscape="http://www.inkscape.org/namespaces/inkscape"
   viewBox="0 0 64 64"
   width="48"
   height="48"
   version="1.1"
   id="svg6"
   sodipodi:docname="disconnect_48px.svg"
   style="fill:#ffffff"
   inkscape:export-filename="C:\Users\barto\Desktop\Work\Graphics\icons\redone\disconnect_48px.png"
   inkscape:export-xdpi="96"
   inkscape:export-ydpi="96"
   inkscape:version="0.92.4 (5da689c313, 2019-01-14)">
  <metadata
     id="metadata12">
    <rdf:RDF>
      <cc:Work
         rdf:about="">
        <dc:format>image/svg+xml</dc:format>
        <dc:type
           rdf:resource="http://purl.org/dc/dcmitype/StillImage" />
        <dc:title />
      </cc:Work>
    </rdf:RDF>
  </metadata>
  <defs
     id="defs10" />
  <sodipodi:namedview
     pagecolor="#ffffff"
     bordercolor="#666666"
     borderopacity="1"
     objecttolerance="10"
     gridtolerance="10"
     guidetolerance="10"
     inkscape:pageopacity="0"
     inkscape:pageshadow="2"
     inkscape:window-width="1920"
     inkscape:window-height="1057"
     id="namedview8"
     showgrid="false"
     inkscape:pagecheckerboard="true"
     inkscape:zoom="13.111111"
     inkscape:cx="14.867555"
     inkscape:cy="22.426998"
     inkscape:window-x="-8"
     inkscape:window-y="-8"
     inkscape:window-maximized="1"
     inkscape:current-layer="svg6"
     showguides="false" />
  <path
     d="M 0,40 H 24 V 64 H 0 Z"
     id="path2"
     inkscape:connector-curvature="0"
     style="fill:none" />
  <path
     d="M 33.939394,24.630303 32,22.69091 l -7.757575,7.757575 -7.757576,-7.757575 -1.939394,1.939393 7.757576,7.757575 -7.757576,7.757576 1.939394,1.939394 7.757576,-7.757575 L 32,42.084848 33.939394,40.145454 26.181818,32.387878 Z M 45.575757,10.666667 H 26.181818 c -2.133333,0 -3.878787,1.745455 -3.878787,3.878788 v 5.818182 h 3.878787 V 16.48485 H 45.575757 V 47.515151 H 26.181818 v -3.878787 h -3.878787 v 5.818181 c 0,2.133333 1.745454,3.878789 3.878787,3.878789 h 19.393939 c 2.133333,0 3.878788,-1.745456 3.878788,-3.878789 v -34.90909 c 0,-2.133333 -1.745455,-3.878788 -3.878788,-3.878788 z"
     id="path4"
     inkscape:connector-curvature="0"
     style="stroke-width:1" />
</svg>
