<?xml version="1.0" encoding="UTF-8" standalone="no"?>
<svg
   xmlns:dc="http://purl.org/dc/elements/1.1/"
   xmlns:cc="http://creativecommons.org/ns#"
   xmlns:rdf="http://www.w3.org/1999/02/22-rdf-syntax-ns#"
   xmlns:svg="http://www.w3.org/2000/svg"
   xmlns="http://www.w3.org/2000/svg"
   xmlns:sodipodi="http://sodipodi.sourceforge.net/DTD/sodipodi-0.dtd"
   xmlns:inkscape="http://www.inkscape.org/namespaces/inkscape"
   width="48"
   height="48"
   viewBox="0 0 48 48"
   version="1.1"
   id="svg4"
   sodipodi:docname="hardware.svg"
   inkscape:export-filename="C:\Users\barto\Desktop\Work\Graphics\icons\hardware_248px.png"
   inkscape:export-xdpi="496"
   inkscape:export-ydpi="496"
   inkscape:version="0.92.4 (5da689c313, 2019-01-14)">
  <metadata
     id="metadata10">
    <rdf:RDF>
      <cc:Work
         rdf:about="">
        <dc:format>image/svg+xml</dc:format>
        <dc:type
           rdf:resource="http://purl.org/dc/dcmitype/StillImage" />
        <dc:title></dc:title>
      </cc:Work>
    </rdf:RDF>
  </metadata>
  <defs
     id="defs8" />
  <sodipodi:namedview
     pagecolor="#ffffff"
     bordercolor="#666666"
     borderopacity="1"
     objecttolerance="10"
     gridtolerance="10"
     guidetolerance="10"
     inkscape:pageopacity="0"
     inkscape:pageshadow="2"
     inkscape:window-width="1920"
     inkscape:window-height="1057"
     id="namedview6"
     showgrid="false"
     inkscape:pagecheckerboard="true"
     inkscape:zoom="9.8333333"
     inkscape:cx="-2.4219091"
     inkscape:cy="21.401023"
     inkscape:window-x="-8"
     inkscape:window-y="-8"
     inkscape:window-maximized="1"
     inkscape:current-layer="svg4" />
  <g
     id="g818"
     transform="matrix(0.9,0,0,0.9,2.4016927,2.4)"
     style="stroke-width:1.11111116">
    <path
       style="fill:#ffffff;stroke-width:0.64226079"
       id="path2-4"
       d="m 39.834825,16.687862 c 0.04624,-0.369942 0.08093,-0.745665 0.08093,-1.127168 0,-0.381503 -0.03468,-0.757225 -0.08093,-1.127167 l 2.445087,-1.913295 c 0.219653,-0.17341 0.283237,-0.485549 0.138728,-0.739884 L 40.106501,7.774566 C 39.961993,7.526011 39.661415,7.421965 39.401299,7.526011 l -2.878613,1.16185 C 35.927311,8.231214 35.274131,7.84393 34.568929,7.549133 L 34.135403,4.485549 C 34.08338,4.213873 33.846386,4 33.557368,4 H 28.933091 C 28.644073,4 28.407079,4.213873 28.360836,4.485549 L 27.92731,7.549133 c -0.705202,0.294797 -1.358381,0.6763 -1.953757,1.138728 L 23.09494,7.526011 c -0.260115,-0.09827 -0.560693,0 -0.705202,0.248555 l -2.312139,4.005782 c -0.144508,0.248555 -0.08093,0.560693 0.138729,0.739884 l 2.439306,1.913295 c -0.04624,0.369942 -0.08093,0.745664 -0.08093,1.127167 0,0.381503 0.03468,0.757226 0.08093,1.127168 l -2.439306,1.913295 c -0.219654,0.17341 -0.283237,0.485549 -0.138729,0.739884 l 2.312139,4.00578 c 0.144509,0.248555 0.445087,0.352602 0.705202,0.248555 l 2.878613,-1.161849 c 0.595376,0.456647 1.248555,0.84393 1.953757,1.138728 l 0.433526,3.063584 c 0.04624,0.271676 0.283237,0.485549 0.572255,0.485549 h 4.624277 c 0.289018,0 0.526012,-0.213873 0.572255,-0.485549 l 0.433526,-3.063584 c 0.705202,-0.294798 1.358381,-0.676301 1.953757,-1.138728 l 2.878613,1.161849 c 0.260115,0.09827 0.560693,0 0.705202,-0.248555 l 2.312139,-4.00578 c 0.144508,-0.248555 0.08093,-0.560694 -0.138729,-0.739884 z m -8.589595,2.919075 c -2.236995,0 -4.046243,-1.809249 -4.046243,-4.046243 0,-2.236994 1.809248,-4.046242 4.046243,-4.046242 2.236994,0 4.046242,1.809248 4.046242,4.046242 0,2.236994 -1.809248,4.046243 -4.046242,4.046243 z"
       inkscape:connector-curvature="0" />
    <path
       style="fill:#ffffff;stroke-width:0.64226079"
       id="path2-4-2"
       d="m 25.334825,33.566474 c 0.04624,-0.369942 0.08093,-0.745665 0.08093,-1.127168 0,-0.381503 -0.03468,-0.757225 -0.08093,-1.127167 l 2.445087,-1.913295 c 0.219653,-0.17341 0.283237,-0.485549 0.138728,-0.739884 l -2.312139,-4.005781 c -0.144508,-0.248555 -0.445086,-0.352601 -0.705202,-0.248555 l -2.878613,1.16185 c -0.595375,-0.456647 -1.248555,-0.843931 -1.953757,-1.138728 l -0.433526,-3.063584 c -0.05202,-0.271676 -0.289017,-0.485549 -0.578035,-0.485549 h -4.624276 c -0.289018,0 -0.526012,0.213873 -0.572255,0.485549 l -0.433526,3.063584 c -0.705202,0.294797 -1.358381,0.6763 -1.953757,1.138728 l -2.8786138,-1.16185 c -0.260115,-0.09827 -0.560693,0 -0.705202,0.248555 l -2.312139,4.005781 c -0.144508,0.248555 -0.08093,0.560693 0.138729,0.739884 l 2.439306,1.913295 c -0.04624,0.369942 -0.08093,0.745664 -0.08093,1.127167 0,0.381503 0.03468,0.757226 0.08093,1.127168 l -2.439306,1.913295 c -0.219654,0.17341 -0.283237,0.485549 -0.138729,0.739884 l 2.312139,4.00578 c 0.144509,0.248555 0.445087,0.352602 0.705202,0.248555 l 2.8786138,-1.161849 c 0.595376,0.456647 1.248555,0.84393 1.953757,1.138728 l 0.433526,3.063584 C 13.907077,43.786127 14.144074,44 14.433092,44 h 4.624276 c 0.289018,0 0.526012,-0.213873 0.572255,-0.485549 l 0.433526,-3.063584 c 0.705202,-0.294798 1.358381,-0.676301 1.953757,-1.138728 l 2.878613,1.161849 c 0.260115,0.09827 0.560693,0 0.705202,-0.248555 l 2.312139,-4.00578 c 0.144508,-0.248555 0.08093,-0.560694 -0.138729,-0.739884 z m -8.589595,2.919075 c -2.236994,0 -4.046242,-1.809249 -4.046242,-4.046243 0,-2.236994 1.809248,-4.046242 4.046242,-4.046242 2.236994,0 4.046242,1.809248 4.046242,4.046242 0,2.236994 -1.809248,4.046243 -4.046242,4.046243 z"
       inkscape:connector-curvature="0" />
  </g>
</svg>
