<?xml version="1.0" encoding="UTF-8" standalone="no"?>
<svg
   height="48"
   width="48"
   version="1.1"
   id="svg4"
   sodipodi:docname="Humidity_48px.svg"
   inkscape:version="1.1.2 (b8e25be833, 2022-02-05)"
   inkscape:export-filename="C:\Users\M4800\Documents\AGH-LOCAL\LAB_INFORMATICS\00_PROJECT\Home-Monitoring-System\GUI\images\temperature_icon.png"
   inkscape:export-xdpi="26.3736"
   inkscape:export-ydpi="26.3736"
   xmlns:inkscape="http://www.inkscape.org/namespaces/inkscape"
   xmlns:sodipodi="http://sodipodi.sourceforge.net/DTD/sodipodi-0.dtd"
   xmlns="http://www.w3.org/2000/svg"
   xmlns:svg="http://www.w3.org/2000/svg">
  <defs
     id="defs8" />
  <sodipodi:namedview
     id="namedview6"
     pagecolor="#505050"
     bordercolor="#ffffff"
     borderopacity="1"
     inkscape:pageshadow="0"
     inkscape:pageopacity="0"
     inkscape:pagecheckerboard="1"
     showgrid="false"
     inkscape:zoom="16.833333"
     inkscape:cx="24"
     inkscape:cy="27.415842"
     inkscape:window-width="1920"
     inkscape:window-height="1001"
     inkscape:window-x="-9"
     inkscape:window-y="-9"
     inkscape:window-maximized="1"
     inkscape:current-layer="svg4" />
  <path
     d="M24 43Q17.4 43 12.7 38.425Q8 33.85 8 27.25Q8 23.95 9.25 21.125Q10.5 18.3 12.7 16.1L24 5L35.3 16.1Q37.5 18.3 38.75 21.125Q40 23.95 40 27.25Q40 33.8 35.325 38.4Q30.65 43 24 43ZM24 9.2 14.7 18.35Q12.9 20.15 11.95 22.35Q11 24.55 11 27.25Q11 32.6 14.825 36.3Q18.65 40 24 40Q29.35 40 33.175 36.3Q37 32.6 37 27.25Q37 24.55 36.05 22.35Q35.1 20.15 33.3 18.35Z"
     id="path2"
     style="fill:#ffffff;fill-opacity:1"
     inkscape:export-filename="C:\Users\M4800\Documents\AGH-LOCAL\LAB_INFORMATICS\00_PROJECT\Home-Monitoring-System\GUI\images\humidity_icon.png"
     inkscape:export-xdpi="1054.9451"
     inkscape:export-ydpi="1054.9451" />
</svg>
