<?xml version="1.0" encoding="UTF-8" standalone="no"?>
<svg
   xmlns:dc="http://purl.org/dc/elements/1.1/"
   xmlns:cc="http://creativecommons.org/ns#"
   xmlns:rdf="http://www.w3.org/1999/02/22-rdf-syntax-ns#"
   xmlns:svg="http://www.w3.org/2000/svg"
   xmlns="http://www.w3.org/2000/svg"
   xmlns:xlink="http://www.w3.org/1999/xlink"
   xmlns:sodipodi="http://sodipodi.sourceforge.net/DTD/sodipodi-0.dtd"
   xmlns:inkscape="http://www.inkscape.org/namespaces/inkscape"
   sodipodi:docname="ifrobotics_logo.svg"
   inkscape:version="1.0 (4035a4fb49, 2020-05-01)"
   inkscape:export-ydpi="66.499519"
   inkscape:export-xdpi="66.499519"
   inkscape:export-filename="F:\IFRobotics\DASHBOARD\images\ifrobotics_logo_300px.png"
   id="svg8"
   version="1.1"
   viewBox="0 0 114.70625 134.06714"
   height="134.06714mm"
   width="114.70625mm">
  <defs
     id="defs2">
    <linearGradient
       id="linearGradient913"
       inkscape:collect="always">
      <stop
         id="stop909"
         offset="0"
         style="stop-color:#fff5ff;stop-opacity:1;" />
      <stop
         id="stop911"
         offset="1"
         style="stop-color:#fff5ff;stop-opacity:0;" />
    </linearGradient>
    <linearGradient
       gradientUnits="userSpaceOnUse"
       y2="47.655602"
       x2="156.98663"
       y1="47.655602"
       x1="116.02802"
       id="linearGradient915"
       xlink:href="#linearGradient913"
       inkscape:collect="always" />
  </defs>
  <sodipodi:namedview
     inkscape:pagecheckerboard="true"
     inkscape:window-maximized="1"
     inkscape:window-y="98"
     inkscape:window-x="-8"
     inkscape:window-height="1017"
     inkscape:window-width="1920"
     showgrid="false"
     inkscape:document-rotation="0"
     inkscape:current-layer="layer1"
     inkscape:document-units="mm"
     inkscape:cy="254.1855"
     inkscape:cx="-392.45487"
     inkscape:zoom="0.7"
     inkscape:pageshadow="2"
     inkscape:pageopacity="0.0"
     borderopacity="1.0"
     bordercolor="#666666"
     pagecolor="#ffffff"
     id="base" />
  <metadata
     id="metadata5">
    <rdf:RDF>
      <cc:Work
         rdf:about="">
        <dc:format>image/svg+xml</dc:format>
        <dc:type
           rdf:resource="http://purl.org/dc/dcmitype/StillImage" />
        <dc:title></dc:title>
      </cc:Work>
    </rdf:RDF>
  </metadata>
  <g
     transform="translate(-57.578133,35.466579)"
     id="layer1"
     inkscape:groupmode="layer"
     inkscape:label="Layer 1">
    <text
       id="text859"
       y="59.329784"
       x="114.42441"
       style="font-size:10.5833px;line-height:1.25;font-family:'Latin Modern Math';-inkscape-font-specification:'Latin Modern Math';fill:#ffffff;fill-opacity:1;stroke-width:0.264583"
       xml:space="preserve"><tspan
         style="fill:#ffffff;fill-opacity:1;stroke-width:0.264583"
         y="59.329784"
         x="114.42441"
         id="tspan857"
         sodipodi:role="line"> Robotics</tspan></text>
    <g
       style="fill:#ffffff;fill-opacity:1"
       transform="translate(51.446133,71.058196)"
       id="g877">
      <path
         id="path907"
         d="m 103.93393,10.783102 c 0.34177,-0.363802 0.68094,-0.661459 0.7537,-0.661459 0.0728,0 -0.14735,0.297657 -0.48912,0.661459 -0.34178,0.363802 -0.68094,0.661458 -0.7537,0.661458 -0.0728,0 0.14734,-0.297656 0.48912,-0.661458 z M 30.630102,2.5148725 29.718302,1.522685 30.71049,2.4344841 c 0.545703,0.5014887 0.992187,0.947973 0.992187,0.9921875 0,0.2020412 -0.223895,0.011695 -1.072575,-0.9117991 z m 64.837157,0.066146 c 0.341776,-0.363802 0.68094,-0.6614583 0.7537,-0.6614583 0.07276,0 -0.147341,0.2976563 -0.489116,0.6614583 -0.341776,0.3638021 -0.68094,0.6614584 -0.7537,0.6614584 -0.07276,0 0.147341,-0.2976563 0.489116,-0.6614584 z m 10.161321,-70.0484375 -0.50403,-0.595313 0.59531,0.504029 c 0.32743,0.277214 0.59532,0.545105 0.59532,0.595312 0,0.211733 -0.21294,0.05542 -0.6866,-0.504028 z m -2.78674,-2.778125 c -0.3291,-0.419645 -0.31975,-0.429004 0.0999,-0.0999 0.44073,0.345643 0.58089,0.562917 0.36312,0.562917 -0.0549,0 -0.2633,-0.20836 -0.46302,-0.463021 z M 40.632365,-106.4932 c 3.237838,-0.0421 8.536119,-0.0421 11.773958,0 3.237838,0.0421 0.588698,0.0765 -5.886979,0.0765 -6.475677,0 -9.124818,-0.0344 -5.886979,-0.0765 z"
         style="fill:#ffffff;fill-opacity:1;stroke-width:0.264583" />
      <path
         id="path905"
         d="m 45.796775,-66.526294 c 0.257431,-0.06708 0.614619,-0.06267 0.79375,0.0098 0.17913,0.07248 -0.03149,0.127363 -0.468056,0.121971 -0.436563,-0.0054 -0.583126,-0.06469 -0.325694,-0.131773 z m 7.179722,-16.551542 -0.504028,-0.595312 0.595312,0.504028 c 0.327422,0.277215 0.595313,0.545105 0.595313,0.595313 0,0.211733 -0.212934,0.05542 -0.686597,-0.504029 z"
         style="fill:#ffffff;fill-opacity:1;stroke-width:0.264583" />
      <path
         id="path903"
         d="m 59.682364,27.408915 c 0.181901,-0.0734 0.479558,-0.0734 0.661459,0 0.181901,0.0734 0.03307,0.133453 -0.33073,0.133453 -0.363802,0 -0.51263,-0.06005 -0.330729,-0.133453 z m 6.879167,0 c 0.181901,-0.0734 0.479557,-0.0734 0.661458,0 0.181901,0.0734 0.03307,0.133453 -0.330729,0.133453 -0.363802,0 -0.51263,-0.06005 -0.330729,-0.133453 z m 2.645833,-68.020779 c 2.801276,-0.04286 7.385182,-0.04286 10.186458,0 2.801276,0.04285 0.509323,0.07792 -5.093229,0.07792 -5.602552,0 -7.894505,-0.03507 -5.093229,-0.07792 z m -5.027083,-46.543804 c 0.181901,-0.0734 0.479557,-0.0734 0.661458,0 0.181901,0.0734 0.03307,0.133453 -0.330729,0.133453 -0.363802,0 -0.51263,-0.06005 -0.330729,-0.133453 z M 56.57351,-101.13565 c 0.790422,-0.80036 1.496663,-1.45521 1.569424,-1.45521 0.07276,0 -0.514419,0.65485 -1.30484,1.45521 -0.790422,0.80037 -1.496664,1.45521 -1.569424,1.45521 -0.07276,0 0.514419,-0.65484 1.30484,-1.45521 z"
         style="fill:#ffffff;fill-opacity:1;stroke-width:0.264583" />
      <path
         id="path901"
         d="m 64.108634,-8.002315 c 1.6e-5,-13.242396 0.03224,-18.620983 0.07159,-11.95242 0.03936,6.668566 0.03935,17.503254 -2.9e-5,24.0770835 -0.03938,6.5738325 -0.07158,1.1177323 -0.07157,-12.1246635 z M 55.644071,-24.27419 c 0,-21.900885 0.03128,-30.860339 0.06952,-19.909896 0.03824,10.950443 0.03824,28.869349 0,39.8197918 -0.03824,10.9504427 -0.06952,1.9909896 -0.06952,-19.9098958 z M 93.879759,4.2009139 c 0,-0.054941 0.20836,-0.2633001 0.463021,-0.4630208 0.419645,-0.3291073 0.429004,-0.319749 0.0999,0.099896 -0.345643,0.4407297 -0.562917,0.5808874 -0.562917,0.3631247 z m 2.645834,-2.6458333 c 0,-0.054941 0.208359,-0.2633001 0.463021,-0.4630208 0.419645,-0.32910732 0.429003,-0.31974901 0.0999,0.099896 -0.345644,0.4407297 -0.562917,0.5808874 -0.562917,0.3631248 z M 120.65426,-27.052315 c 0.005,-0.436562 0.0647,-0.583126 0.13177,-0.325694 0.0671,0.257432 0.0627,0.614619 -0.01,0.79375 -0.0725,0.179131 -0.12736,-0.03149 -0.12197,-0.468056 z M 6.132011,-29.698148 c -7.937e-4,-1.309688 0.043934,-1.878828 0.099422,-1.264754 0.055488,0.614072 0.05615,1.685634 0.00159,2.38125 -0.054803,0.695614 -0.1002056,0.193191 -0.10101,-1.116496 z m 114.512439,-2.778125 c 0,-0.363802 0.0601,-0.512631 0.13345,-0.330729 0.0734,0.181901 0.0734,0.479557 0,0.661458 -0.0734,0.181901 -0.13345,0.03307 -0.13345,-0.330729 z M 17.262193,-38.56169 c 0,-2.983177 0.03859,-4.203568 0.08575,-2.711979 0.04716,1.491588 0.04716,3.93237 0,5.423958 -0.04716,1.491589 -0.08575,0.271198 -0.08575,-2.711979 z m 46.836435,-9.657292 c 1.24e-4,-4.220104 0.03665,-5.90946 0.08118,-3.754128 0.04452,2.155336 0.04442,5.608148 -2.27e-4,7.672917 -0.04465,2.064771 -0.08108,0.301316 -0.08095,-3.918789 z m 27.755167,-9.525 c 0.0011,-1.164166 0.04748,-1.607505 0.10337,-0.985194 0.05589,0.62231 0.0551,1.57481 -0.0019,2.116666 -0.05685,0.541857 -0.102582,0.03269 -0.101622,-1.131472 z m -74.627527,-3.704166 c 0.0021,-0.727604 0.05337,-0.993857 0.114186,-0.591675 0.06082,0.402183 0.05919,0.997495 -0.0036,1.322917 -0.0628,0.325421 -0.112559,-0.0037 -0.110575,-0.731242 z m 25.87881,-5.545686 c -1.757071,-0.56652 -3.845046,-2.134197 -4.884925,-3.667664 -1.361937,-2.008389 -1.848895,-3.769 -1.697016,-6.135598 0.23313,-3.632647 2.36882,-6.727039 5.716532,-8.282665 1.266819,-0.588666 1.8738,-0.698703 3.8828,-0.703897 2.033466,-0.0053 2.600552,0.09665 3.8828,0.697743 2.103681,0.986168 3.762996,2.611234 4.782322,4.683612 0.787382,1.600819 0.859878,1.960459 0.859878,4.265766 0,2.246162 -0.08326,2.687135 -0.772375,4.090643 -0.984975,2.006087 -2.682533,3.702114 -4.599593,4.595451 -1.825464,0.850648 -5.268328,1.06989 -7.170423,0.456609 z"
         style="fill:#ffffff;fill-opacity:1;stroke-width:0.264583" />
      <path
         id="path899"
         d="m 61.005281,27.397419 c 0.327422,-0.06307 0.863203,-0.06307 1.190625,0 0.327422,0.06306 0.05953,0.114662 -0.595313,0.114662 -0.654843,0 -0.922734,-0.0516 -0.595312,-0.114662 z m 3.971835,-5.29e-4 c 0.329118,-0.06329 0.805368,-0.06088 1.058333,0.0053 0.252966,0.06622 -0.01632,0.118005 -0.598397,0.115068 -0.582084,-0.0029 -0.789054,-0.05712 -0.459936,-0.120407 z m 4.230248,-59.542088 c 2.801276,-0.04285 7.385182,-0.04285 10.186458,0 2.801276,0.04286 0.509323,0.07792 -5.093229,0.07792 -5.602552,0 -7.894505,-0.03506 -5.093229,-0.07792 z m 35.106796,-36.645138 -0.77711,-0.859896 0.8599,0.777105 c 0.47294,0.427408 0.85989,0.814361 0.85989,0.859896 0,0.204407 -0.21831,0.02445 -0.94268,-0.777105 z"
         style="fill:#ffffff;fill-opacity:1;stroke-width:0.264583" />
      <path
         id="path897"
         d="m 64.582191,16.023706 c 0.257432,-0.06708 0.614619,-0.06267 0.79375,0.0098 0.179131,0.07248 -0.03149,0.127363 -0.468056,0.121971 -0.436562,-0.0054 -0.583126,-0.06469 -0.325694,-0.131773 z m 26.644091,-84.946333 -1.712147,-1.785938 1.785937,1.712148 c 1.658855,1.590318 1.906886,1.859727 1.712148,1.859727 -0.04058,0 -0.844256,-0.803672 -1.785938,-1.785937 z M 43.690477,-98.02617 c 1.86386,-0.04555 4.840422,-0.04541 6.614583,2.65e-4 1.774158,0.04571 0.24918,0.08297 -3.388841,0.08281 -3.638021,-1.61e-4 -5.089605,-0.03756 -3.225742,-0.0831 z"
         style="fill:#ffffff;fill-opacity:1;stroke-width:0.264583" />
      <path
         id="path895"
         d="m 17.247228,-30.491898 c 7.94e-4,-1.455209 0.04512,-2.016766 0.09874,-1.247902 0.05362,0.768863 0.05305,1.959488 -0.0013,2.645833 -0.05431,0.686345 -0.09817,0.05728 -0.09748,-1.397931 z m 103.444402,0.661458 c 0,-1.091406 0.0467,-1.537891 0.10379,-0.992187 0.0571,0.545703 0.0571,1.438671 0,1.984375 -0.0571,0.545703 -0.10379,0.09922 -0.10379,-0.992188 z m -11.64594,0 c 0,-0.945885 0.048,-1.332839 0.10672,-0.859896 0.0587,0.472943 0.0587,1.246849 0,1.719792 -0.0587,0.472943 -0.10672,0.08599 -0.10672,-0.859896 z M 91.853795,-61.977315 c 0.0011,-1.164167 0.04748,-1.607505 0.10337,-0.985195 0.05589,0.622311 0.0551,1.574811 -0.0019,2.116667 -0.05685,0.541856 -0.102582,0.0327 -0.101622,-1.131472 z"
         style="fill:#ffffff;fill-opacity:1;stroke-width:0.264583" />
      <path
         id="path893"
         d="m 62.989656,27.401758 c 0.254661,-0.06655 0.67138,-0.06655 0.926042,0 0.254661,0.06655 0.0463,0.121002 -0.463021,0.121002 -0.509323,0 -0.717683,-0.05445 -0.463021,-0.121002 z m 26.093853,-98.441052 c -0.329107,-0.419645 -0.319749,-0.429004 0.0999,-0.0999 0.44073,0.345643 0.580888,0.562917 0.363125,0.562917 -0.05494,0 -0.2633,-0.20836 -0.463021,-0.463021 z"
         style="fill:#ffffff;fill-opacity:1;stroke-width:0.264583" />
      <path
         id="path891"
         d="m 66.048901,16.02632 c 0.190994,-0.07643 0.4192,-0.06703 0.507119,0.02088 0.08792,0.08792 -0.06835,0.150453 -0.347266,0.138965 -0.308226,-0.0127 -0.370919,-0.07539 -0.159853,-0.159851 z m 36.429819,-4.052593 c 0.26339,-0.291042 0.53842,-0.529167 0.61118,-0.529167 0.0728,0 -0.0832,0.238125 -0.3466,0.529167 -0.26339,0.291041 -0.53842,0.529166 -0.61118,0.529166 -0.0728,0 0.0832,-0.238125 0.3466,-0.529166 z M 22.826687,10.584664 21.780803,9.460185 22.905282,10.50607 c 1.045755,0.972661 1.246063,1.203073 1.045884,1.203073 -0.04323,0 -0.549243,-0.506015 -1.124479,-1.124479 z M 105.12455,9.3278933 c 0.26339,-0.2910416 0.53842,-0.5291666 0.61118,-0.5291666 0.0728,0 -0.0832,0.238125 -0.3466,0.5291666 -0.26339,0.2910417 -0.53842,0.5291667 -0.61118,0.5291667 -0.0728,0 0.0832,-0.238125 0.3466,-0.5291667 z M 43.952647,-64.158879 c 1.280454,-0.04861 3.304516,-0.04836 4.497917,5.3e-4 1.193403,0.04891 0.145759,0.08868 -2.328095,0.08837 -2.473854,-2.65e-4 -3.450273,-0.04032 -2.169822,-0.08893 z"
         style="fill:#ffffff;fill-opacity:1;stroke-width:0.264583" />
      <path
         id="path889"
         d="m 66.826114,16.031832 c 0.181901,-0.0734 0.479557,-0.0734 0.661459,0 0.181901,0.0734 0.03307,0.133453 -0.33073,0.133453 -0.363802,0 -0.51263,-0.06006 -0.330729,-0.133453 z M 30.630102,2.7794558 29.718302,1.7872683 30.71049,2.6990675 c 0.545703,0.5014886 0.992187,0.947973 0.992187,0.9921875 0,0.2020411 -0.223895,0.011695 -1.072575,-0.9117992 z m 64.837157,0.066146 c 0.341776,-0.3638021 0.68094,-0.6614584 0.7537,-0.6614584 0.07276,0 -0.147341,0.2976563 -0.489116,0.6614584 -0.341776,0.3638021 -0.68094,0.6614583 -0.7537,0.6614583 -0.07276,0 0.147341,-0.2976562 0.489116,-0.6614583 z M 41.756844,-35.651273 V -63.96169 h 4.365625 4.365625 v 28.310417 28.3104163 h -4.365625 -4.365625 z m 64.524586,-30.890104 c -0.32911,-0.419646 -0.31975,-0.429004 0.0999,-0.0999 0.44073,0.345644 0.58089,0.562917 0.36313,0.562917 -0.0549,0 -0.2633,-0.208359 -0.46302,-0.46302 z M 45.799722,-90.085661 c 0.695616,-0.05468 1.767179,-0.05402 2.38125,0.0016 0.614074,0.05549 0.04493,0.10023 -1.264753,0.09942 -1.309688,-7.94e-4 -1.81211,-0.04621 -1.116497,-0.100889 z"
         style="fill:#ffffff;fill-opacity:1;stroke-width:0.264583" />
      <path
         id="path887"
         d="m 64.582191,16.28829 c 0.257432,-0.06708 0.614619,-0.06267 0.79375,0.0098 0.179131,0.07248 -0.03149,0.127362 -0.468056,0.12197 -0.436562,-0.0054 -0.583126,-0.06469 -0.325694,-0.131773 z m 3.302256,-0.256458 c 0.181902,-0.0734 0.479558,-0.0734 0.661459,0 0.181901,0.0734 0.03307,0.133453 -0.330729,0.133453 -0.363802,0 -0.512631,-0.06006 -0.33073,-0.133453 z m 2.133204,-0.270095 c 0.190994,-0.07643 0.4192,-0.06703 0.507119,0.02088 0.08792,0.08792 -0.06835,0.150452 -0.347266,0.138964 -0.308226,-0.0127 -0.370919,-0.07539 -0.159853,-0.15985 z m 33.122529,-4.399968 c 0,-0.04554 0.38695,-0.432488 0.85989,-0.859896 l 0.8599,-0.7771047 -0.77711,0.8598957 c -0.72437,0.801545 -0.94268,0.981512 -0.94268,0.777105 z M 31.93351,4.1023725 c -0.329107,-0.419645 -0.319748,-0.4290034 0.0999,-0.099896 0.254661,0.1997207 0.46302,0.4080801 0.46302,0.4630208 0,0.2177627 -0.217273,0.077605 -0.562917,-0.3631247 z M 94.276634,4.0362267 C 94.540025,3.745185 94.815056,3.50706 94.887817,3.50706 c 0.07276,0 -0.08321,0.238125 -0.346599,0.5291667 -0.26339,0.2910416 -0.538422,0.5291666 -0.611182,0.5291666 -0.07276,0 0.08321,-0.238125 0.346598,-0.5291666 z m 2.38125,-2.38125 C 96.921274,1.363935 97.196306,1.12581 97.269067,1.12581 c 0.07276,0 -0.08321,0.238125 -0.346599,0.5291667 -0.26339,0.2910416 -0.538422,0.5291666 -0.611182,0.5291666 -0.07276,0 0.08321,-0.238125 0.346598,-0.5291666 z M 29.287677,1.4565392 c -0.329107,-0.4196451 -0.319749,-0.4290034 0.0999,-0.099896 0.44073,0.3456437 0.580888,0.5629169 0.363125,0.5629169 -0.05494,0 -0.2633,-0.2083594 -0.463021,-0.4630208 z M 69.207364,-40.347281 c 2.801276,-0.04285 7.385182,-0.04285 10.186458,0 2.801276,0.04286 0.509323,0.07792 -5.093229,0.07792 -5.602552,0 -7.894505,-0.03506 -5.093229,-0.07792 z m -4.346265,-23.812757 c 5.067498,-0.04022 13.28281,-0.0402 18.256249,5.1e-5 4.973442,0.04025 0.827308,0.07316 -9.21363,0.07314 -10.040937,-2.7e-5 -14.110115,-0.03296 -9.042619,-0.07319 z m 40.626581,-3.175089 c -0.32911,-0.419646 -0.31975,-0.429004 0.0999,-0.0999 0.25466,0.199721 0.46302,0.408081 0.46302,0.463021 0,0.217763 -0.21727,0.07761 -0.56291,-0.363124 z m -2.76952,-2.778125 -0.50403,-0.595313 0.59532,0.504029 c 0.32742,0.277214 0.59531,0.545105 0.59531,0.595312 0,0.211733 -0.21293,0.05542 -0.6866,-0.504028 z"
         style="fill:#ffffff;fill-opacity:1;stroke-width:0.264583" />
      <path
         id="path885"
         d="M 56.249446,26.914202 C 52.152553,26.355593 49.552805,25.760781 45.689814,24.498197 25.398998,17.866323 10.526896,0.46015008 6.9567675,-20.834607 6.3807194,-24.270573 6.1623164,-31.683862 6.5365907,-35.096815 c 0.9418055,-8.588174 4.1336383,-17.49398 8.8753313,-24.763833 l 1.725718,-2.645834 0.0087,16.801042 c 0.0048,9.240573 0.129164,18.16164 0.276349,19.824594 1.581526,17.8687599 12.9408,32.9425513 29.621844,39.308278 2.291078,0.874305 7.332986,2.250461 8.245163,2.250461 0.474816,0 0.490032,-1.236413 0.490032,-39.819791 V -63.96169 h 17.991667 17.991666 v 4.101042 4.101041 H 77.868473 63.97385 l 0.07014,7.739063 0.07014,7.739062 10.120312,0.06929 10.120313,0.06929 v 3.965604 3.965607 H 74.168302 63.981843 v 24.1937593 c 0,13.6778947 0.101389,24.2564207 0.23326,24.3379227 0.387903,0.239736 5.788776,-0.361833 8.483994,-0.944978 24.042719,-5.201954 39.580503,-28.015462 35.834103,-52.613787 -2.37,-15.561035 -12.585955,-30.220309 -28.808649,-41.338643 -3.778826,-2.589845 -8.79785,-5.43532 -12.370384,-7.013239 -1.56496,-0.691214 -2.718517,-1.299041 -2.563458,-1.350727 0.523997,-0.174665 5.389602,0.503354 8.451551,1.177721 18.383572,4.048813 34.8378,16.957048 42.50094,33.341704 3.27838,7.009554 4.85948,14.371384 4.85948,22.626447 0,15.698788 -6.05178,29.98446746 -17.36625,40.994362 -9.110582,8.865328 -20.907019,14.435743 -33.566045,15.850283 -3.24594,0.362704 -10.290672,0.29188 -13.420939,-0.134932 z"
         style="fill:#ffffff;fill-opacity:1;stroke-width:0.264583" />
      <path
         id="path883"
         d="m 54.19226,-99.018982 c 0.493655,-0.509323 0.957085,-0.926041 1.029846,-0.926041 0.07276,0 -0.271608,0.416718 -0.765262,0.926041 -0.493655,0.509323 -0.957086,0.926042 -1.029846,0.926042 -0.07276,0 0.271608,-0.416719 0.765262,-0.926042 z"
         style="fill:#ffffff;fill-opacity:1;stroke-width:0.264583" />
      <path
         id="path881"
         d="m 44.20424,-95.37977 c 1.418828,-0.04758 3.740546,-0.04758 5.159375,0 1.418828,0.04757 0.257968,0.0865 -2.579688,0.0865 -2.837656,0 -3.998515,-0.03892 -2.579687,-0.0865 z m -3.571875,-10.84884 c 3.237838,-0.0421 8.536119,-0.0421 11.773958,0 3.237838,0.0421 0.588698,0.0765 -5.886979,0.0765 -6.475677,0 -9.124818,-0.0344 -5.886979,-0.0765 z"
         style="fill:#ffffff;fill-opacity:1;stroke-width:0.264583" />
      <path
         id="path879"
         d="m 43.716835,-91.941377 c -0.536977,-0.982266 -1.138116,-2.04964 -1.335866,-2.371942 -0.197746,-0.322303 -0.359542,-0.649725 -0.359542,-0.727605 0,-0.07788 2.143125,-0.141599 4.7625,-0.141599 2.619375,0 4.7625,0.06191 4.7625,0.137578 0,0.07567 -0.536977,1.206762 -1.193281,2.513541 l -1.193279,2.375964 h -2.233353 -2.233356 z m -5.989386,-8.466663 -2.820678,-2.31511 -0.01455,-1.65364 -0.01454,-1.65365 H 46.519344 58.16101 v 1.69637 1.69638 l -2.447396,2.2673 -2.447395,2.267301 -6.359049,0.0051 -6.359046,0.0051 -2.820675,-2.315101 z"
         style="fill:#ffffff;fill-opacity:1;stroke-width:0.264583" />
    </g>
  </g>
</svg>
