<?xml version="1.0" encoding="UTF-8" standalone="no"?>
<svg
   xmlns:dc="http://purl.org/dc/elements/1.1/"
   xmlns:cc="http://creativecommons.org/ns#"
   xmlns:rdf="http://www.w3.org/1999/02/22-rdf-syntax-ns#"
   xmlns:svg="http://www.w3.org/2000/svg"
   xmlns="http://www.w3.org/2000/svg"
   xmlns:sodipodi="http://sodipodi.sourceforge.net/DTD/sodipodi-0.dtd"
   xmlns:inkscape="http://www.inkscape.org/namespaces/inkscape"
   width="48"
   height="48"
   viewBox="0 0 48 48"
   version="1.1"
   id="svg4"
   sodipodi:docname="info.svg"
   inkscape:version="0.92.4 (5da689c313, 2019-01-14)"
   inkscape:export-filename="C:\Users\barto\Desktop\Work\Graphics\icons\info_56px.png"
   inkscape:export-xdpi="112"
   inkscape:export-ydpi="112">
  <metadata
     id="metadata10">
    <rdf:RDF>
      <cc:Work
         rdf:about="">
        <dc:format>image/svg+xml</dc:format>
        <dc:type
           rdf:resource="http://purl.org/dc/dcmitype/StillImage" />
        <dc:title></dc:title>
      </cc:Work>
    </rdf:RDF>
  </metadata>
  <defs
     id="defs8" />
  <sodipodi:namedview
     pagecolor="#ffffff"
     bordercolor="#666666"
     borderopacity="1"
     objecttolerance="10"
     gridtolerance="10"
     guidetolerance="10"
     inkscape:pageopacity="0"
     inkscape:pageshadow="2"
     inkscape:window-width="1920"
     inkscape:window-height="1057"
     id="namedview6"
     showgrid="false"
     inkscape:pagecheckerboard="true"
     inkscape:zoom="9.8333333"
     inkscape:cx="1.6748989"
     inkscape:cy="18.668171"
     inkscape:window-x="-8"
     inkscape:window-y="-8"
     inkscape:window-maximized="1"
     inkscape:current-layer="svg4"
     fit-margin-top="0"
     fit-margin-left="0"
     fit-margin-right="0"
     fit-margin-bottom="0" />
  <path
     inkscape:connector-curvature="0"
     d="m 21.600001,11.999999 h 4.8 v 4.8 h -4.8 z m 0,9.600001 h 4.8 v 14.400001 h -4.8 z m 2.4,-21.60000205 C 10.752,-2.05e-6 -1e-6,10.751999 -1e-6,24 c 0,13.248001 10.752001,24.000002 24.000002,24.000002 13.248,0 24,-10.752001 24,-24.000002 0,-13.248001 -10.752,-24.00000205 -24,-24.00000205 z m 0,43.20000305 C 13.416,43.200001 4.7999994,34.584001 4.7999994,24 4.7999994,13.415999 13.416,4.7999984 24.000001,4.7999984 c 10.584001,0 19.2,8.6160006 19.2,19.2000016 0,10.584001 -8.615999,19.200001 -19.2,19.200001 z"
     id="path4"
     style="fill:#ffffff;fill-opacity:1;stroke-width:2" />
</svg>
