<?xml version="1.0" encoding="UTF-8" standalone="no"?>
<!-- Created with Inkscape (http://www.inkscape.org/) -->

<svg
   xmlns:osb="http://www.openswatchbook.org/uri/2009/osb"
   xmlns:dc="http://purl.org/dc/elements/1.1/"
   xmlns:cc="http://creativecommons.org/ns#"
   xmlns:rdf="http://www.w3.org/1999/02/22-rdf-syntax-ns#"
   xmlns:svg="http://www.w3.org/2000/svg"
   xmlns="http://www.w3.org/2000/svg"
   xmlns:sodipodi="http://sodipodi.sourceforge.net/DTD/sodipodi-0.dtd"
   xmlns:inkscape="http://www.inkscape.org/namespaces/inkscape"
   width="48"
   height="48"
   viewBox="0 0 12.7 12.700001"
   version="1.1"
   id="svg845"
   inkscape:version="0.92.4 (5da689c313, 2019-01-14)"
   sodipodi:docname="investmentMoldPreparation.svg"
   inkscape:export-filename="C:\Users\barto\Desktop\Work\Graphics\icons\investment_mold_preparation.png"
   inkscape:export-xdpi="496"
   inkscape:export-ydpi="496">
  <defs
     id="defs839">
    <linearGradient
       id="linearGradient2950"
       osb:paint="solid">
      <stop
         style="stop-color:#ffffff;stop-opacity:1;"
         offset="0"
         id="stop2948" />
    </linearGradient>
  </defs>
  <sodipodi:namedview
     id="base"
     pagecolor="#ffffff"
     bordercolor="#666666"
     borderopacity="1.0"
     inkscape:pageopacity="0.0"
     inkscape:pageshadow="2"
     inkscape:zoom="16.000001"
     inkscape:cx="10.670827"
     inkscape:cy="25.940445"
     inkscape:document-units="px"
     inkscape:current-layer="layer1"
     showgrid="false"
     inkscape:window-width="1920"
     inkscape:window-height="1057"
     inkscape:window-x="-8"
     inkscape:window-y="-8"
     inkscape:window-maximized="1"
     inkscape:pagecheckerboard="true"
     fit-margin-top="20"
     fit-margin-left="20"
     fit-margin-right="20"
     fit-margin-bottom="20"
     showguides="true"
     inkscape:guide-bbox="true"
     units="px"
     inkscape:snap-bbox="true"
     inkscape:bbox-paths="true"
     inkscape:bbox-nodes="true"
     inkscape:snap-page="true" />
  <metadata
     id="metadata842">
    <rdf:RDF>
      <cc:Work
         rdf:about="">
        <dc:format>image/svg+xml</dc:format>
        <dc:type
           rdf:resource="http://purl.org/dc/dcmitype/StillImage" />
        <dc:title />
      </cc:Work>
    </rdf:RDF>
  </metadata>
  <g
     inkscape:label="Calque 1"
     inkscape:groupmode="layer"
     id="layer1"
     transform="translate(-22.302705,-227.68482)">
    <g
       id="g821">
      <path
         id="rect14710"
         transform="matrix(0.26458334,0,0,0.26458334,22.302705,227.68482)"
         d="M 20 4 L 20 22.837891 L 20.730469 24.103516 L 22.980469 28 L 44 28 L 44 4 L 38.927734 4 L 33.333984 7.2304688 L 33.333984 12 L 36 12 L 36 10.666016 L 36 9.3339844 L 38.666016 9.3339844 L 38.666016 10.666016 L 41.333984 10.666016 L 41.333984 16 L 38.666016 16 L 38.666016 14.666016 L 36 14.666016 L 33.333984 14.666016 L 33.333984 21.333984 L 36 21.333984 L 36 20 L 38.666016 20 L 38.666016 18.666016 L 41.333984 18.666016 L 41.333984 20 L 41.333984 24 L 38.666016 24 L 38.666016 25.333984 L 36 25.333984 L 36 24 L 28 24 L 28 25.333984 L 25.333984 25.333984 L 25.333984 24 L 22.666016 24 L 22.666016 20 L 22.666016 18.666016 L 25.333984 18.666016 L 25.333984 20 L 28 20 L 28 21.333984 L 30.666016 21.333984 L 30.666016 14.666016 L 28 14.666016 L 25.333984 14.666016 L 25.333984 16 L 22.666016 16 L 22.666016 10.666016 L 25.333984 10.666016 L 25.333984 9.3339844 L 28 9.3339844 L 28 10.666016 L 28 12 L 30.666016 12 L 30.666016 7.2304688 L 25.072266 4 L 20 4 z M 20 26.833984 L 20 28 L 20.671875 28 L 20 26.833984 z "
         style="opacity:1;fill:#ffffff;fill-opacity:1;stroke:none;stroke-width:0.5162186;stroke-linecap:round;stroke-linejoin:round;stroke-miterlimit:4;stroke-dasharray:none;stroke-dashoffset:0;stroke-opacity:1;paint-order:markers stroke fill" />
      <path
         inkscape:connector-curvature="0"
         d="m 23.362138,237.20979 -0.0011,1.41112 c 0,0.38982 0.312291,0.70555 0.702111,0.70555 h 4.942334 c 0.389819,0 0.705555,-0.31573 0.705555,-0.70555 v -1.41112 h -0.705555 -1.411112 c 0,0.58385 -0.474486,1.05834 -1.058333,1.05834 -0.583847,0 -1.058333,-0.47449 -1.058333,-1.05834 h -1.414556 z m 3.176,-3.91501 c -0.06091,-4.2e-4 -0.120868,0.0154 -0.173632,0.0458 -0.05281,0.0307 -0.09646,0.075 -0.126436,0.12816 l -0.0065,0.0114 c -2.12e-4,5.5e-4 -5.17e-4,6.7e-4 -6.67e-4,0.001 l -0.08992,0.15606 -0.03962,0.0679 -1.92133,3.32797 h 1.312926 0.179144 a 0.8819445,0.8819445 0 0 0 -0.01343,0.0882 0.8819445,0.8819445 0 0 0 -0.0045,0.0882 0.8819445,0.8819445 0 0 0 0.881944,0.88195 0.8819445,0.8819445 0 0 0 0.881945,-0.88195 0.8819445,0.8819445 0 0 0 0,-0.001 0.8819445,0.8819445 0 0 0 -0.01895,-0.17501 h 3.45e-4 0.179145 1.313959 l -1.960603,-3.39583 -0.112655,-0.19499 -0.0093,-0.0165 h -0.0045 c -0.06436,-0.0823 -0.162864,-0.13049 -0.267339,-0.13126 z m -0.719336,1.8669 h 0.254248 v 1.23472 h -0.254248 z m 0.489204,0 h 0.481624 c 0.09272,0 0.174154,0.0171 0.244258,0.051 0.07067,0.0339 0.125074,0.0823 0.162952,0.14503 0.03788,0.0622 0.05685,0.1332 0.05685,0.21292 0,0.12098 -0.04161,0.21652 -0.124712,0.28662 -0.08254,0.0695 -0.197051,0.10439 -0.343477,0.10439 h -0.223242 v 0.43477 h -0.254248 z m 0.254248,0.20636 v 0.38757 h 0.227376 c 0.06728,0 0.1186,-0.0159 0.153652,-0.0475 0.03562,-0.0317 0.0534,-0.0769 0.0534,-0.13573 0,-0.0605 -0.01778,-0.10945 -0.0534,-0.14676 -0.03562,-0.0373 -0.08504,-0.0564 -0.147795,-0.0575 z m -1.080038,1.93132 c 0.0018,0.0211 0.0046,0.0419 0.0076,0.0627 a 1.0583334,1.0583334 0 0 1 -0.0076,-0.0627 z m 0.01343,0.10163 c 0.0042,0.0229 0.0095,0.0455 0.01516,0.0679 a 1.0583334,1.0583334 0 0 1 -0.01516,-0.0679 z m 0.02446,0.10335 c 0.0061,0.0211 0.01332,0.0415 0.02067,0.062 a 1.0583334,1.0583334 0 0 1 -0.02067,-0.062 z m 0.03514,0.10129 c 0.0071,0.0175 0.01511,0.0343 0.02308,0.0513 a 1.0583334,1.0583334 0 0 1 -0.02308,-0.0513 z m 0.04479,0.0965 c 0.0079,0.015 0.01655,0.0295 0.02515,0.0441 a 1.0583334,1.0583334 0 0 1 -0.02515,-0.0441 z m 1.83727,0.0599 a 1.0583334,1.0583334 0 0 1 -0.02549,0.0417 c 0.0091,-0.0134 0.01697,-0.0278 0.02549,-0.0417 z m -1.784215,0.0303 c 0.0085,0.0129 0.01781,0.0251 0.02687,0.0375 a 1.0583334,1.0583334 0 0 1 -0.02687,-0.0375 z m 0.06305,0.0854 c 0.0079,0.01 0.01654,0.0188 0.02481,0.0283 a 1.0583334,1.0583334 0 0 1 -0.02481,-0.0283 z m 1.590945,0.0551 a 1.0583334,1.0583334 0 0 1 -0.02756,0.0293 c 0.0095,-0.009 0.01839,-0.0195 0.02756,-0.0293 z m -1.523421,0.0203 c 0.0094,0.01 0.0195,0.0184 0.02929,0.0275 a 1.0583334,1.0583334 0 0 1 -0.02929,-0.0275 z m 1.448662,0.0517 a 1.0583334,1.0583334 0 0 1 -0.02825,0.0248 c 0.0097,-0.008 0.01883,-0.0165 0.02825,-0.0248 z m -0.07614,0.061 a 1.0583334,1.0583334 0 0 1 -0.03755,0.0269 c 0.01287,-0.009 0.02508,-0.0178 0.03755,-0.0269 z m -1.214052,0.0196 c 0.01343,0.009 0.02783,0.0171 0.04169,0.0255 a 1.0583334,1.0583334 0 0 1 -0.04169,-0.0255 z m 1.130336,0.0351 a 1.0583334,1.0583334 0 0 1 -0.04409,0.0251 c 0.01499,-0.008 0.02953,-0.0165 0.04409,-0.0251 z m -0.08923,0.0469 a 1.0583334,1.0583334 0 0 1 -0.05133,0.0231 c 0.01749,-0.007 0.03433,-0.0151 0.05133,-0.0231 z m -0.09061,0.0375 a 1.0583334,1.0583334 0 0 1 -0.06201,0.0207 c 0.02104,-0.006 0.04153,-0.0133 0.06201,-0.0207 z m -0.0975,0.03 a 1.0583334,1.0583334 0 0 1 -0.06787,0.0151 c 0.02296,-0.004 0.04545,-0.009 0.06787,-0.0151 z m -0.106798,0.021 a 1.0583334,1.0583334 0 0 1 -0.0627,0.008 c 0.02113,-0.002 0.04194,-0.005 0.0627,-0.008 z"
         style="fill:#ffffff;stroke-width:0.1763889"
         id="path2-3-1-7" />
    </g>
  </g>
</svg>
