<?xml version="1.0" encoding="UTF-8" standalone="no"?>
<!-- Created with Inkscape (http://www.inkscape.org/) -->

<svg
   xmlns:osb="http://www.openswatchbook.org/uri/2009/osb"
   xmlns:dc="http://purl.org/dc/elements/1.1/"
   xmlns:cc="http://creativecommons.org/ns#"
   xmlns:rdf="http://www.w3.org/1999/02/22-rdf-syntax-ns#"
   xmlns:svg="http://www.w3.org/2000/svg"
   xmlns="http://www.w3.org/2000/svg"
   xmlns:sodipodi="http://sodipodi.sourceforge.net/DTD/sodipodi-0.dtd"
   xmlns:inkscape="http://www.inkscape.org/namespaces/inkscape"
   width="48"
   height="48"
   viewBox="0 0 12.7 12.7"
   version="1.1"
   id="svg845"
   inkscape:version="0.92.4 (5da689c313, 2019-01-14)"
   sodipodi:docname="investmentCast.svg"
   inkscape:export-filename="C:\Users\barto\Desktop\Work\Graphics\icons\investment_casting_248px.png"
   inkscape:export-xdpi="496"
   inkscape:export-ydpi="496">
  <defs
     id="defs839">
    <linearGradient
       id="linearGradient2950"
       osb:paint="solid">
      <stop
         style="stop-color:#ffffff;stop-opacity:1;"
         offset="0"
         id="stop2948" />
    </linearGradient>
  </defs>
  <sodipodi:namedview
     id="base"
     pagecolor="#ffffff"
     bordercolor="#666666"
     borderopacity="1.0"
     inkscape:pageopacity="0.0"
     inkscape:pageshadow="2"
     inkscape:zoom="7.9999996"
     inkscape:cx="18.290715"
     inkscape:cy="36.808548"
     inkscape:document-units="px"
     inkscape:current-layer="layer1"
     showgrid="false"
     inkscape:window-width="1920"
     inkscape:window-height="1057"
     inkscape:window-x="-8"
     inkscape:window-y="-8"
     inkscape:window-maximized="1"
     inkscape:pagecheckerboard="true"
     fit-margin-top="20"
     fit-margin-left="20"
     fit-margin-right="20"
     fit-margin-bottom="20"
     showguides="false"
     inkscape:guide-bbox="true"
     units="px"
     inkscape:snap-object-midpoints="true">
    <sodipodi:guide
       position="4.914636,11.04666"
       orientation="0,1"
       id="guide13314"
       inkscape:locked="false" />
    <sodipodi:guide
       position="4.7625,9.45606"
       orientation="1,0"
       id="guide13316"
       inkscape:locked="false"
       inkscape:label=""
       inkscape:color="rgb(0,0,255)" />
    <sodipodi:guide
       position="7.9375,11.04666"
       orientation="1,0"
       id="guide13318"
       inkscape:locked="false"
       inkscape:label=""
       inkscape:color="rgb(0,0,255)" />
    <sodipodi:guide
       position="5.820834,8.47937"
       orientation="0.70710678,0.70710678"
       id="guide13320"
       inkscape:locked="false" />
    <sodipodi:guide
       position="6.879167,8.47937"
       orientation="-0.70710678,0.70710678"
       id="guide13322"
       inkscape:locked="false" />
    <sodipodi:guide
       position="3.2907552,10.463444"
       orientation="1,0"
       id="guide13324"
       inkscape:locked="false" />
    <sodipodi:guide
       position="4.7625,9.537704"
       orientation="0,1"
       id="guide13328"
       inkscape:locked="false" />
    <sodipodi:guide
       position="5.6306641,10.583333"
       orientation="0,1"
       id="guide13330"
       inkscape:locked="false"
       inkscape:label=""
       inkscape:color="rgb(0,0,255)" />
  </sodipodi:namedview>
  <metadata
     id="metadata842">
    <rdf:RDF>
      <cc:Work
         rdf:about="">
        <dc:format>image/svg+xml</dc:format>
        <dc:type
           rdf:resource="http://purl.org/dc/dcmitype/StillImage" />
        <dc:title></dc:title>
      </cc:Work>
    </rdf:RDF>
  </metadata>
  <g
     inkscape:label="Calque 1"
     inkscape:groupmode="layer"
     id="layer1"
     transform="translate(-22.302705,-227.68485)">
    <path
       style="opacity:1;fill:#ffffff;fill-opacity:1;stroke:none;stroke-width:0.77432781;stroke-linecap:round;stroke-linejoin:round;stroke-miterlimit:4;stroke-dasharray:none;stroke-dashoffset:0;stroke-opacity:1;paint-order:markers stroke fill"
       d="M 6 6 L 6 42 L 42 42 L 42 6 L 34.392578 6 L 26 10.845703 L 26 18 L 30 18 L 30 16 L 30 14 L 34 14 L 34 16 L 38 16 L 38 24 L 34 24 L 34 22 L 30 22 L 26 22 L 26 32 L 30 32 L 30 30 L 34 30 L 34 28 L 38 28 L 38 30 L 38 36 L 34 36 L 34 38 L 30 38 L 30 36 L 18 36 L 18 38 L 14 38 L 14 36 L 10 36 L 10 30 L 10 28 L 14 28 L 14 30 L 18 30 L 18 32 L 22 32 L 22 22 L 18 22 L 14 22 L 14 24 L 10 24 L 10 16 L 14 16 L 14 14 L 18 14 L 18 16 L 18 18 L 22 18 L 22 10.845703 L 13.607422 6 L 6 6 z "
       transform="matrix(0.26458333,0,0,0.26458333,22.302705,227.68485)"
       id="rect14710" />
  </g>
</svg>
