<?xml version="1.0" encoding="UTF-8" standalone="no"?>
<svg
   xmlns:dc="http://purl.org/dc/elements/1.1/"
   xmlns:cc="http://creativecommons.org/ns#"
   xmlns:rdf="http://www.w3.org/1999/02/22-rdf-syntax-ns#"
   xmlns:svg="http://www.w3.org/2000/svg"
   xmlns="http://www.w3.org/2000/svg"
   xmlns:sodipodi="http://sodipodi.sourceforge.net/DTD/sodipodi-0.dtd"
   xmlns:inkscape="http://www.inkscape.org/namespaces/inkscape"
   width="48"
   height="48"
   viewBox="0 0 48 48"
   version="1.1"
   id="svg4"
   sodipodi:docname="invert_off_248px.svg"
   inkscape:version="0.92.4 (5da689c313, 2019-01-14)"
   inkscape:export-filename="C:\Users\barto\Desktop\Work\Graphics\icons\redone\invert_off_248px.png"
   inkscape:export-xdpi="496"
   inkscape:export-ydpi="496">
  <metadata
     id="metadata10">
    <rdf:RDF>
      <cc:Work
         rdf:about="">
        <dc:format>image/svg+xml</dc:format>
        <dc:type
           rdf:resource="http://purl.org/dc/dcmitype/StillImage" />
        <dc:title></dc:title>
      </cc:Work>
    </rdf:RDF>
  </metadata>
  <defs
     id="defs8" />
  <sodipodi:namedview
     pagecolor="#ffffff"
     bordercolor="#666666"
     borderopacity="1"
     objecttolerance="10"
     gridtolerance="10"
     guidetolerance="10"
     inkscape:pageopacity="0"
     inkscape:pageshadow="2"
     inkscape:window-width="1920"
     inkscape:window-height="1057"
     id="namedview6"
     showgrid="false"
     inkscape:pagecheckerboard="true"
     inkscape:zoom="4.9166667"
     inkscape:cx="24"
     inkscape:cy="24"
     inkscape:window-x="-8"
     inkscape:window-y="-8"
     inkscape:window-maximized="1"
     inkscape:current-layer="svg4" />
  <path
     d="M 39.384083,39.108255 35.193277,34.917449 24,23.724172 17.655957,17.380129 15.137914,14.862086 10.244192,9.968364 7.984182,12.237271 12.93129,17.18438 c -4.5378149,5.587741 -4.1997032,13.818092 0.99654,19.023232 2.776075,2.776076 6.424123,4.173011 10.063272,4.173011 3.176471,0 6.352942,-1.058824 8.951063,-3.167573 L 37.746911,42 40.015818,39.731092 Z M 24,36.812654 c -2.856154,0 -5.534355,-1.112209 -7.54523,-3.123084 -2.019772,-2.019773 -3.131982,-4.697973 -3.131982,-7.554128 0,-2.348986 0.7652,-4.573405 2.153238,-6.415225 L 24,28.253089 Z m 0,-25.776569 v 8.150272 l 12.910529,12.910529 c 2.429066,-5.258527 1.49481,-11.691547 -2.847257,-16.033614 L 24,6 l -6.593178,6.593178 2.518042,2.518043 z"
     id="path2"
     inkscape:connector-curvature="0"
     style="stroke-width:0.99999994;fill:#ffffff" />
</svg>
