<?xml version="1.0" encoding="UTF-8" standalone="no"?>
<svg
   xmlns:dc="http://purl.org/dc/elements/1.1/"
   xmlns:cc="http://creativecommons.org/ns#"
   xmlns:rdf="http://www.w3.org/1999/02/22-rdf-syntax-ns#"
   xmlns:svg="http://www.w3.org/2000/svg"
   xmlns="http://www.w3.org/2000/svg"
   xmlns:sodipodi="http://sodipodi.sourceforge.net/DTD/sodipodi-0.dtd"
   xmlns:inkscape="http://www.inkscape.org/namespaces/inkscape"
   width="48"
   height="48"
   viewBox="0 0 48 48"
   version="1.1"
   id="svg4"
   sodipodi:docname="language_248px.svg"
   inkscape:version="0.92.4 (5da689c313, 2019-01-14)"
   inkscape:export-filename="C:\Users\barto\Desktop\Work\Graphics\icons\redone\language_248px.png"
   inkscape:export-xdpi="496"
   inkscape:export-ydpi="496">
  <metadata
     id="metadata10">
    <rdf:RDF>
      <cc:Work
         rdf:about="">
        <dc:format>image/svg+xml</dc:format>
        <dc:type
           rdf:resource="http://purl.org/dc/dcmitype/StillImage" />
        <dc:title></dc:title>
      </cc:Work>
    </rdf:RDF>
  </metadata>
  <defs
     id="defs8" />
  <sodipodi:namedview
     pagecolor="#ffffff"
     bordercolor="#666666"
     borderopacity="1"
     objecttolerance="10"
     gridtolerance="10"
     guidetolerance="10"
     inkscape:pageopacity="0"
     inkscape:pageshadow="2"
     inkscape:window-width="1920"
     inkscape:window-height="1057"
     id="namedview6"
     showgrid="false"
     inkscape:pagecheckerboard="true"
     inkscape:zoom="13.906433"
     inkscape:cx="15.723219"
     inkscape:cy="24.718516"
     inkscape:window-x="-8"
     inkscape:window-y="-8"
     inkscape:window-maximized="1"
     inkscape:current-layer="svg4" />
  <path
     d="m 25.566,29.535 -4.572,-4.518 0.054,-0.054 c 3.132,-3.492 5.364,-7.506 6.678,-11.754 H 33 V 9.6 H 20.4 V 6 H 16.8 V 9.6 H 4.2 v 3.582 H 24.306 C 23.091,16.656 21.192,19.95 18.6,22.83 16.926,20.967 15.54,18.942 14.442,16.8 h -3.6 c 1.314,2.934 3.114,5.706 5.364,8.208 L 7.053,34.053 9.6,36.6 l 9,-9 5.598,5.598 z M 35.7,20.4 H 32.1 L 24,42 h 3.6 l 2.025,-5.4 h 8.55 L 40.2,42 h 3.6 z M 30.975,33 33.9,25.197 36.825,33 Z"
     id="path2"
     inkscape:connector-curvature="0"
     style="stroke-width:1;fill:#ffffff" />
</svg>
