<?xml version="1.0" encoding="UTF-8" standalone="no"?>
<svg
   height="48"
   width="48"
   version="1.1"
   id="svg1041"
   sodipodi:docname="lightbulb_off.svg"
   inkscape:version="1.1.2 (b8e25be833, 2022-02-05)"
   xmlns:inkscape="http://www.inkscape.org/namespaces/inkscape"
   xmlns:sodipodi="http://sodipodi.sourceforge.net/DTD/sodipodi-0.dtd"
   xmlns="http://www.w3.org/2000/svg"
   xmlns:svg="http://www.w3.org/2000/svg">
  <defs
     id="defs1045" />
  <sodipodi:namedview
     id="namedview1043"
     pagecolor="#505050"
     bordercolor="#ffffff"
     borderopacity="1"
     inkscape:pageshadow="0"
     inkscape:pageopacity="0"
     inkscape:pagecheckerboard="1"
     showgrid="false"
     inkscape:zoom="5.9514821"
     inkscape:cx="14.282157"
     inkscape:cy="24.111641"
     inkscape:window-width="1920"
     inkscape:window-height="1001"
     inkscape:window-x="-9"
     inkscape:window-y="-9"
     inkscape:window-maximized="1"
     inkscape:current-layer="svg1041" />
  <path
     d="M24 44Q22.3 44 21.125 42.825Q19.95 41.65 19.95 39.95H28.05Q28.05 41.65 26.875 42.825Q25.7 44 24 44ZM15.9 36.85V33.85H32.1V36.85ZM16.15 30.8Q12.85 28.65 10.925 25.425Q9 22.2 9 18.15Q9 12.05 13.45 7.6Q17.9 3.15 24 3.15Q30.1 3.15 34.55 7.6Q39 12.05 39 18.15Q39 22.2 37.1 25.425Q35.2 28.65 31.85 30.8ZM17.25 27.8H30.8Q33.2 26.2 34.6 23.65Q36 21.1 36 18.15Q36 13.2 32.475 9.675Q28.95 6.15 24 6.15Q19.05 6.15 15.525 9.675Q12 13.2 12 18.15Q12 21.1 13.4 23.65Q14.8 26.2 17.25 27.8ZM24 27.8Q24 27.8 24 27.8Q24 27.8 24 27.8Q24 27.8 24 27.8Q24 27.8 24 27.8Q24 27.8 24 27.8Q24 27.8 24 27.8Q24 27.8 24 27.8Q24 27.8 24 27.8Z"
     id="path1039"
     style="fill:#ffffff;fill-opacity:1"
     inkscape:export-filename="C:\Users\M4800\Documents\AGH-LOCAL\LAB_INFORMATICS\00_PROJECT\Home-Monitoring-System\GUI\images\ligthbulb_off.png"
     inkscape:export-xdpi="1054.9451"
     inkscape:export-ydpi="1054.9451" />
</svg>
