<?xml version="1.0" encoding="UTF-8" standalone="no"?>
<svg
   height="48"
   width="48"
   version="1.1"
   id="svg1254"
   sodipodi:docname="lightbulb_on.svg"
   inkscape:version="1.1.2 (b8e25be833, 2022-02-05)"
   inkscape:export-filename="C:\Users\M4800\Documents\AGH-LOCAL\LAB_INFORMATICS\00_PROJECT\Home-Monitoring-System\GUI\images\lightbulb_on.png"
   inkscape:export-xdpi="704"
   inkscape:export-ydpi="704"
   xmlns:inkscape="http://www.inkscape.org/namespaces/inkscape"
   xmlns:sodipodi="http://sodipodi.sourceforge.net/DTD/sodipodi-0.dtd"
   xmlns="http://www.w3.org/2000/svg"
   xmlns:svg="http://www.w3.org/2000/svg">
  <defs
     id="defs1258" />
  <sodipodi:namedview
     id="namedview1256"
     pagecolor="#505050"
     bordercolor="#ffffff"
     borderopacity="1"
     inkscape:pageshadow="0"
     inkscape:pageopacity="0"
     inkscape:pagecheckerboard="1"
     showgrid="false"
     inkscape:zoom="4.2083333"
     inkscape:cx="-18.772277"
     inkscape:cy="-1.7821782"
     inkscape:window-width="1920"
     inkscape:window-height="1001"
     inkscape:window-x="-9"
     inkscape:window-y="-9"
     inkscape:window-maximized="1"
     inkscape:current-layer="svg1254" />
  <path
     d="M44.35 19.65 43.2 17.15 40.7 16 43.2 14.85 44.35 12.35 45.5 14.85 48 16 45.5 17.15ZM38 10.9 36.25 7.2 32.55 5.45 36.25 3.7 38 0 39.75 3.7 43.45 5.45 39.75 7.2ZM18 44Q16.3 44 15.125 42.825Q13.95 41.65 13.95 39.95H22.05Q22.05 41.65 20.875 42.825Q19.7 44 18 44ZM9.9 36.85V33.85H26.1V36.85ZM10.15 30.8Q6.85 28.65 4.925 25.425Q3 22.2 3 18.15Q3 12.05 7.45 7.6Q11.9 3.15 18 3.15Q24.1 3.15 28.55 7.6Q33 12.05 33 18.15Q33 22.2 31.1 25.425Q29.2 28.65 25.85 30.8ZM11.25 27.8H24.8Q27.2 26.2 28.6 23.65Q30 21.1 30 18.15Q30 13.2 26.475 9.675Q22.95 6.15 18 6.15Q13.05 6.15 9.525 9.675Q6 13.2 6 18.15Q6 21.1 7.4 23.65Q8.8 26.2 11.25 27.8ZM18 27.8Q18 27.8 18 27.8Q18 27.8 18 27.8Q18 27.8 18 27.8Q18 27.8 18 27.8Q18 27.8 18 27.8Q18 27.8 18 27.8Q18 27.8 18 27.8Q18 27.8 18 27.8Z"
     id="path1252"
     style="fill:#ffffff;fill-opacity:1"
     inkscape:export-filename="C:\Users\M4800\Documents\AGH-LOCAL\LAB_INFORMATICS\00_PROJECT\Home-Monitoring-System\GUI\images\lightbulb_on.png"
     inkscape:export-xdpi="640"
     inkscape:export-ydpi="640" />
</svg>
