<?xml version="1.0" encoding="UTF-8" standalone="no"?>
<svg
   xmlns:dc="http://purl.org/dc/elements/1.1/"
   xmlns:cc="http://creativecommons.org/ns#"
   xmlns:rdf="http://www.w3.org/1999/02/22-rdf-syntax-ns#"
   xmlns:svg="http://www.w3.org/2000/svg"
   xmlns="http://www.w3.org/2000/svg"
   xmlns:sodipodi="http://sodipodi.sourceforge.net/DTD/sodipodi-0.dtd"
   xmlns:inkscape="http://www.inkscape.org/namespaces/inkscape"
   width="48"
   height="48"
   viewBox="0 0 48 48"
   version="1.1"
   id="svg4"
   sodipodi:docname="materials_sand_248px.svg"
   inkscape:export-filename="C:\Users\barto\Desktop\Work\Graphics\icons\materials_sand_248px.png"
   inkscape:export-xdpi="496"
   inkscape:export-ydpi="496"
   inkscape:version="0.92.4 (5da689c313, 2019-01-14)">
  <metadata
     id="metadata10">
    <rdf:RDF>
      <cc:Work
         rdf:about="">
        <dc:format>image/svg+xml</dc:format>
        <dc:type
           rdf:resource="http://purl.org/dc/dcmitype/StillImage" />
        <dc:title></dc:title>
      </cc:Work>
    </rdf:RDF>
  </metadata>
  <defs
     id="defs8" />
  <sodipodi:namedview
     pagecolor="#ffffff"
     bordercolor="#666666"
     borderopacity="1"
     objecttolerance="10"
     gridtolerance="10"
     guidetolerance="10"
     inkscape:pageopacity="0"
     inkscape:pageshadow="2"
     inkscape:window-width="1920"
     inkscape:window-height="1057"
     id="namedview6"
     showgrid="false"
     inkscape:pagecheckerboard="true"
     showguides="false"
     inkscape:guide-bbox="true"
     inkscape:zoom="8"
     inkscape:cx="20.821977"
     inkscape:cy="30.494702"
     inkscape:window-x="-8"
     inkscape:window-y="-8"
     inkscape:window-maximized="1"
     inkscape:current-layer="svg4">
    <sodipodi:guide
       position="6.0059,19.5"
       orientation="1,0"
       id="guide5238"
       inkscape:locked="false" />
    <sodipodi:guide
       position="42,19.5"
       orientation="1,0"
       id="guide5240"
       inkscape:locked="false" />
    <sodipodi:guide
       position="10.0059,19.5"
       orientation="1,0"
       id="guide5246"
       inkscape:locked="false"
       inkscape:label=""
       inkscape:color="rgb(0,0,255)" />
    <sodipodi:guide
       position="38,19.5"
       orientation="1,0"
       id="guide5248"
       inkscape:locked="false"
       inkscape:label=""
       inkscape:color="rgb(0,0,255)" />
  </sodipodi:namedview>
  <path
     inkscape:connector-curvature="0"
     style="opacity:1;fill:#ffffff;fill-opacity:1;stroke:none;stroke-width:0.97095573px;stroke-linecap:butt;stroke-linejoin:miter;stroke-opacity:1"
     d="m 24.009764,6.9023425 c -0.345342,-0.0024 -0.685238,0.0872 -0.984375,0.259765 -0.299428,0.173886 -0.546877,0.424877 -0.716797,0.726563 l -0.03711,0.06445 c -0.0012,0.0031 -0.0028,0.0047 -0.0039,0.0078 l -0.509766,0.884765 -0.224609,0.384766 -10.892583,18.8671875 h 7.443364 1.015625 a 5,5 0 0 0 -0.07617,0.5 5,5 0 0 0 -0.02539,0.5 5,5 0 0 0 5,5 5,5 0 0 0 5,-5 5,5 0 0 0 0,-0.0078 5,5 0 0 0 -0.107422,-0.992188 h 0.0039 1.015625 7.449219 L 26.242188,8.8456975 l -0.638672,-1.105469 -0.05273,-0.09375 h -0.02539 c -0.364897,-0.466572 -0.923323,-0.739801 -1.515625,-0.74414 z M 21.033201,17.48828 c 0.807932,0 1.439095,0.193269 1.894531,0.580078 0.455437,0.38369 0.726323,0.943502 0.810547,1.679688 h -1.367187 c -0.06239,-0.389929 -0.200775,-0.676495 -0.416016,-0.857422 -0.212121,-0.180927 -0.504575,-0.271484 -0.878906,-0.271484 -0.477273,0 -0.842243,0.180328 -1.091797,0.539062 -0.249554,0.358735 -0.375787,0.891499 -0.378906,1.599609 v 0.435547 c 0,0.71435 0.136813,1.254168 0.408203,1.619141 0.27139,0.364973 0.669295,0.546875 1.193359,0.546875 0.527184,0 0.902354,-0.111339 1.126953,-0.335937 v -1.175782 h -1.277343 v -1.033203 h 2.68164 v 2.71875 c -0.252674,0.302585 -0.61059,0.538582 -1.072265,0.707031 -0.461676,0.16533 -0.973659,0.248047 -1.535157,0.248047 -0.589572,0 -1.106656,-0.128972 -1.552734,-0.384765 -0.442959,-0.258913 -0.785981,-0.633297 -1.029297,-1.123047 -0.240196,-0.489751 -0.362902,-1.065244 -0.36914,-1.726563 v -0.46289 c 0,-0.680036 0.114078,-1.267683 0.341796,-1.763672 0.230838,-0.499109 0.561707,-0.880546 0.992188,-1.142578 0.433601,-0.265152 0.939317,-0.396485 1.519531,-0.396485 z m 6.285156,0 c 0.486631,0 0.920211,0.08782 1.300782,0.265625 0.38057,0.174688 0.67381,0.42284 0.882812,0.744141 0.212121,0.321301 0.318359,0.687058 0.318359,1.095703 h -1.402343 c 0,-0.311943 -0.0984,-0.554994 -0.294922,-0.726562 -0.196524,-0.174689 -0.47251,-0.261719 -0.828125,-0.261719 -0.343137,0 -0.610496,0.07409 -0.800781,0.220703 -0.190286,0.143494 -0.285157,0.333236 -0.285157,0.570312 0,0.22148 0.110552,0.406908 0.332032,0.556641 0.224599,0.149733 0.552727,0.290859 0.986328,0.421875 0.798574,0.240196 1.38112,0.536963 1.746094,0.892578 0.364973,0.355615 0.546874,0.799775 0.546874,1.330078 0,0.589572 -0.22189,1.051774 -0.667968,1.388672 -0.446079,0.333779 -1.047833,0.501953 -1.802735,0.501953 -0.524064,0 -1.001159,-0.09682 -1.43164,-0.287109 -0.430482,-0.193405 -0.75861,-0.457237 -0.986328,-0.791016 -0.224599,-0.333779 -0.337891,-0.720316 -0.337891,-1.160156 h 1.408203 c 0,0.751783 0.449261,1.128906 1.347656,1.128906 0.333779,0 0.594085,-0.06704 0.78125,-0.201172 0.187166,-0.137255 0.28125,-0.32895 0.28125,-0.572265 0,-0.265152 -0.09408,-0.467048 -0.28125,-0.607422 -0.187165,-0.143494 -0.523134,-0.293247 -1.009765,-0.449219 -0.486631,-0.159091 -0.872382,-0.315898 -1.15625,-0.46875 -0.773619,-0.418003 -1.160156,-0.979389 -1.160156,-1.6875 0,-0.368093 0.102711,-0.697387 0.308593,-0.984375 0.209002,-0.290107 0.507722,-0.515524 0.894531,-0.677734 0.389929,-0.162211 0.827036,-0.242188 1.310547,-0.242188 z m -9.294921,12.117188 c 0.01009,0.119798 0.02592,0.237763 0.04297,0.355469 a 6,6 0 0 1 -0.04297,-0.355469 z m 0.07617,0.576172 c 0.02383,0.130154 0.05383,0.257674 0.08594,0.384765 a 6,6 0 0 1 -0.08594,-0.384765 z m 11.779297,0.107421 c -0.03995,0.197823 -0.08951,0.391742 -0.148437,0.582032 a 6,6 0 0 0 0.148437,-0.582032 z m -11.640625,0.478516 c 0.0346,0.119262 0.0755,0.235474 0.117188,0.351563 a 6,6 0 0 1 -0.117188,-0.351563 z m 0.199219,0.574219 c 0.04012,0.09913 0.08568,0.194595 0.130859,0.291015 a 6,6 0 0 1 -0.130859,-0.291015 z m 0.253906,0.546875 c 0.04489,0.08502 0.09379,0.167449 0.142578,0.25 a 6,6 0 0 1 -0.142578,-0.25 z m 10.416016,0.339844 a 6,6 0 0 1 -0.144531,0.236328 c 0.05176,-0.07611 0.09623,-0.157778 0.144531,-0.236328 z M 18.992185,32.40039 c 0.04828,0.07297 0.101006,0.142196 0.152343,0.21289 a 6,6 0 0 1 -0.152343,-0.21289 z m 0.357421,0.484375 c 0.04497,0.05509 0.09377,0.106714 0.140625,0.160156 a 6,6 0 0 1 -0.140625,-0.160156 z m 9.019532,0.3125 a 6,6 0 0 1 -0.15625,0.166015 c 0.05406,-0.05342 0.10424,-0.110593 0.15625,-0.166015 z m -8.636719,0.115234 c 0.05342,0.05406 0.110593,0.10424 0.166016,0.15625 a 6,6 0 0 1 -0.166016,-0.15625 z m 8.21289,0.292969 a 6,6 0 0 1 -0.160156,0.140625 c 0.05509,-0.04497 0.106714,-0.09377 0.160156,-0.140625 z m -0.43164,0.345703 a 6,6 0 0 1 -0.212891,0.152344 c 0.07297,-0.04828 0.142197,-0.101007 0.212891,-0.152344 z m -6.882813,0.111328 c 0.07611,0.05176 0.157778,0.09623 0.236329,0.144531 a 6,6 0 0 1 -0.236329,-0.144531 z m 6.408203,0.199219 a 6,6 0 0 1 -0.25,0.142578 c 0.08502,-0.04489 0.16745,-0.09379 0.25,-0.142578 z M 26.5332,34.527343 a 6,6 0 0 1 -0.291015,0.130859 c 0.09913,-0.04012 0.194594,-0.08568 0.291015,-0.130859 z m -0.513672,0.21289 a 6,6 0 0 1 -0.351562,0.117188 c 0.119262,-0.0346 0.235473,-0.0755 0.351562,-0.117188 z m -0.552734,0.169922 a 6,6 0 0 1 -0.384766,0.08594 c 0.130154,-0.02383 0.257675,-0.05383 0.384766,-0.08594 z m -0.605469,0.119141 a 6,6 0 0 1 -0.355469,0.04297 c 0.119798,-0.01009 0.237764,-0.02592 0.355469,-0.04297 z"
     id="path2132-7-5-5-6" />
  <path
     inkscape:connector-curvature="0"
     d="m 6.0059,29.097681 -0.0059,8 c 0,2.21 1.770469,4 3.980469,4 H 38 c 2.21,0 4,-1.79 4,-4 v -8 h -4 -8 c 0,3.31 -2.69,6 -6,6 -3.31,0 -6,-2.69 -6,-6 H 9.980469 Z"
     id="path2-3-1"
     style="fill:#ffffff" />
</svg>
