<?xml version="1.0" encoding="UTF-8" standalone="no"?>
<svg
   xmlns:dc="http://purl.org/dc/elements/1.1/"
   xmlns:cc="http://creativecommons.org/ns#"
   xmlns:rdf="http://www.w3.org/1999/02/22-rdf-syntax-ns#"
   xmlns:svg="http://www.w3.org/2000/svg"
   xmlns="http://www.w3.org/2000/svg"
   xmlns:sodipodi="http://sodipodi.sourceforge.net/DTD/sodipodi-0.dtd"
   xmlns:inkscape="http://www.inkscape.org/namespaces/inkscape"
   width="48"
   height="48"
   viewBox="0 0 48 48"
   version="1.1"
   id="svg4"
   sodipodi:docname="materials_casting_248px.svg"
   inkscape:export-filename="C:\Users\barto\Desktop\Work\Graphics\icons\materials_casting_248px.png"
   inkscape:export-xdpi="496"
   inkscape:export-ydpi="496"
   inkscape:version="0.92.4 (5da689c313, 2019-01-14)">
  <metadata
     id="metadata10">
    <rdf:RDF>
      <cc:Work
         rdf:about="">
        <dc:format>image/svg+xml</dc:format>
        <dc:type
           rdf:resource="http://purl.org/dc/dcmitype/StillImage" />
        <dc:title></dc:title>
      </cc:Work>
    </rdf:RDF>
  </metadata>
  <defs
     id="defs8" />
  <sodipodi:namedview
     pagecolor="#ffffff"
     bordercolor="#666666"
     borderopacity="1"
     objecttolerance="10"
     gridtolerance="10"
     guidetolerance="10"
     inkscape:pageopacity="0"
     inkscape:pageshadow="2"
     inkscape:window-width="1920"
     inkscape:window-height="1057"
     id="namedview6"
     showgrid="false"
     inkscape:pagecheckerboard="true"
     showguides="true"
     inkscape:guide-bbox="true"
     inkscape:zoom="2.8284271"
     inkscape:cx="35.249649"
     inkscape:cy="1.0698619"
     inkscape:window-x="-8"
     inkscape:window-y="-8"
     inkscape:window-maximized="1"
     inkscape:current-layer="svg4">
    <sodipodi:guide
       position="6.0059,19.5"
       orientation="1,0"
       id="guide5238"
       inkscape:locked="false" />
    <sodipodi:guide
       position="42,19.5"
       orientation="1,0"
       id="guide5240"
       inkscape:locked="false" />
    <sodipodi:guide
       position="10.0059,19.5"
       orientation="1,0"
       id="guide5246"
       inkscape:locked="false"
       inkscape:label=""
       inkscape:color="rgb(0,0,255)" />
    <sodipodi:guide
       position="38,19.5"
       orientation="1,0"
       id="guide5248"
       inkscape:locked="false"
       inkscape:label=""
       inkscape:color="rgb(0,0,255)" />
  </sodipodi:namedview>
  <path
     style="opacity:1;fill:#ffffff;fill-opacity:1;stroke:none;stroke-width:0.97095573px;stroke-linecap:butt;stroke-linejoin:miter;stroke-opacity:1"
     d="M 24.009766 6.9023438 C 23.664424 6.8999038 23.324528 6.9895388 23.025391 7.1621094 C 22.725963 7.335995 22.478514 7.5869859 22.308594 7.8886719 L 22.271484 7.953125 C 22.270284 7.956215 22.268678 7.9578475 22.267578 7.9609375 L 21.757812 8.8457031 L 21.533203 9.2304688 L 10.640625 28.097656 L 18.083984 28.097656 L 19.099609 28.097656 A 5 5 0 0 0 19.023438 28.597656 A 5 5 0 0 0 18.998047 29.097656 A 5 5 0 0 0 23.998047 34.097656 A 5 5 0 0 0 28.998047 29.097656 A 5 5 0 0 0 28.998047 29.089844 A 5 5 0 0 0 28.890625 28.097656 L 28.894531 28.097656 L 29.910156 28.097656 L 37.359375 28.097656 L 26.242188 8.8457031 L 25.603516 7.7402344 L 25.550781 7.6464844 L 25.525391 7.6464844 C 25.160494 7.1799116 24.602068 6.906683 24.009766 6.9023438 z M 25.427734 13.097656 L 26.183594 13.097656 L 26.183594 17.097656 L 25.427734 17.097656 L 25.427734 13.097656 z M 22.935547 13.306641 L 23.660156 13.306641 L 25.080078 17.097656 L 24.248047 17.097656 L 23.986328 16.316406 L 22.615234 16.316406 L 22.355469 17.097656 L 21.525391 17.097656 L 22.935547 13.306641 z M 23.298828 14.265625 L 22.826172 15.683594 L 23.775391 15.683594 L 23.298828 14.265625 z M 20.826172 21.097656 L 23.826172 21.097656 L 23.826172 21.570312 L 21.853516 24.435547 L 23.871094 24.435547 L 23.871094 25.097656 L 20.824219 25.097656 L 20.824219 24.615234 L 22.800781 21.765625 L 20.826172 21.765625 L 20.826172 21.097656 z M 25.945312 22.070312 C 26.260331 22.070312 26.494591 22.162675 26.648438 22.347656 C 26.802284 22.532638 26.881103 22.809602 26.884766 23.177734 L 26.884766 25.097656 L 26.089844 25.097656 L 26.089844 23.197266 C 26.089844 23.028767 26.053729 22.907123 25.980469 22.832031 C 25.907209 22.755108 25.785564 22.716797 25.615234 22.716797 C 25.391791 22.716797 25.22305 22.811477 25.111328 23.001953 L 25.111328 25.097656 L 24.318359 25.097656 L 24.318359 22.125 L 25.066406 22.125 L 25.089844 22.46875 C 25.302298 22.203182 25.588171 22.070314 25.945312 22.070312 z M 18.023438 29.605469 C 18.033528 29.725267 18.049356 29.843233 18.066406 29.960938 A 6 6 0 0 1 18.023438 29.605469 z M 18.099609 30.181641 C 18.123439 30.311795 18.153437 30.439315 18.185547 30.566406 A 6 6 0 0 1 18.099609 30.181641 z M 29.878906 30.289062 C 29.838958 30.486886 29.789399 30.680804 29.730469 30.871094 A 6 6 0 0 0 29.878906 30.289062 z M 18.238281 30.767578 C 18.272881 30.88684 18.313781 31.003052 18.355469 31.119141 A 6 6 0 0 1 18.238281 30.767578 z M 18.4375 31.341797 C 18.47762 31.440927 18.52318 31.536391 18.568359 31.632812 A 6 6 0 0 1 18.4375 31.341797 z M 18.691406 31.888672 C 18.736296 31.973692 18.785195 32.056121 18.833984 32.138672 A 6 6 0 0 1 18.691406 31.888672 z M 29.107422 32.228516 A 6 6 0 0 1 28.962891 32.464844 C 29.014651 32.388734 29.059121 32.307066 29.107422 32.228516 z M 18.992188 32.400391 C 19.040467 32.473361 19.093194 32.542587 19.144531 32.613281 A 6 6 0 0 1 18.992188 32.400391 z M 19.349609 32.884766 C 19.394579 32.939856 19.443378 32.99148 19.490234 33.044922 A 6 6 0 0 1 19.349609 32.884766 z M 28.369141 33.197266 A 6 6 0 0 1 28.212891 33.363281 C 28.266951 33.309861 28.317131 33.252688 28.369141 33.197266 z M 19.732422 33.3125 C 19.785842 33.36656 19.843015 33.41674 19.898438 33.46875 A 6 6 0 0 1 19.732422 33.3125 z M 27.945312 33.605469 A 6 6 0 0 1 27.785156 33.746094 C 27.840246 33.701124 27.89187 33.652325 27.945312 33.605469 z M 27.513672 33.951172 A 6 6 0 0 1 27.300781 34.103516 C 27.373751 34.055236 27.442978 34.002509 27.513672 33.951172 z M 20.630859 34.0625 C 20.706969 34.11426 20.788637 34.15873 20.867188 34.207031 A 6 6 0 0 1 20.630859 34.0625 z M 27.039062 34.261719 A 6 6 0 0 1 26.789062 34.404297 C 26.874083 34.359407 26.956512 34.310508 27.039062 34.261719 z M 26.533203 34.527344 A 6 6 0 0 1 26.242188 34.658203 C 26.341317 34.618083 26.436782 34.572523 26.533203 34.527344 z M 26.019531 34.740234 A 6 6 0 0 1 25.667969 34.857422 C 25.787231 34.822822 25.903442 34.781922 26.019531 34.740234 z M 25.466797 34.910156 A 6 6 0 0 1 25.082031 34.996094 C 25.212185 34.972264 25.339706 34.942266 25.466797 34.910156 z M 24.861328 35.029297 A 6 6 0 0 1 24.505859 35.072266 C 24.625657 35.062176 24.743623 35.046347 24.861328 35.029297 z "
     id="path2132-7-5" />
  <path
     inkscape:connector-curvature="0"
     d="m 6.0059,29.097681 -0.0059,8 c 0,2.21 1.770469,4 3.980469,4 H 38 c 2.21,0 4,-1.79 4,-4 v -8 h -4 -8 c 0,3.31 -2.69,6 -6,6 -3.31,0 -6,-2.69 -6,-6 H 9.980469 Z"
     id="path2-3-1"
     style="fill:#ffffff" />
</svg>
