<?xml version="1.0" encoding="UTF-8" standalone="no"?>
<svg
   xmlns:dc="http://purl.org/dc/elements/1.1/"
   xmlns:cc="http://creativecommons.org/ns#"
   xmlns:rdf="http://www.w3.org/1999/02/22-rdf-syntax-ns#"
   xmlns:svg="http://www.w3.org/2000/svg"
   xmlns="http://www.w3.org/2000/svg"
   xmlns:sodipodi="http://sodipodi.sourceforge.net/DTD/sodipodi-0.dtd"
   xmlns:inkscape="http://www.inkscape.org/namespaces/inkscape"
   width="48"
   height="48"
   viewBox="0 0 48 48"
   version="1.1"
   id="svg4"
   sodipodi:docname="materials_investment_248px.svg"
   inkscape:export-filename="C:\Users\barto\Desktop\Work\Graphics\icons\materials_investment_248px.png"
   inkscape:export-xdpi="496"
   inkscape:export-ydpi="496"
   inkscape:version="0.92.4 (5da689c313, 2019-01-14)">
  <metadata
     id="metadata10">
    <rdf:RDF>
      <cc:Work
         rdf:about="">
        <dc:format>image/svg+xml</dc:format>
        <dc:type
           rdf:resource="http://purl.org/dc/dcmitype/StillImage" />
        <dc:title></dc:title>
      </cc:Work>
    </rdf:RDF>
  </metadata>
  <defs
     id="defs8" />
  <sodipodi:namedview
     pagecolor="#ffffff"
     bordercolor="#666666"
     borderopacity="1"
     objecttolerance="10"
     gridtolerance="10"
     guidetolerance="10"
     inkscape:pageopacity="0"
     inkscape:pageshadow="2"
     inkscape:window-width="1920"
     inkscape:window-height="1057"
     id="namedview6"
     showgrid="false"
     inkscape:pagecheckerboard="true"
     showguides="false"
     inkscape:guide-bbox="true"
     inkscape:zoom="8"
     inkscape:cx="-11.294924"
     inkscape:cy="27.591203"
     inkscape:window-x="-8"
     inkscape:window-y="-8"
     inkscape:window-maximized="1"
     inkscape:current-layer="svg4">
    <sodipodi:guide
       position="6.0059,19.5"
       orientation="1,0"
       id="guide5238"
       inkscape:locked="false" />
    <sodipodi:guide
       position="42,19.5"
       orientation="1,0"
       id="guide5240"
       inkscape:locked="false" />
    <sodipodi:guide
       position="10.0059,19.5"
       orientation="1,0"
       id="guide5246"
       inkscape:locked="false"
       inkscape:label=""
       inkscape:color="rgb(0,0,255)" />
    <sodipodi:guide
       position="38,19.5"
       orientation="1,0"
       id="guide5248"
       inkscape:locked="false"
       inkscape:label=""
       inkscape:color="rgb(0,0,255)" />
  </sodipodi:namedview>
  <path
     inkscape:connector-curvature="0"
     style="opacity:1;fill:#ffffff;fill-opacity:1;stroke:none;stroke-width:0.97095573px;stroke-linecap:butt;stroke-linejoin:miter;stroke-opacity:1"
     d="m 24.009762,6.9023428 c -0.345343,-0.0024 -0.685238,0.0872 -0.984375,0.259765 -0.299428,0.173886 -0.546878,0.424877 -0.716797,0.726563 l -0.03711,0.06445 c -0.0012,0.0031 -0.0028,0.0047 -0.0039,0.0078 l -0.509766,0.884765 -0.224609,0.384766 -10.892578,18.8671872 h 7.443359 1.015625 a 5,5 0 0 0 -0.07617,0.5 5,5 0 0 0 -0.02539,0.5 5,5 0 0 0 5,5 5,5 0 0 0 5,-5 5,5 0 0 0 0,-0.0078 5,5 0 0 0 -0.107422,-0.992188 h 0.0039 1.015625 7.449219 L 26.242186,8.8456978 l -0.638672,-1.105469 -0.05273,-0.09375 h -0.02539 c -0.364897,-0.466572 -0.923323,-0.739801 -1.515625,-0.74414 z M 19.93359,17.486327 h 1.441406 V 24.48828 H 19.93359 Z m 2.773437,0 h 2.730469 c 0.525641,0 0.98733,0.09676 1.384766,0.289063 0.400641,0.192307 0.709083,0.466496 0.923828,0.822265 0.214743,0.352564 0.320312,0.755108 0.320312,1.207032 0,0.685897 -0.233924,1.227564 -0.705078,1.625 -0.467949,0.39423 -1.117137,0.591796 -1.947266,0.591796 h -1.265624 v 2.466797 h -1.441407 z m 1.441407,1.169922 v 2.197266 h 1.289062 c 0.38141,0 0.672376,-0.09004 0.871094,-0.269532 0.201923,-0.179487 0.302734,-0.436198 0.302734,-0.769531 0,-0.342949 -0.100811,-0.620493 -0.302734,-0.832031 -0.201923,-0.211539 -0.482122,-0.319762 -0.837891,-0.326172 z m -6.125,10.949219 c 0.01009,0.119798 0.02592,0.237763 0.04297,0.355469 a 6,6 0 0 1 -0.04297,-0.355469 z m 0.07617,0.576172 c 0.02383,0.130154 0.05383,0.257674 0.08594,0.384765 A 6,6 0 0 1 18.099603,30.18164 Z M 29.8789,30.289061 c -0.03995,0.197823 -0.08951,0.391742 -0.148437,0.582032 A 6,6 0 0 0 29.8789,30.289061 Z m -11.640625,0.478516 c 0.0346,0.119262 0.0755,0.235474 0.117188,0.351563 a 6,6 0 0 1 -0.117188,-0.351563 z m 0.199219,0.574219 c 0.04012,0.09913 0.08568,0.194595 0.130859,0.291015 a 6,6 0 0 1 -0.130859,-0.291015 z m 0.253906,0.546875 c 0.04489,0.08502 0.09379,0.167449 0.142578,0.25 a 6,6 0 0 1 -0.142578,-0.25 z m 10.416016,0.339844 a 6,6 0 0 1 -0.144531,0.236328 c 0.05176,-0.07611 0.09623,-0.157778 0.144531,-0.236328 z M 18.992182,32.40039 c 0.04828,0.07297 0.101006,0.142196 0.152343,0.21289 a 6,6 0 0 1 -0.152343,-0.21289 z m 0.357421,0.484375 c 0.04497,0.05509 0.09377,0.106714 0.140625,0.160156 a 6,6 0 0 1 -0.140625,-0.160156 z m 9.019532,0.3125 a 6,6 0 0 1 -0.15625,0.166015 c 0.05406,-0.05342 0.10424,-0.110593 0.15625,-0.166015 z m -8.636719,0.115234 c 0.05342,0.05406 0.110593,0.10424 0.166016,0.15625 a 6,6 0 0 1 -0.166016,-0.15625 z m 8.21289,0.292969 a 6,6 0 0 1 -0.160156,0.140625 c 0.05509,-0.04497 0.106716,-0.09377 0.160156,-0.140625 z m -0.43164,0.345703 a 6,6 0 0 1 -0.212891,0.152344 c 0.07297,-0.04828 0.142198,-0.101007 0.212891,-0.152344 z m -6.882813,0.111328 c 0.07611,0.05176 0.157778,0.09623 0.236329,0.144531 a 6,6 0 0 1 -0.236329,-0.144531 z m 6.408203,0.199219 a 6,6 0 0 1 -0.25,0.142578 c 0.08502,-0.04489 0.167451,-0.09379 0.25,-0.142578 z m -0.505859,0.265625 a 6,6 0 0 1 -0.291015,0.130859 c 0.09913,-0.04012 0.194594,-0.08568 0.291015,-0.130859 z m -0.513672,0.21289 a 6,6 0 0 1 -0.351562,0.117188 c 0.119262,-0.0346 0.235473,-0.0755 0.351562,-0.117188 z m -0.552734,0.169922 a 6,6 0 0 1 -0.384766,0.08594 c 0.130154,-0.02383 0.257675,-0.05383 0.384766,-0.08594 z m -0.605469,0.119141 a 6,6 0 0 1 -0.355469,0.04297 c 0.119799,-0.01009 0.237764,-0.02592 0.355469,-0.04297 z"
     id="path2132-7-5-0-4" />
  <path
     inkscape:connector-curvature="0"
     d="m 6.0059,29.097681 -0.0059,8 c 0,2.21 1.770469,4 3.980469,4 H 38 c 2.21,0 4,-1.79 4,-4 v -8 h -4 -8 c 0,3.31 -2.69,6 -6,6 -3.31,0 -6,-2.69 -6,-6 H 9.980469 Z"
     id="path2-3-1"
     style="fill:#ffffff" />
  <path
     style="opacity:1;fill:#333333;fill-opacity:1;stroke:none;stroke-width:0.97095573px;stroke-linecap:butt;stroke-linejoin:miter;stroke-opacity:1"
     d="m -35.453686,6.5951698 c -0.345342,-0.0024 -0.685093,0.08724 -0.98423,0.259807 -0.299428,0.173885 -0.546918,0.424634 -0.716838,0.72632 l -0.03792,0.06449 c -0.0012,0.0031 -0.0026,0.0063 -0.0037,0.0094 l -0.510153,0.883716 -0.223767,0.384969 -15.222384,26.3656242 c -0.0018,0.003 -0.0039,0.006 -0.0057,0.009 l -0.03603,0.0645 c -0.176535,0.298 -0.270156,0.6378 -0.271154,0.98416 9.13e-4,0.96702 0.713185,1.78601 1.670728,1.92105 l 0.01131,0.0207 h 0.1062 1.278173 l 30.890423,0.002 c 0.0031,1e-5 0.0063,1e-5 0.0094,0 l 0.07393,-0.002 h 0.172578 0.106187 l 0.01132,-0.0207 c 0.06313,-0.009 0.125794,-0.021 0.187756,-0.036 h 0.0037 c 0.0012,-6.4e-4 0.0026,-10e-4 0.0037,-0.002 0.175877,-0.042 0.345029,-0.1084 0.502544,-0.19722 0.12276,-0.0719 0.237209,-0.15717 0.341352,-0.25412 0.04642,-0.0427 0.0907,-0.0876 0.132765,-0.13464 0.0012,-0.001 0.0026,-0.003 0.0037,-0.004 0.0045,-0.006 0.0089,-0.0113 0.01336,-0.017 0.03658,-0.0415 0.0714,-0.0845 0.10431,-0.12895 0.0012,-10e-4 0.0026,-0.003 0.0037,-0.004 0.0057,-0.009 0.01131,-0.0176 0.01705,-0.0264 0.02813,-0.0401 0.05466,-0.0812 0.07964,-0.12328 0.0031,-0.004 0.0066,-0.009 0.0094,-0.0134 0.01106,-0.0208 0.02188,-0.0415 0.03223,-0.0626 0.01734,-0.0305 0.03371,-0.0615 0.04932,-0.0929 0.01705,-0.0368 0.03277,-0.0741 0.0474,-0.11189 0.0071,-0.0165 0.01421,-0.0328 0.02075,-0.0493 6.51e-4,-0.003 0.0012,-0.005 0.0018,-0.008 0.01705,-0.0487 0.03231,-0.098 0.0455,-0.14791 0.0035,-0.0103 0.0066,-0.0202 0.0094,-0.0304 6.56e-4,-0.003 0.0012,-0.006 0.0019,-0.009 0.01029,-0.0433 0.01932,-0.0869 0.02643,-0.13086 0.0035,-0.0165 0.0066,-0.0328 0.0094,-0.0493 6.58e-4,-0.004 0.0012,-0.008 0.0018,-0.0113 0.01336,-0.0917 0.02047,-0.18417 0.02075,-0.27683 -9.99e-4,-0.0335 -0.0028,-0.0671 -0.0057,-0.1005 -0.0068,-0.12284 -0.02529,-0.24474 -0.055,-0.36411 -0.0037,-0.0139 -0.0073,-0.0279 -0.01131,-0.0417 -0.01477,-0.0538 -0.03186,-0.10696 -0.05119,-0.15931 v -0.002 c -0.0068,-0.0185 -0.01364,-0.0368 -0.02075,-0.055 l 0.01336,-0.0207 -0.05309,-0.091 -0.05691,-0.0967 c -0.0099,-0.0179 -0.01989,-0.0356 -0.03036,-0.0531 l -0.02274,-0.0398 -0.01336,-0.0247 c -0.0018,-0.003 -0.0037,-0.006 -0.0057,-0.009 l -1.720909,-2.98144 -13.722335,-23.7694492 -0.639086,-1.1056 -0.0531,-0.09292 h -0.02473 c -0.364892,-0.466573 -0.922831,-0.741004 -1.515133,-0.745343 z"
     id="path2132-7-5-3"
     inkscape:connector-curvature="0"
     sodipodi:nodetypes="ccccccccccccccccccccccccccccccccccccccccccccccccccccccccccccccccc" />
  <path
     inkscape:connector-curvature="0"
     d="m -53.45971,28.791138 -0.0059,8 c 0,2.21 1.770469,4 3.980469,4 h 28.019531 c 2.21,0 4,-1.79 4,-4 v -8 h -4 -8 c 0,3.31 -2.69,6 -6,6 -3.31,0 -6,-2.69 -6,-6 h -8.019531 z"
     id="path2-3-1-0"
     style="fill:#cccccc" />
  <path
     inkscape:connector-curvature="0"
     style="opacity:1;fill:#666666;fill-opacity:1;stroke:none;stroke-width:1.64102697;stroke-linecap:round;stroke-linejoin:round;stroke-miterlimit:4;stroke-dasharray:none;stroke-dashoffset:0;stroke-opacity:1;paint-order:markers stroke fill"
     d="m -53.459749,27.791138 v 1 h 11.994139 a 6,6 0 0 0 6,6 6,6 0 0 0 6,-6 h 12.00586 v -1 h -12.095703 -1.015625 -0.002 a 5,5 0 0 1 0.107422,0.99218 5,5 0 0 1 0,0.008 5,5 0 0 1 -5,5 5,5 0 0 1 -5,-5 5,5 0 0 1 0.02539,-0.5 5,5 0 0 1 0.07617,-0.5 h -1.015625 z"
     id="rect1627-9" />
</svg>
