<?xml version="1.0" encoding="UTF-8" standalone="no"?>
<svg
   xmlns:dc="http://purl.org/dc/elements/1.1/"
   xmlns:cc="http://creativecommons.org/ns#"
   xmlns:rdf="http://www.w3.org/1999/02/22-rdf-syntax-ns#"
   xmlns:svg="http://www.w3.org/2000/svg"
   xmlns="http://www.w3.org/2000/svg"
   xmlns:sodipodi="http://sodipodi.sourceforge.net/DTD/sodipodi-0.dtd"
   xmlns:inkscape="http://www.inkscape.org/namespaces/inkscape"
   width="48"
   height="48"
   viewBox="0 0 48 48"
   version="1.1"
   id="svg4"
   sodipodi:docname="materials_64px.svg"
   inkscape:export-filename="C:\Users\barto\Desktop\Work\Graphics\icons\materials_64px.png"
   inkscape:export-xdpi="128"
   inkscape:export-ydpi="128"
   inkscape:version="0.92.4 (5da689c313, 2019-01-14)">
  <metadata
     id="metadata10">
    <rdf:RDF>
      <cc:Work
         rdf:about="">
        <dc:format>image/svg+xml</dc:format>
        <dc:type
           rdf:resource="http://purl.org/dc/dcmitype/StillImage" />
        <dc:title />
      </cc:Work>
    </rdf:RDF>
  </metadata>
  <defs
     id="defs8" />
  <sodipodi:namedview
     pagecolor="#ffffff"
     bordercolor="#666666"
     borderopacity="1"
     objecttolerance="10"
     gridtolerance="10"
     guidetolerance="10"
     inkscape:pageopacity="0"
     inkscape:pageshadow="2"
     inkscape:window-width="1920"
     inkscape:window-height="1057"
     id="namedview6"
     showgrid="false"
     inkscape:pagecheckerboard="true"
     showguides="true"
     inkscape:guide-bbox="true"
     inkscape:zoom="7.9999999"
     inkscape:cx="12.589887"
     inkscape:cy="20.969614"
     inkscape:window-x="-8"
     inkscape:window-y="-8"
     inkscape:window-maximized="1"
     inkscape:current-layer="svg4" />
  <g
     id="g5222"
     transform="matrix(1.2647165,0,0,1.2647165,-6.353196,-11.118093)"
     style="stroke-width:0.79069102">
    <path
       id="path2132-7"
       d="m 16.753906,19.697266 c -0.243004,-0.0017 -0.480915,0.0602 -0.691406,0.18164 -0.210697,0.122357 -0.386292,0.299434 -0.505859,0.511719 l -0.02539,0.04492 c -8.66e-4,0.0022 -0.0031,0.0056 -0.0039,0.0078 L 15.169922,21.064453 15.011719,21.335938 10.587891,29 H 16.84375 L 17.132812,28.5 19.875,23.75 18.324219,21.064453 17.875,20.287109 17.83789,20.220699 H 17.82031 C 17.56355,19.892397 17.170687,19.70032 16.753906,19.697266 Z M 20.451172,24.75 17.998047,29 h 0.08789 1.015624 A 5,5 0 0 0 19.025391,29.5 5,5 0 0 0 19,30 a 5,5 0 0 0 5,5 5,5 0 0 0 1.314453,-0.185547 c 0.144529,-0.336601 0.256587,-0.689828 0.337891,-1.054687 z m 4.042969,11.226562 a 6,6 0 0 1 -0.453125,0.02148 c 0.01316,8.5e-5 0.02589,0.002 0.03906,0.002 0.140253,0 0.276339,-0.01369 0.414063,-0.02344 z"
       style="opacity:1;fill:#ffffff;fill-opacity:1;stroke:none;stroke-width:0.5402205px;stroke-linecap:butt;stroke-linejoin:miter;stroke-opacity:1"
       inkscape:connector-curvature="0" />
    <path
       id="path2132-7-49"
       d="m 27.724609,13.535156 c -0.243004,-0.0017 -0.482868,0.06216 -0.693359,0.183594 -0.210697,0.122357 -0.384339,0.297481 -0.503906,0.509766 L 26.5,14.275391 c -8.66e-4,0.0022 -0.0012,0.0037 -0.002,0.0059 l -0.359375,0.621094 -0.15625,0.271484 L 17.998047,29 h 0.08789 1.015624 A 5,5 0 0 0 19.025391,29.5 5,5 0 0 0 19,30 5,5 0 0 0 24,35 5,5 0 0 0 29,30 5,5 0 0 0 29,29.9922 5,5 0 0 0 28.892578,29 h 0.002 1.015625 7.523438 L 29.294922,14.902344 28.845703,14.125 28.808593,14.06055 h -0.01758 C 28.534251,13.732237 28.14139,13.53821 27.724609,13.535156 Z m -9.703125,16.88086 c 0.0081,0.118087 0.0183,0.235438 0.0332,0.351562 a 6,6 0 0 1 -0.0332,-0.351562 z m 11.947266,0.183593 a 6,6 0 0 1 -1.019531,2.78711 c 0.55524,-0.809179 0.917303,-1.759718 1.019531,-2.78711 z m -1.019531,2.78711 a 6,6 0 0 1 -0.357422,0.46875 c 0.12657,-0.150496 0.245892,-0.306212 0.357422,-0.46875 z M 18.082031,30.955078 c 0.02373,0.14769 0.05161,0.2936 0.08594,0.4375 a 6,6 0 0 1 -0.08594,-0.4375 z m 0.115235,0.550781 c 0.04075,0.157031 0.08773,0.311108 0.140625,0.462891 a 6,6 0 0 1 -0.140625,-0.462891 z m 0.18164,0.574219 c 0.05296,0.142752 0.11054,0.28251 0.173828,0.419922 a 6,6 0 0 1 -0.173828,-0.419922 z m 0.242188,0.564453 c 0.06636,0.134474 0.136978,0.265959 0.21289,0.394531 a 6,6 0 0 1 -0.21289,-0.394531 z m 0.28125,0.50586 c 0.0852,0.137403 0.175793,0.270651 0.271484,0.40039 a 6,6 0 0 1 -0.271484,-0.40039 z m 0.328125,0.478515 c 0.102506,0.134417 0.210972,0.26349 0.324219,0.388672 a 6,6 0 0 1 -0.324219,-0.388672 z m 9.318359,0.275391 a 6,6 0 0 1 -0.36914,0.394531 c 0.129067,-0.125521 0.251725,-0.257931 0.36914,-0.394531 z m -8.941406,0.171875 c 0.117522,0.126556 0.241212,0.247232 0.36914,0.363281 a 6,6 0 0 1 -0.36914,-0.363281 z m 8.550781,0.242187 a 6,6 0 0 1 -0.425781,0.371094 c 0.147341,-0.117505 0.290199,-0.240496 0.425781,-0.371094 z m -8.117187,0.179688 c 0.134613,0.118626 0.275023,0.229587 0.419922,0.335937 a 6,6 0 0 1 -0.419922,-0.335937 z m 7.654296,0.220703 a 6,6 0 0 1 -0.447265,0.320312 C 27.40253,34.939179 27.551001,34.832 27.695312,34.71875 Z m -7.207031,0.136719 c 0.154313,0.111894 0.313654,0.217374 0.478516,0.314453 a 6,6 0 0 1 -0.478516,-0.314453 z m 6.712891,0.210937 a 6,6 0 0 1 -0.476563,0.273438 c 0.163456,-0.08372 0.322193,-0.175586 0.476563,-0.273438 z m -6.212891,0.115235 c 0.170147,0.09926 0.345166,0.189023 0.525391,0.271484 a 6,6 0 0 1 -0.525391,-0.271484 z m 0.525391,0.271484 c 0.356412,0.163075 0.729548,0.293625 1.11914,0.384766 h 0.01563 a 6,6 0 0 1 -1.134766,-0.384766 z m 5.185547,-0.101563 a 6,6 0 0 1 -0.53125,0.236329 c 0.181818,-0.07073 0.358496,-0.148864 0.53125,-0.236329 z m -0.53125,0.236329 a 6,6 0 0 1 -0.56836,0.189453 c 0.193773,-0.05367 0.382955,-0.117324 0.56836,-0.189453 z m -0.56836,0.189453 a 6,6 0 0 1 -0.240234,0.06055 h 0.0078 c 0.07825,-0.01831 0.155374,-0.03921 0.232421,-0.06055 z"
       style="opacity:1;fill:#ffffff;fill-opacity:1;stroke:none;stroke-width:0.5402205px;stroke-linecap:butt;stroke-linejoin:miter;stroke-opacity:1"
       inkscape:connector-curvature="0" />
    <path
       style="fill:#ffffff;stroke-width:0.79069102"
       id="path4528"
       d="M 6.0058594,30 6,38 c 0,2.21 1.7704687,4 3.9804688,4 H 38 c 2.21,0 4,-1.79 4,-4 v -8 h -4 -8 c 0,3.31 -2.69,6 -6,6 -3.31,0 -6,-2.69 -6,-6 H 9.9804688 Z"
       inkscape:connector-curvature="0" />
  </g>
</svg>
