<?xml version="1.0" encoding="UTF-8" standalone="no"?>
<!-- Created with Inkscape (http://www.inkscape.org/) -->

<svg
   xmlns:dc="http://purl.org/dc/elements/1.1/"
   xmlns:cc="http://creativecommons.org/ns#"
   xmlns:rdf="http://www.w3.org/1999/02/22-rdf-syntax-ns#"
   xmlns:svg="http://www.w3.org/2000/svg"
   xmlns="http://www.w3.org/2000/svg"
   xmlns:sodipodi="http://sodipodi.sourceforge.net/DTD/sodipodi-0.dtd"
   xmlns:inkscape="http://www.inkscape.org/namespaces/inkscape"
   width="380"
   height="70.374634"
   viewBox="0 0 100.54168 18.619954"
   version="1.1"
   id="svg860"
   inkscape:version="0.92.4 (5da689c313, 2019-01-14)"
   sodipodi:docname="MM3D_Foundry_HORIZ.svg"
   inkscape:export-filename="C:\Users\barto\Desktop\Work\Graphics\foundry_top_logo.png"
   inkscape:export-xdpi="96"
   inkscape:export-ydpi="96">
  <defs
     id="defs854" />
  <sodipodi:namedview
     id="base"
     pagecolor="#ffffff"
     bordercolor="#666666"
     borderopacity="1.0"
     inkscape:pageopacity="0.0"
     inkscape:pageshadow="2"
     inkscape:zoom="2.8"
     inkscape:cx="177.21283"
     inkscape:cy="22.810753"
     inkscape:document-units="mm"
     inkscape:current-layer="layer1"
     showgrid="false"
     inkscape:pagecheckerboard="true"
     fit-margin-top="0"
     fit-margin-left="0"
     fit-margin-right="0"
     fit-margin-bottom="0"
     inkscape:window-width="1920"
     inkscape:window-height="1057"
     inkscape:window-x="-8"
     inkscape:window-y="-8"
     inkscape:window-maximized="1"
     units="px" />
  <metadata
     id="metadata857">
    <rdf:RDF>
      <cc:Work
         rdf:about="">
        <dc:format>image/svg+xml</dc:format>
        <dc:type
           rdf:resource="http://purl.org/dc/dcmitype/StillImage" />
        <dc:title></dc:title>
      </cc:Work>
    </rdf:RDF>
  </metadata>
  <g
     inkscape:label="Layer 1"
     inkscape:groupmode="layer"
     id="layer1"
     transform="translate(-30.722192,-127.86175)">
    <g
       id="g872"
       transform="matrix(0.74057251,0,0,0.74057251,8.6445653,37.514203)"
       style="stroke-width:1.35030663">
      <path
         d="m 72.47762,126.48134 h -7.984769 v 3.58995 h 7.345988 v 3.62828 h -7.345988 v 8.1764 H 59.740317 V 122.85306 H 72.47762 Z"
         style="font-style:normal;font-variant:normal;font-weight:bold;font-stretch:normal;font-size:25.39999962px;line-height:1.25;font-family:Tahoma;-inkscape-font-specification:'Tahoma Bold';letter-spacing:0px;word-spacing:0px;fill:#ffffff;fill-opacity:1;stroke:none;stroke-width:0.36802173"
         id="path1421"
         inkscape:connector-curvature="0" />
      <path
         id="path1423"
         d="m 80.413646,127.10235 c -2.025666,0.11804 -3.628369,0.787 -4.805766,2.01057 -1.294597,1.3457 -1.941896,3.21093 -1.941896,5.59572 0,2.35923 0.647299,4.22021 1.941896,5.58295 1.177394,1.22357 2.780108,1.89252 4.805766,2.01057 v -3.26258 c -0.169284,-0.0376 -0.332695,-0.0869 -0.487603,-0.15331 -0.357717,-0.1533 -0.655815,-0.39604 -0.894294,-0.72821 -0.229961,-0.32365 -0.417337,-0.75376 -0.562128,-1.29034 -0.14479,-0.54509 -0.217187,-1.25627 -0.217187,-2.13353 0,-0.87725 0.07665,-1.60547 0.229962,-2.18463 0.153307,-0.57916 0.357717,-1.03483 0.61323,-1.36699 0.272547,-0.34921 0.570645,-0.58342 0.894294,-0.70266 0.134137,-0.0529 0.276422,-0.092 0.423726,-0.12297 z m 1.324406,0 v 3.25459 c 0.167131,0.0358 0.326404,0.0838 0.474828,0.14852 0.332166,0.13627 0.630264,0.38327 0.894294,0.74099 0.246995,0.34068 0.438629,0.79634 0.574905,1.36699 0.14479,0.56213 0.217184,1.26905 0.217184,2.12075 0,0.91133 -0.06814,1.62677 -0.20441,2.14631 -0.136273,0.51102 -0.336424,0.94966 -0.600453,1.31589 -0.221445,0.30662 -0.519543,0.53658 -0.894294,0.68988 -0.154799,0.0648 -0.30878,0.11271 -0.462054,0.15012 v 3.26577 c 2.039892,-0.11743 3.64304,-0.78624 4.805768,-2.01057 1.294595,-1.36274 1.941896,-3.22372 1.941896,-5.58295 0,-2.36775 -0.647301,-4.22873 -1.941896,-5.58295 -1.170016,-1.23159 -2.773115,-1.90482 -4.805768,-2.02334 z"
         style="font-style:normal;font-variant:normal;font-weight:bold;font-stretch:normal;font-size:25.39999962px;line-height:1.25;font-family:Tahoma;-inkscape-font-specification:'Tahoma Bold';letter-spacing:0px;word-spacing:0px;fill:#ffffff;fill-opacity:1;stroke:none;stroke-width:0.36802173"
         inkscape:connector-curvature="0" />
      <path
         id="path1425"
         d="m 90.747001,127.52874 v 9.33898 c 0,1.80563 0.396046,3.15984 1.188135,4.06266 0.800604,0.89428 1.912085,1.34144 3.334438,1.34144 0.894295,0 1.665092,-0.16609 2.312391,-0.49825 0.258595,-0.13611 0.530133,-0.30363 0.809123,-0.48867 v -2.92083 c -0.373424,0.12424 -0.704291,0.19004 -0.987982,0.19004 -0.511028,0 -0.911331,-0.0767 -1.200909,-0.22996 -0.281067,-0.15331 -0.489734,-0.37901 -0.626007,-0.67711 -0.144791,-0.32364 -0.238479,-0.7197 -0.281064,-1.18814 -0.03407,-0.46844 -0.0511,-1.07315 -0.0511,-1.81414 v -7.11602 z m 8.968493,0 v 10.1694 2.59345 1.58418 h 4.471466 v -14.34703 z"
         style="font-style:normal;font-variant:normal;font-weight:bold;font-stretch:normal;font-size:25.39999962px;line-height:1.25;font-family:Tahoma;-inkscape-font-specification:'Tahoma Bold';letter-spacing:0px;word-spacing:0px;fill:#ffffff;fill-opacity:1;stroke:none;stroke-width:0.36802173"
         inkscape:connector-curvature="0" />
      <path
         id="path1427"
         d="m 116.541,127.13269 c -0.84319,0 -1.61399,0.17461 -2.31239,0.5238 -0.2662,0.13475 -0.53658,0.29631 -0.80912,0.47164 v 2.88729 c 0.3326,-0.10788 0.66212,-0.16502 0.98798,-0.16502 0.48547,0 0.873,0.0724 1.16258,0.21719 0.28958,0.13627 0.51103,0.36623 0.66434,0.68988 0.12776,0.27255 0.21293,0.6984 0.25551,1.27757 0.0511,0.57064 0.0767,1.14555 0.0767,1.7247 v 7.11603 h 4.49702 v -9.33899 c 0,-1.75452 -0.38753,-3.0917 -1.16258,-4.01154 -0.77506,-0.92836 -1.89505,-1.39255 -3.35999,-1.39255 z m -8.91739,0.39605 v 14.34703 h 4.47147 v -10.1694 -2.59345 -1.58418 z"
         style="font-style:normal;font-variant:normal;font-weight:bold;font-stretch:normal;font-size:25.39999962px;line-height:1.25;font-family:Tahoma;-inkscape-font-specification:'Tahoma Bold';letter-spacing:0px;word-spacing:0px;fill:#ffffff;fill-opacity:1;stroke:none;stroke-width:0.36802173"
         inkscape:connector-curvature="0" />
      <path
         id="path1429"
         d="m 132.95769,121.99689 v 6.10675 2.77231 7.03938 2.46569 1.49475 h 4.47147 v -19.87888 z m -3.52608,5.1358 c -0.82615,0 -1.60972,0.18312 -2.35071,0.54935 -0.74099,0.35772 -1.37125,0.84745 -1.8908,1.4692 -0.57064,0.68137 -1.01779,1.48197 -1.34144,2.40182 -0.32365,0.91985 -0.48547,2.00578 -0.48547,3.25779 0,2.26555 0.47695,4.07542 1.43087,5.42964 0.95391,1.35422 2.24851,2.03133 3.88379,2.03133 0.48548,0 0.90281,-0.0426 1.25201,-0.12776 0.34921,-0.0852 0.70266,-0.21293 1.06038,-0.38327 0.19199,-0.0931 0.4113,-0.22979 0.64304,-0.38646 v -2.75741 c -0.32365,0.10102 -0.64439,0.15437 -0.96243,0.15437 -0.96243,0 -1.66083,-0.31513 -2.0952,-0.94539 -0.42586,-0.63027 -0.63879,-1.65232 -0.63879,-3.06616 0,-1.3457 0.26829,-2.3933 0.80487,-3.1428 0.54509,-0.74951 1.35422,-1.12426 2.42737,-1.12426 0.13868,0 0.29539,0.0136 0.46418,0.0362 v -3.02729 c -0.12483,-0.0469 -0.24591,-0.0895 -0.36198,-0.12616 -0.47695,-0.16182 -1.09018,-0.24274 -1.83969,-0.24274 z"
         style="font-style:normal;font-variant:normal;font-weight:bold;font-stretch:normal;font-size:25.39999962px;line-height:1.25;font-family:Tahoma;-inkscape-font-specification:'Tahoma Bold';letter-spacing:0px;word-spacing:0px;fill:#ffffff;fill-opacity:1;stroke:none;stroke-width:0.36802173"
         inkscape:connector-curvature="0" />
      <path
         d="m 150.47284,131.75767 h -0.37048 q -0.25552,-0.0894 -0.74099,-0.12775 -0.48548,-0.0511 -1.07316,-0.0511 -0.70266,0 -1.48197,0.20442 -0.76654,0.20441 -1.49474,0.48547 v 9.60727 h -4.47148 v -14.34703 h 4.47148 v 2.05688 q 0.3066,-0.28107 0.84318,-0.70266 0.54935,-0.43437 0.9965,-0.68989 0.48547,-0.29383 1.12426,-0.49825 0.65156,-0.21718 1.22646,-0.21718 0.21719,0 0.48548,0.0128 0.26828,0.0128 0.48546,0.0383 z"
         style="font-style:normal;font-variant:normal;font-weight:bold;font-stretch:normal;font-size:25.39999962px;line-height:1.25;font-family:Tahoma;-inkscape-font-specification:'Tahoma Bold';letter-spacing:0px;word-spacing:0px;fill:#ffffff;fill-opacity:1;stroke:none;stroke-width:0.36802173"
         id="path1431"
         inkscape:connector-curvature="0" />
      <path
         d="m 165.57365,127.52894 -7.24379,19.6106 h -4.80363 l 2.17185,-5.60851 -5.26356,-14.00209 h 4.70143 l 3.01505,8.99405 2.82342,-8.99405 z"
         style="font-style:normal;font-variant:normal;font-weight:bold;font-stretch:normal;font-size:25.39999962px;line-height:1.25;font-family:Tahoma;-inkscape-font-specification:'Tahoma Bold';letter-spacing:0px;word-spacing:0px;fill:#ffffff;fill-opacity:1;stroke:none;stroke-width:0.36802173"
         id="path1433"
         inkscape:connector-curvature="0" />
      <g
         style="fill:#ffffff;fill-opacity:1;stroke-width:1.35030663"
         id="g5384"
         transform="matrix(0.15081024,0,0,0.15081024,26.987385,127.89192)">
        <rect
           style="fill:#ffffff;fill-opacity:1;stroke-width:4.18265343"
           id="rect3734-5"
           width="21.535849"
           height="58.454449"
           x="74.10463"
           y="34.271656" />
        <rect
           style="fill:#ffffff;fill-opacity:1;stroke-width:4.18265343"
           id="rect3734-0"
           width="21.535849"
           height="58.454449"
           x="18.726723"
           y="34.271656" />
        <rect
           style="fill:#ffffff;fill-opacity:1;stroke-width:6.29229832"
           id="rect3734-0-8"
           width="21.535849"
           height="132.29166"
           x="-28.118464"
           y="18.726723"
           transform="rotate(-90)" />
        <rect
           style="fill:#ffffff;fill-opacity:1;stroke-width:4.18265343"
           id="rect3734-50"
           width="21.535849"
           height="58.454449"
           x="129.48253"
           y="34.271656" />
        <path
           style="fill:#ffffff;fill-opacity:1;stroke:none;stroke-width:4.15384865px;stroke-linecap:butt;stroke-linejoin:miter;stroke-opacity:1"
           d="M 55.645343,-33.412541 74.11306,-14.953242 V 0.42954584 H 95.644371 V -14.953242 l 18.455419,-18.459299 z"
           id="path4696"
           inkscape:connector-curvature="0" />
      </g>
    </g>
  </g>
</svg>
