<?xml version="1.0" encoding="UTF-8" standalone="no"?>
<svg
   xmlns:dc="http://purl.org/dc/elements/1.1/"
   xmlns:cc="http://creativecommons.org/ns#"
   xmlns:rdf="http://www.w3.org/1999/02/22-rdf-syntax-ns#"
   xmlns:svg="http://www.w3.org/2000/svg"
   xmlns="http://www.w3.org/2000/svg"
   xmlns:sodipodi="http://sodipodi.sourceforge.net/DTD/sodipodi-0.dtd"
   xmlns:inkscape="http://www.inkscape.org/namespaces/inkscape"
   width="48"
   height="48"
   viewBox="0 0 48 48"
   version="1.1"
   id="svg4"
   sodipodi:docname="new.svg"
   inkscape:export-filename="C:\Users\barto\Desktop\Work\Graphics\icons\new_48px.png"
   inkscape:export-xdpi="96"
   inkscape:export-ydpi="96"
   inkscape:version="0.92.4 (5da689c313, 2019-01-14)">
  <metadata
     id="metadata10">
    <rdf:RDF>
      <cc:Work
         rdf:about="">
        <dc:format>image/svg+xml</dc:format>
        <dc:type
           rdf:resource="http://purl.org/dc/dcmitype/StillImage" />
        <dc:title></dc:title>
      </cc:Work>
    </rdf:RDF>
  </metadata>
  <defs
     id="defs8" />
  <sodipodi:namedview
     pagecolor="#ffffff"
     bordercolor="#666666"
     borderopacity="1"
     objecttolerance="10"
     gridtolerance="10"
     guidetolerance="10"
     inkscape:pageopacity="0"
     inkscape:pageshadow="2"
     inkscape:window-width="1920"
     inkscape:window-height="1057"
     id="namedview6"
     showgrid="false"
     inkscape:pagecheckerboard="true"
     inkscape:zoom="8"
     inkscape:cx="31.262503"
     inkscape:cy="24.185304"
     inkscape:window-x="-8"
     inkscape:window-y="-8"
     inkscape:window-maximized="1"
     inkscape:current-layer="svg4"
     showguides="true"
     inkscape:guide-bbox="true" />
  <path
     style="fill:#ffffff;stroke-width:1"
     d="M 18.798618,8 15.908133,12.863785 10.385585,14.1111 10.906918,19.747176 7.1739335,24 10.906918,28.252824 10.385585,33.8889 15.908133,35.136215 18.798618,40 24,37.766782 29.201381,40 32.091869,35.136215 37.614414,33.8889 37.093082,28.252824 40.826066,24 37.093082,19.747176 37.614414,14.1111 32.091869,12.863785 29.201381,8 l -5.20138,2.233218 z m 0.951545,2.921856 3.338624,1.43404 a 2.3109242,2.3109242 0 0 0 0.08813,0.03286 2.3109242,2.3109242 0 0 0 0.140417,0.05079 2.3109242,2.3109242 0 0 0 0.106059,0.02838 2.3109242,2.3109242 0 0 0 0.122491,0.02988 2.3109242,2.3109242 0 0 0 0.05826,0.009 2.3109242,2.3109242 0 0 0 0.176268,0.02539 2.3109242,2.3109242 0 0 0 0.0015,0 2.3109242,2.3109242 0 0 0 0.02987,0.0015 2.3109242,2.3109242 0 0 0 0.188185,0.009 2.3109242,2.3109242 0 0 0 0.188218,-0.009 2.3109242,2.3109242 0 0 0 0.02987,-0.0015 2.3109242,2.3109242 0 0 0 0.0015,0 2.3109242,2.3109242 0 0 0 0.176268,-0.02539 2.3109242,2.3109242 0 0 0 0.05826,-0.009 2.3109242,2.3109242 0 0 0 0.122491,-0.02988 2.3109242,2.3109242 0 0 0 0.106059,-0.02838 2.3109242,2.3109242 0 0 0 0.140417,-0.05079 2.3109242,2.3109242 0 0 0 0.08813,-0.03286 l 3.338624,-1.432546 1.855289,3.12053 a 2.3109242,2.3109242 0 0 0 0.08963,0.134441 2.3109242,2.3109242 0 0 0 0.04631,0.06722 2.3109242,2.3109242 0 0 0 0.05378,0.06573 2.3109242,2.3109242 0 0 0 0.103071,0.123985 2.3109242,2.3109242 0 0 0 0.02241,0.02241 2.3109242,2.3109242 0 0 0 0.12996,0.126971 2.3109242,2.3109242 0 0 0 0.113529,0.09262 2.3109242,2.3109242 0 0 0 0.06871,0.05377 2.3109242,2.3109242 0 0 0 0.14191,0.0956 2.3109242,2.3109242 0 0 0 0.04481,0.02838 2.3109242,2.3109242 0 0 0 0.122491,0.06423 2.3109242,2.3109242 0 0 0 0.09261,0.04631 2.3109242,2.3109242 0 0 0 0.09112,0.03735 2.3109242,2.3109242 0 0 0 0.123984,0.0478 2.3109242,2.3109242 0 0 0 0.07319,0.02241 2.3109242,2.3109242 0 0 0 0.159835,0.04481 l 3.544767,0.800672 -0.334609,3.616468 a 2.3109242,2.3109242 0 0 0 -0.006,0.116516 2.3109242,2.3109242 0 0 0 -0.003,0.140417 2.3109242,2.3109242 0 0 0 0.0015,0.0239 2.3109242,2.3109242 0 0 0 0.01195,0.192699 2.3109242,2.3109242 0 0 0 0.01942,0.113528 2.3109242,2.3109242 0 0 0 0.02091,0.120997 2.3109242,2.3109242 0 0 0 0.01494,0.05826 2.3109242,2.3109242 0 0 0 0.04631,0.167304 2.3109242,2.3109242 0 0 0 0.01494,0.04033 2.3109242,2.3109242 0 0 0 0.06722,0.174773 2.3109242,2.3109242 0 0 0 0.03436,0.06573 2.3109242,2.3109242 0 0 0 0.06722,0.132947 2.3109242,2.3109242 0 0 0 0.08365,0.134441 2.3109242,2.3109242 0 0 0 0.03436,0.05527 2.3109242,2.3109242 0 0 0 0.09262,0.119503 2.3109242,2.3109242 0 0 0 0.06274,0.07917 l 2.395968,2.729152 -2.396042,2.729157 a 2.3109242,2.3109242 0 0 0 -0.06274,0.07917 2.3109242,2.3109242 0 0 0 -0.09262,0.119503 2.3109242,2.3109242 0 0 0 -0.03436,0.05527 2.3109242,2.3109242 0 0 0 -0.08365,0.134441 2.3109242,2.3109242 0 0 0 -0.06722,0.132947 2.3109242,2.3109242 0 0 0 -0.03436,0.06573 2.3109242,2.3109242 0 0 0 -0.06722,0.174773 2.3109242,2.3109242 0 0 0 -0.01494,0.04033 2.3109242,2.3109242 0 0 0 -0.04631,0.167305 2.3109242,2.3109242 0 0 0 -0.01494,0.05826 2.3109242,2.3109242 0 0 0 -0.02091,0.120997 2.3109242,2.3109242 0 0 0 -0.01942,0.113529 2.3109242,2.3109242 0 0 0 -0.01195,0.192699 2.3109242,2.3109242 0 0 0 -0.0015,0.0239 2.3109242,2.3109242 0 0 0 0.003,0.140417 2.3109242,2.3109242 0 0 0 0.006,0.116516 l 0.334609,3.616468 -3.544767,0.800673 a 2.3109242,2.3109242 0 0 0 -0.159836,0.04481 2.3109242,2.3109242 0 0 0 -0.07319,0.02241 2.3109242,2.3109242 0 0 0 -0.123984,0.0478 2.3109242,2.3109242 0 0 0 -0.09112,0.03735 2.3109242,2.3109242 0 0 0 -0.09262,0.04631 2.3109242,2.3109242 0 0 0 -0.122491,0.06423 2.3109242,2.3109242 0 0 0 -0.04481,0.02838 2.3109242,2.3109242 0 0 0 -0.14191,0.0956 2.3109242,2.3109242 0 0 0 -0.06871,0.05378 2.3109242,2.3109242 0 0 0 -0.113528,0.09261 2.3109242,2.3109242 0 0 0 -0.12996,0.126972 2.3109242,2.3109242 0 0 0 -0.02241,0.02241 2.3109242,2.3109242 0 0 0 -0.103071,0.123985 2.3109242,2.3109242 0 0 0 -0.05378,0.06573 2.3109242,2.3109242 0 0 0 -0.04631,0.06722 2.3109242,2.3109242 0 0 0 -0.08963,0.134441 l -1.855289,3.12053 -3.338624,-1.432546 a 2.3109242,2.3109242 0 0 0 -0.08813,-0.03286 2.3109242,2.3109242 0 0 0 -0.140415,-0.05079 2.3109242,2.3109242 0 0 0 -0.106059,-0.02838 2.3109242,2.3109242 0 0 0 -0.122491,-0.02987 2.3109242,2.3109242 0 0 0 -0.05826,-0.009 2.3109242,2.3109242 0 0 0 -0.176267,-0.02539 2.3109242,2.3109242 0 0 0 -0.0015,0 2.3109242,2.3109242 0 0 0 -0.02987,-0.0015 2.3109242,2.3109242 0 0 0 -0.188143,-0.0089 2.3109242,2.3109242 0 0 0 -0.188218,0.009 2.3109242,2.3109242 0 0 0 -0.02987,0.0015 2.3109242,2.3109242 0 0 0 -0.0015,0 2.3109242,2.3109242 0 0 0 -0.176267,0.02539 2.3109242,2.3109242 0 0 0 -0.05826,0.009 2.3109242,2.3109242 0 0 0 -0.122491,0.02987 2.3109242,2.3109242 0 0 0 -0.106059,0.02838 2.3109242,2.3109242 0 0 0 -0.140416,0.05079 2.3109242,2.3109242 0 0 0 -0.06573,0.0239 2.3109242,2.3109242 0 0 0 -0.02241,0.009 l -3.338625,1.432546 -1.855289,-3.12053 a 2.3109242,2.3109242 0 0 0 -0.08963,-0.134441 2.3109242,2.3109242 0 0 0 -0.03884,-0.05826 2.3109242,2.3109242 0 0 0 -0.0075,-0.009 2.3109242,2.3109242 0 0 0 -0.05377,-0.06573 2.3109242,2.3109242 0 0 0 -0.103071,-0.123985 2.3109242,2.3109242 0 0 0 -0.0015,-0.0015 2.3109242,2.3109242 0 0 0 -0.143404,-0.14191 2.3109242,2.3109242 0 0 0 -0.0075,-0.006 2.3109242,2.3109242 0 0 0 -0.113529,-0.09262 2.3109242,2.3109242 0 0 0 -0.06871,-0.05377 2.3109242,2.3109242 0 0 0 -0.14191,-0.0956 2.3109242,2.3109242 0 0 0 -0.04034,-0.02539 2.3109242,2.3109242 0 0 0 -0.0045,-0.003 2.3109242,2.3109242 0 0 0 -0.12249,-0.06423 2.3109242,2.3109242 0 0 0 -0.09262,-0.04631 2.3109242,2.3109242 0 0 0 -0.09112,-0.03735 2.3109242,2.3109242 0 0 0 -0.123984,-0.0478 2.3109242,2.3109242 0 0 0 -0.01046,-0.0045 2.3109242,2.3109242 0 0 0 -0.06274,-0.01793 2.3109242,2.3109242 0 0 0 -0.159835,-0.04481 L 12.872595,32.0814 13.207204,28.464931 a 2.3109242,2.3109242 0 0 0 0.006,-0.116515 2.3109242,2.3109242 0 0 0 0.003,-0.140417 2.3109242,2.3109242 0 0 0 0,-0.0015 2.3109242,2.3109242 0 0 0 -0.0015,-0.02241 2.3109242,2.3109242 0 0 0 -0.01195,-0.192699 2.3109242,2.3109242 0 0 0 -0.01942,-0.113529 2.3109242,2.3109242 0 0 0 -0.02091,-0.120997 2.3109242,2.3109242 0 0 0 -0.0015,-0.0075 2.3109242,2.3109242 0 0 0 -0.01344,-0.05079 2.3109242,2.3109242 0 0 0 -0.04631,-0.167304 2.3109242,2.3109242 0 0 0 -0.0015,-0.0045 2.3109242,2.3109242 0 0 0 -0.01344,-0.03585 2.3109242,2.3109242 0 0 0 -0.06722,-0.174773 2.3109242,2.3109242 0 0 0 -0.003,-0.006 2.3109242,2.3109242 0 0 0 -0.03137,-0.05975 2.3109242,2.3109242 0 0 0 -0.06722,-0.132947 2.3109242,2.3109242 0 0 0 -0.08365,-0.134441 2.3109242,2.3109242 0 0 0 -0.03137,-0.05079 2.3109242,2.3109242 0 0 0 -0.003,-0.0045 2.3109242,2.3109242 0 0 0 -0.09262,-0.119503 2.3109242,2.3109242 0 0 0 -0.04481,-0.05826 2.3109242,2.3109242 0 0 0 -0.01792,-0.02091 L 10.248163,24 12.644205,21.270843 a 2.3109242,2.3109242 0 0 0 0.06274,-0.07917 2.3109242,2.3109242 0 0 0 0.09262,-0.119503 2.3109242,2.3109242 0 0 0 0.003,-0.0045 2.3109242,2.3109242 0 0 0 0.03137,-0.05079 2.3109242,2.3109242 0 0 0 0.08365,-0.134441 2.3109242,2.3109242 0 0 0 0.06722,-0.132948 2.3109242,2.3109242 0 0 0 0.03137,-0.05976 2.3109242,2.3109242 0 0 0 0.003,-0.006 2.3109242,2.3109242 0 0 0 0.06722,-0.174773 2.3109242,2.3109242 0 0 0 0.01344,-0.03585 2.3109242,2.3109242 0 0 0 0.0015,-0.0045 2.3109242,2.3109242 0 0 0 0.04631,-0.167304 2.3109242,2.3109242 0 0 0 0.01344,-0.05079 2.3109242,2.3109242 0 0 0 0.0015,-0.0075 2.3109242,2.3109242 0 0 0 0.02091,-0.120997 2.3109242,2.3109242 0 0 0 0.01942,-0.113529 2.3109242,2.3109242 0 0 0 0.01195,-0.192699 2.3109242,2.3109242 0 0 0 0.0015,-0.02241 2.3109242,2.3109242 0 0 0 0,-0.0015 2.3109242,2.3109242 0 0 0 -0.003,-0.140416 2.3109242,2.3109242 0 0 0 -0.006,-0.116516 l -0.334608,-3.616481 3.544768,-0.800672 a 2.3109242,2.3109242 0 0 0 0.159834,-0.04481 2.3109242,2.3109242 0 0 0 0.06274,-0.01793 2.3109242,2.3109242 0 0 0 0.01046,-0.0045 2.3109242,2.3109242 0 0 0 0.123984,-0.0478 2.3109242,2.3109242 0 0 0 0.09112,-0.03735 2.3109242,2.3109242 0 0 0 0.09262,-0.04631 2.3109242,2.3109242 0 0 0 0.122491,-0.06423 2.3109242,2.3109242 0 0 0 0.0045,-0.003 2.3109242,2.3109242 0 0 0 0.04034,-0.02539 2.3109242,2.3109242 0 0 0 0.141909,-0.0956 2.3109242,2.3109242 0 0 0 0.06871,-0.05378 2.3109242,2.3109242 0 0 0 0.113529,-0.09261 2.3109242,2.3109242 0 0 0 0.0075,-0.006 2.3109242,2.3109242 0 0 0 0.143403,-0.14191 2.3109242,2.3109242 0 0 0 0.0015,-0.0015 2.3109242,2.3109242 0 0 0 0.103071,-0.123985 2.3109242,2.3109242 0 0 0 0.05377,-0.06573 2.3109242,2.3109242 0 0 0 0.0075,-0.009 2.3109242,2.3109242 0 0 0 0.03884,-0.05826 2.3109242,2.3109242 0 0 0 0.08963,-0.134441 z"
     id="path831"
     inkscape:connector-curvature="0" />
</svg>
