<?xml version="1.0" encoding="UTF-8" standalone="no"?>
<svg
   xmlns:dc="http://purl.org/dc/elements/1.1/"
   xmlns:cc="http://creativecommons.org/ns#"
   xmlns:rdf="http://www.w3.org/1999/02/22-rdf-syntax-ns#"
   xmlns:svg="http://www.w3.org/2000/svg"
   xmlns="http://www.w3.org/2000/svg"
   xmlns:sodipodi="http://sodipodi.sourceforge.net/DTD/sodipodi-0.dtd"
   xmlns:inkscape="http://www.inkscape.org/namespaces/inkscape"
   viewBox="0 0 24 24"
   width="18px"
   height="18px"
   version="1.1"
   id="svg6"
   sodipodi:docname="offline.svg"
   inkscape:export-filename="C:\Users\barto\Desktop\GitHub\MM3D\Foundry\Raspberry Pi\images\offline_32px.png"
   inkscape:export-xdpi="170.67"
   inkscape:export-ydpi="170.67"
   inkscape:version="0.92.4 (5da689c313, 2019-01-14)"
   fill="white">
  <metadata
     id="metadata12">
    <rdf:RDF>
      <cc:Work
         rdf:about="">
        <dc:format>image/svg+xml</dc:format>
        <dc:type
           rdf:resource="http://purl.org/dc/dcmitype/StillImage" />
        <dc:title></dc:title>
      </cc:Work>
    </rdf:RDF>
  </metadata>
  <defs
     id="defs10" />
  <sodipodi:namedview
     pagecolor="#ffffff"
     bordercolor="#666666"
     borderopacity="1"
     objecttolerance="10"
     gridtolerance="10"
     guidetolerance="10"
     inkscape:pageopacity="0"
     inkscape:pageshadow="2"
     inkscape:window-width="1920"
     inkscape:window-height="1057"
     id="namedview8"
     showgrid="false"
     inkscape:pagecheckerboard="true"
     inkscape:zoom="37.083822"
     inkscape:cx="11.297321"
     inkscape:cy="7.0378935"
     inkscape:window-x="-8"
     inkscape:window-y="-8"
     inkscape:window-maximized="1"
     inkscape:current-layer="svg6" />
  <path
     d="M0 0h24v24H0V0z"
     id="path2"
     fill="none" />
  <path
     d="M24 15c0-2.64-2.05-4.78-4.65-4.96C18.67 6.59 15.64 4 12 4c-1.33 0-2.57.36-3.65.97l1.49 1.49C10.51 6.17 11.23 6 12 6c3.04 0 5.5 2.46 5.5 5.5v.5H19c1.66 0 3 1.34 3 3 0 .99-.48 1.85-1.21 2.4l1.41 1.41c1.09-.92 1.8-2.27 1.8-3.81zM4.41 3.86L3 5.27l2.77 2.77h-.42C2.34 8.36 0 10.91 0 14c0 3.31 2.69 6 6 6h11.73l2 2 1.41-1.41L4.41 3.86zM6 18c-2.21 0-4-1.79-4-4s1.79-4 4-4h1.73l8 8H6z"
     id="path4" />
</svg>
