<?xml version="1.0" encoding="UTF-8" standalone="no"?>
<svg
   xmlns:dc="http://purl.org/dc/elements/1.1/"
   xmlns:cc="http://creativecommons.org/ns#"
   xmlns:rdf="http://www.w3.org/1999/02/22-rdf-syntax-ns#"
   xmlns:svg="http://www.w3.org/2000/svg"
   xmlns="http://www.w3.org/2000/svg"
   xmlns:sodipodi="http://sodipodi.sourceforge.net/DTD/sodipodi-0.dtd"
   xmlns:inkscape="http://www.inkscape.org/namespaces/inkscape"
   width="48"
   height="48"
   viewBox="0 0 48 48"
   version="1.1"
   id="svg4"
   sodipodi:docname="repeat_2.svg"
   inkscape:export-filename="C:\Users\barto\Desktop\Work\Graphics\icons\repeat_48px.png"
   inkscape:export-xdpi="96"
   inkscape:export-ydpi="96"
   inkscape:version="0.92.4 (5da689c313, 2019-01-14)">
  <metadata
     id="metadata10">
    <rdf:RDF>
      <cc:Work
         rdf:about="">
        <dc:format>image/svg+xml</dc:format>
        <dc:type
           rdf:resource="http://purl.org/dc/dcmitype/StillImage" />
        <dc:title></dc:title>
      </cc:Work>
    </rdf:RDF>
  </metadata>
  <defs
     id="defs8" />
  <sodipodi:namedview
     pagecolor="#ffffff"
     bordercolor="#666666"
     borderopacity="1"
     objecttolerance="10"
     gridtolerance="10"
     guidetolerance="10"
     inkscape:pageopacity="0"
     inkscape:pageshadow="2"
     inkscape:window-width="1920"
     inkscape:window-height="1057"
     id="namedview6"
     showgrid="false"
     inkscape:pagecheckerboard="true"
     inkscape:zoom="9.8333333"
     inkscape:cx="24.891811"
     inkscape:cy="22.359978"
     inkscape:window-x="-8"
     inkscape:window-y="-8"
     inkscape:window-maximized="1"
     inkscape:current-layer="svg4" />
  <path
     d="m 24.000001,15.272728 v 4.363636 l 5.818182,-5.818182 -5.818182,-5.8181825 v 4.3636375 c -6.429091,0 -11.636364,5.207273 -11.636364,11.636364 0,2.283635 0.669091,4.4 1.803636,6.196363 l 2.123637,-2.123636 c -0.647273,-1.214546 -1.018182,-2.596364 -1.018182,-4.072727 0,-4.821819 3.905455,-8.727273 8.727273,-8.727273 z m 9.832727,2.530909 -2.123637,2.123636 c 0.647272,1.214546 1.018181,2.596364 1.018181,4.072728 0,4.821818 -3.905454,8.727272 -8.727272,8.727272 V 28.363636 L 18.181818,34.181818 24,40 v -4.363636 c 6.429091,0 11.636364,-5.207274 11.636364,-11.636363 0,-2.283637 -0.669092,-4.400001 -1.803636,-6.196364 z"
     id="path2"
     style="fill:#ffffff;stroke-width:1"
     inkscape:connector-curvature="0" />
</svg>
