<?xml version="1.0" encoding="UTF-8" standalone="no"?>
<!-- Created with Inkscape (http://www.inkscape.org/) -->

<svg
   xmlns:osb="http://www.openswatchbook.org/uri/2009/osb"
   xmlns:dc="http://purl.org/dc/elements/1.1/"
   xmlns:cc="http://creativecommons.org/ns#"
   xmlns:rdf="http://www.w3.org/1999/02/22-rdf-syntax-ns#"
   xmlns:svg="http://www.w3.org/2000/svg"
   xmlns="http://www.w3.org/2000/svg"
   xmlns:sodipodi="http://sodipodi.sourceforge.net/DTD/sodipodi-0.dtd"
   xmlns:inkscape="http://www.inkscape.org/namespaces/inkscape"
   width="48"
   height="48"
   viewBox="0 0 12.7 12.700001"
   version="1.1"
   id="svg845"
   inkscape:version="0.92.4 (5da689c313, 2019-01-14)"
   sodipodi:docname="sandMoldPreparation.svg"
   inkscape:export-filename="C:\Users\barto\Desktop\Work\Graphics\icons\sand_mold_preparation_248px.png"
   inkscape:export-xdpi="496"
   inkscape:export-ydpi="496">
  <defs
     id="defs839">
    <linearGradient
       id="linearGradient2950"
       osb:paint="solid">
      <stop
         style="stop-color:#ffffff;stop-opacity:1;"
         offset="0"
         id="stop2948" />
    </linearGradient>
  </defs>
  <sodipodi:namedview
     id="base"
     pagecolor="#ffffff"
     bordercolor="#666666"
     borderopacity="1.0"
     inkscape:pageopacity="0.0"
     inkscape:pageshadow="2"
     inkscape:zoom="11.313709"
     inkscape:cx="0.93662339"
     inkscape:cy="22.862791"
     inkscape:document-units="px"
     inkscape:current-layer="layer1"
     showgrid="false"
     inkscape:window-width="1920"
     inkscape:window-height="1057"
     inkscape:window-x="-8"
     inkscape:window-y="-8"
     inkscape:window-maximized="1"
     inkscape:pagecheckerboard="true"
     fit-margin-top="20"
     fit-margin-left="20"
     fit-margin-right="20"
     fit-margin-bottom="20"
     showguides="false"
     inkscape:guide-bbox="true"
     units="px"
     inkscape:snap-bbox="true"
     inkscape:bbox-paths="true"
     inkscape:bbox-nodes="true"
     inkscape:snap-page="true">
    <sodipodi:guide
       position="75.656283,138.44344"
       orientation="0.66262005,0.74895572"
       id="guide842"
       inkscape:locked="false"
       inkscape:label=""
       inkscape:color="rgb(0,0,255)" />
    <sodipodi:guide
       position="83.044957,138.37899"
       orientation="-0.66262005,0.74895572"
       id="guide844"
       inkscape:locked="false"
       inkscape:label=""
       inkscape:color="rgb(0,0,255)" />
    <sodipodi:guide
       position="73.462137,94.157618"
       orientation="1,0"
       id="guide830"
       inkscape:locked="false" />
    <sodipodi:guide
       position="73.642721,44.906004"
       orientation="0,1"
       id="guide832"
       inkscape:locked="false" />
    <sodipodi:guide
       position="76.463035,97.145259"
       orientation="1,0"
       id="guide834"
       inkscape:locked="false" />
    <sodipodi:guide
       position="82.762403,97.166789"
       orientation="1,0"
       id="guide836"
       inkscape:locked="false" />
    <sodipodi:guide
       position="85.774753,94.138148"
       orientation="1,0"
       id="guide838"
       inkscape:locked="false" />
    <sodipodi:guide
       position="85.774748,94.138153"
       orientation="0,1"
       id="guide840"
       inkscape:locked="false" />
    <sodipodi:guide
       position="76.463031,97.145264"
       orientation="0,1"
       id="guide843"
       inkscape:locked="false" />
    <sodipodi:guide
       position="1.0583334,1.0583334"
       orientation="1,0"
       inkscape:locked="false"
       id="guide4499"
       inkscape:label=""
       inkscape:color="rgb(0,0,255)" />
    <sodipodi:guide
       position="1.0583334,11.641667"
       orientation="0,1"
       inkscape:locked="false"
       id="guide4501"
       inkscape:label=""
       inkscape:color="rgb(0,0,255)" />
    <sodipodi:guide
       position="11.641667,11.641667"
       orientation="1,0"
       inkscape:locked="false"
       id="guide4503"
       inkscape:label=""
       inkscape:color="rgb(0,0,255)" />
    <sodipodi:guide
       position="11.641667,1.0583334"
       orientation="0,1"
       inkscape:locked="false"
       id="guide4505"
       inkscape:label=""
       inkscape:color="rgb(0,0,255)" />
  </sodipodi:namedview>
  <metadata
     id="metadata842">
    <rdf:RDF>
      <cc:Work
         rdf:about="">
        <dc:format>image/svg+xml</dc:format>
        <dc:type
           rdf:resource="http://purl.org/dc/dcmitype/StillImage" />
        <dc:title />
      </cc:Work>
    </rdf:RDF>
  </metadata>
  <g
     inkscape:label="Calque 1"
     inkscape:groupmode="layer"
     id="layer1"
     transform="translate(-22.302705,-227.68482)">
    <g
       id="g833">
      <path
         id="rect14377-8-7"
         transform="matrix(0.26458334,0,0,0.26458334,22.302705,227.68482)"
         d="M 20 16 L 20 22.839844 L 20.730469 24.105469 L 22.208984 26.666016 L 44 26.666016 L 44 16 L 41.333984 16 L 41.333984 21.333984 L 41.333984 22.667969 L 40.033203 22.667969 L 40.033203 24 L 37.302734 24 L 37.302734 22.667969 L 36 22.667969 L 36 21.333984 L 36 17.332031 L 33.333984 17.332031 L 30.666016 17.332031 L 28 17.332031 L 28 21.333984 L 28 22.667969 L 26.699219 22.667969 L 26.699219 24 L 23.96875 24 L 23.96875 22.667969 L 22.666016 22.667969 L 22.666016 21.333984 L 22.666016 16 L 20 16 z "
         style="opacity:1;fill:#ffffff;fill-opacity:1;stroke:none;stroke-width:0.58748978;stroke-linecap:round;stroke-linejoin:round;stroke-miterlimit:4;stroke-dasharray:none;stroke-dashoffset:0;stroke-opacity:1;paint-order:markers stroke fill" />
      <path
         id="rect14377-9-7"
         d="m 27.59437,228.74315 v 2.82222 h 0.705556 v -1.41077 -0.35277 h 0.34451 v -0.35313 h 0.722436 v 0.35313 h 0.344165 v 0.35277 1.058 h 0.705555 v -1.61472 l -1.480357,-0.85473 z m 5.008136,0 -1.480358,0.85473 v 1.61472 h 0.705556 v -1.058 -0.35277 h 0.344509 v -0.35313 h 0.722437 v 0.35313 h 0.344165 v 0.35277 1.41077 h 0.705555 v -2.82222 z"
         style="opacity:1;fill:#ffffff;fill-opacity:1;stroke:none;stroke-width:0.15544002;stroke-linecap:round;stroke-linejoin:round;stroke-miterlimit:4;stroke-dasharray:none;stroke-dashoffset:0;stroke-opacity:1;paint-order:markers stroke fill"
         inkscape:connector-curvature="0" />
      <path
         inkscape:connector-curvature="0"
         d="m 23.362138,237.20983 -0.0011,1.41111 c 0,0.38982 0.31229,0.70555 0.702109,0.70555 h 4.942338 c 0.389818,0 0.705553,-0.31573 0.705553,-0.70555 v -1.41111 h -0.705553 -1.411108 c 0,0.58385 -0.474485,1.05833 -1.05833,1.05833 -0.583846,0 -1.058331,-0.47448 -1.058331,-1.05833 h -1.414552 z m 3.175706,-3.91509 c -0.06091,-4.2e-4 -0.120869,0.0156 -0.173633,0.046 -0.05281,0.0307 -0.09612,0.0749 -0.126091,0.12816 l -0.0067,0.0114 c -2.12e-4,5.4e-4 -3.44e-4,6.9e-4 -5.17e-4,0.001 l -0.08992,0.15607 -0.03979,0.0677 -1.92133,3.32797 h 1.313098 0.178801 a 0.88194208,0.88194208 0 0 0 -0.01344,0.0884 0.88194208,0.88194208 0 0 0 -0.0041,0.0884 0.88194208,0.88194208 0 0 0 0.8816,0.8816 0.88194208,0.88194208 0 0 0 0.882116,-0.8816 0.88194208,0.88194208 0 0 0 0,-0.001 0.88194208,0.88194208 0 0 0 -0.01912,-0.17518 h 5.17e-4 0.179317 1.313615 l -1.960604,-3.39566 -0.112654,-0.19533 -0.0093,-0.0165 h -0.0041 c -0.06437,-0.0823 -0.163209,-0.13049 -0.267684,-0.13126 z m -0.525033,1.86707 c 0.14251,0 0.254013,0.0341 0.334347,0.10232 0.08033,0.0677 0.127771,0.16677 0.142627,0.29662 h -0.240812 c -0.011,-0.0688 -0.03542,-0.1195 -0.07338,-0.15141 -0.03742,-0.0319 -0.08952,-0.0475 -0.155546,-0.0475 -0.08418,0 -0.148218,0.0313 -0.192236,0.0946 -0.04402,0.0633 -0.06611,0.15776 -0.06666,0.28267 v 0.0765 c 0,0.126 0.02396,0.22139 0.07183,0.28577 0.04787,0.0644 0.117884,0.0966 0.210323,0.0966 0.09299,0 0.159338,-0.0198 0.198955,-0.0594 v -0.20723 h -0.22531 v -0.18241 h 0.47284 v 0.47955 c -0.04457,0.0534 -0.107702,0.0948 -0.189136,0.12454 -0.08143,0.0292 -0.171226,0.0439 -0.270268,0.0439 -0.103994,0 -0.195718,-0.0226 -0.274402,-0.0677 -0.07813,-0.0457 -0.138466,-0.11205 -0.181384,-0.19844 -0.04237,-0.0864 -0.06401,-0.18772 -0.06511,-0.30437 v -0.0816 c 0,-0.11995 0.01978,-0.2236 0.05994,-0.31109 0.04072,-0.088 0.09925,-0.15532 0.175184,-0.20154 0.07648,-0.0468 0.165857,-0.0703 0.2682,-0.0703 z m 1.10846,0 c 0.08584,0 0.162315,0.0157 0.229443,0.047 0.06713,0.0308 0.119197,0.0746 0.156063,0.13125 0.03742,0.0567 0.05581,0.12119 0.05581,0.19327 h -0.24753 c 0,-0.055 -0.01701,-0.0979 -0.05168,-0.12815 -0.03467,-0.0308 -0.08352,-0.046 -0.146244,-0.046 -0.06053,0 -0.107513,0.0129 -0.141077,0.0387 -0.03356,0.0253 -0.05064,0.059 -0.05064,0.10077 0,0.0391 0.01984,0.0718 0.05891,0.0982 0.03962,0.0264 0.09767,0.0513 0.17415,0.0744 0.140859,0.0424 0.243614,0.0949 0.307991,0.15761 0.06438,0.0627 0.09612,0.14056 0.09612,0.2341 0,0.10399 -0.03914,0.18604 -0.117823,0.24546 -0.07868,0.0589 -0.184654,0.0884 -0.31781,0.0884 -0.09244,0 -0.176766,-0.0171 -0.252698,-0.0506 -0.07593,-0.0341 -0.133982,-0.0807 -0.174149,-0.13953 -0.03962,-0.0589 -0.05943,-0.12706 -0.05943,-0.20464 h 0.248564 c 0,0.13261 0.07924,0.19895 0.237711,0.19895 0.05888,0 0.104962,-0.012 0.137976,-0.0357 0.03301,-0.0242 0.04961,-0.0579 0.04961,-0.10077 0,-0.0468 -0.0166,-0.0822 -0.04961,-0.10697 -0.03301,-0.0253 -0.09245,-0.0521 -0.178283,-0.0796 -0.08584,-0.0281 -0.154051,-0.0552 -0.204122,-0.0822 -0.136458,-0.0737 -0.204639,-0.17327 -0.204639,-0.29817 0,-0.0649 0.01846,-0.1225 0.05478,-0.17312 0.03686,-0.0512 0.08938,-0.0913 0.157613,-0.11989 0.06878,-0.0286 0.145708,-0.0429 0.230994,-0.0429 z m -1.639177,2.13786 c 0.0018,0.0211 0.0048,0.0417 0.0078,0.0625 a 1.0583305,1.0583305 0 0 1 -0.0078,-0.0625 z m 0.01344,0.10128 c 0.0042,0.0229 0.0093,0.0458 0.01499,0.0682 a 1.0583305,1.0583305 0 0 1 -0.01499,-0.0682 z m 0.02429,0.10335 c 0.0061,0.0211 0.01332,0.0415 0.02067,0.062 a 1.0583305,1.0583305 0 0 1 -0.02067,-0.062 z m 0.03514,0.10129 c 0.0071,0.0175 0.01528,0.0342 0.02325,0.0512 a 1.0583305,1.0583305 0 0 1 -0.02325,-0.0512 z m 0.04496,0.0966 c 0.0079,0.015 0.01672,0.0293 0.02532,0.0439 a 1.0583305,1.0583305 0 0 1 -0.02532,-0.0439 z m 1.837098,0.0599 a 1.0583305,1.0583305 0 0 1 -0.02532,0.0413 c 0.0091,-0.0134 0.0168,-0.0274 0.02532,-0.0413 z m -1.783871,0.03 c 0.0085,0.0129 0.01781,0.0253 0.02687,0.0377 a 1.0583305,1.0583305 0 0 1 -0.02687,-0.0377 z m 0.06305,0.0858 c 0.0079,0.01 0.01653,0.0184 0.02481,0.0279 a 1.0583305,1.0583305 0 0 1 -0.02481,-0.0279 z m 1.590601,0.0548 a 1.0583305,1.0583305 0 0 1 -0.02739,0.0295 c 0.0095,-0.009 0.01822,-0.0197 0.02739,-0.0295 z m -1.523421,0.0202 c 0.0094,0.01 0.01969,0.0188 0.02946,0.0279 a 1.0583305,1.0583305 0 0 1 -0.02946,-0.0279 z m 1.449007,0.0517 a 1.0583305,1.0583305 0 0 1 -0.02842,0.0248 c 0.0097,-0.008 0.01899,-0.0165 0.02842,-0.0248 z m -0.07648,0.0615 a 1.0583305,1.0583305 0 0 1 -0.03721,0.0269 c 0.01287,-0.009 0.02474,-0.0178 0.03721,-0.0269 z m -1.213879,0.0196 c 0.01343,0.009 0.028,0.0168 0.04186,0.0253 a 1.0583305,1.0583305 0 0 1 -0.04186,-0.0253 z m 1.130163,0.0351 a 1.0583305,1.0583305 0 0 1 -0.04393,0.0248 c 0.015,-0.008 0.02936,-0.0162 0.04393,-0.0248 z m -0.08888,0.0465 a 1.0583305,1.0583305 0 0 1 -0.05168,0.0233 c 0.01749,-0.007 0.03468,-0.0153 0.05168,-0.0233 z m -0.09095,0.0377 a 1.0583305,1.0583305 0 0 1 -0.06201,0.0207 c 0.02104,-0.006 0.04153,-0.0133 0.06201,-0.0207 z m -0.09715,0.03 a 1.0583305,1.0583305 0 0 1 -0.06821,0.015 c 0.02296,-0.004 0.04579,-0.009 0.06821,-0.015 z m -0.10697,0.0212 a 1.0583305,1.0583305 0 0 1 -0.06253,0.008 c 0.02113,-0.002 0.04177,-0.005 0.06253,-0.008 z"
         style="fill:#ffffff;stroke-width:0.1763884"
         id="path2-3-1-03" />
    </g>
  </g>
</svg>
