<?xml version="1.0" encoding="UTF-8" standalone="no"?>
<svg
   xmlns:dc="http://purl.org/dc/elements/1.1/"
   xmlns:cc="http://creativecommons.org/ns#"
   xmlns:rdf="http://www.w3.org/1999/02/22-rdf-syntax-ns#"
   xmlns:svg="http://www.w3.org/2000/svg"
   xmlns="http://www.w3.org/2000/svg"
   xmlns:sodipodi="http://sodipodi.sourceforge.net/DTD/sodipodi-0.dtd"
   xmlns:inkscape="http://www.inkscape.org/namespaces/inkscape"
   viewBox="0 0 64 64"
   width="48"
   height="48"
   version="1.1"
   id="svg6"
   sodipodi:docname="search.svg"
   style="fill:#ffffff"
   inkscape:export-filename="C:\Users\barto\Desktop\Work\Graphics\icons\search.png"
   inkscape:export-xdpi="96"
   inkscape:export-ydpi="96"
   inkscape:version="0.92.4 (5da689c313, 2019-01-14)">
  <metadata
     id="metadata12">
    <rdf:RDF>
      <cc:Work
         rdf:about="">
        <dc:format>image/svg+xml</dc:format>
        <dc:type
           rdf:resource="http://purl.org/dc/dcmitype/StillImage" />
        <dc:title></dc:title>
      </cc:Work>
    </rdf:RDF>
  </metadata>
  <defs
     id="defs10" />
  <sodipodi:namedview
     pagecolor="#ffffff"
     bordercolor="#666666"
     borderopacity="1"
     objecttolerance="10"
     gridtolerance="10"
     guidetolerance="10"
     inkscape:pageopacity="0"
     inkscape:pageshadow="2"
     inkscape:window-width="1920"
     inkscape:window-height="1057"
     id="namedview8"
     showgrid="false"
     inkscape:pagecheckerboard="true"
     fit-margin-top="0"
     fit-margin-left="0"
     fit-margin-right="0"
     fit-margin-bottom="0"
     inkscape:zoom="9.2709556"
     inkscape:cx="27.756427"
     inkscape:cy="21.033411"
     inkscape:window-x="-8"
     inkscape:window-y="-8"
     inkscape:window-maximized="1"
     inkscape:current-layer="svg6" />
  <path
     d="m -3,43.51 h 24 v 24 H -3 Z"
     id="path2"
     inkscape:connector-curvature="0"
     style="fill:none" />
  <path
     d="m 41.160282,37.501048 h -1.927196 l -0.683057,-0.658663 c 2.390699,-2.781017 3.829998,-6.391461 3.829998,-10.319038 0,-8.757767 -7.098913,-15.856679 -15.85668,-15.856679 -8.757766,0 -15.85668,7.098912 -15.85668,15.856679 0,8.757765 7.098914,15.856679 15.856679,15.856679 3.927578,0 7.538022,-1.439299 10.319039,-3.829999 l 0.658662,0.683057 v 1.927197 l 12.197447,12.173051 3.634839,-3.634839 z m -14.636935,0 c -6.074328,0 -10.977701,-4.903374 -10.977701,-10.977701 0,-6.074329 4.903373,-10.977702 10.977701,-10.977702 6.074327,0 10.9777,4.903373 10.9777,10.977702 0,6.074327 -4.903373,10.977701 -10.9777,10.977701 z"
     id="path4"
     inkscape:connector-curvature="0"
     style="stroke-width:2.13455296" />
</svg>
