<?xml version="1.0" encoding="UTF-8" standalone="no"?>
<svg
   xmlns:dc="http://purl.org/dc/elements/1.1/"
   xmlns:cc="http://creativecommons.org/ns#"
   xmlns:rdf="http://www.w3.org/1999/02/22-rdf-syntax-ns#"
   xmlns:svg="http://www.w3.org/2000/svg"
   xmlns="http://www.w3.org/2000/svg"
   xmlns:sodipodi="http://sodipodi.sourceforge.net/DTD/sodipodi-0.dtd"
   xmlns:inkscape="http://www.inkscape.org/namespaces/inkscape"
   width="48"
   height="48"
   viewBox="0 0 48 48"
   version="1.1"
   id="svg4"
   sodipodi:docname="setpoint_dies.svg"
   inkscape:version="0.92.4 (5da689c313, 2019-01-14)"
   inkscape:export-filename="C:\Users\barto\Desktop\Work\Graphics\icons\setpoint_dies_56px.png"
   inkscape:export-xdpi="112"
   inkscape:export-ydpi="112">
  <metadata
     id="metadata10">
    <rdf:RDF>
      <cc:Work
         rdf:about="">
        <dc:format>image/svg+xml</dc:format>
        <dc:type
           rdf:resource="http://purl.org/dc/dcmitype/StillImage" />
        <dc:title></dc:title>
      </cc:Work>
    </rdf:RDF>
  </metadata>
  <defs
     id="defs8" />
  <sodipodi:namedview
     pagecolor="#ffffff"
     bordercolor="#666666"
     borderopacity="1"
     objecttolerance="10"
     gridtolerance="10"
     guidetolerance="10"
     inkscape:pageopacity="0"
     inkscape:pageshadow="2"
     inkscape:window-width="1920"
     inkscape:window-height="1057"
     id="namedview6"
     showgrid="false"
     inkscape:pagecheckerboard="true"
     inkscape:zoom="8"
     inkscape:cx="-3.821566"
     inkscape:cy="5.6132512"
     inkscape:window-x="-8"
     inkscape:window-y="-8"
     inkscape:window-maximized="1"
     inkscape:current-layer="svg4"
     fit-margin-top="0"
     fit-margin-left="0"
     fit-margin-right="0"
     fit-margin-bottom="0" />
  <g
     id="g831"
     transform="matrix(1.2,0,0,1.2,-4.8,-4.8)"
     style="stroke-width:0.83333331">
    <path
       id="path841"
       d="M 22.181641,4 V 7.7441406 C 14.599823,8.5805042 8.5805042,14.599823 7.7441406,22.181641 H 4 v 3.636718 h 3.7441406 c 0.8363636,7.581818 6.8556824,13.601137 14.4375004,14.4375 V 44 h 3.636718 V 40.255859 C 26.338973,40.19843 26.849483,40.106742 27.353516,40 V 36.257812 C 26.284931,36.556365 25.164292,36.726562 24,36.726562 16.972727,36.726562 11.273434,31.027273 11.273438,24 c 0,-7.027273 5.699289,-12.726566 12.726562,-12.726562 7.027273,0 12.726562,5.699289 12.726562,12.726562 0,1.003355 -0.127345,1.974098 -0.351562,2.908203 h 3.707031 c 0.06595,-0.360854 0.133115,-0.72076 0.173828,-1.089844 H 44 V 22.181641 H 40.255859 C 39.419496,14.599823 33.400177,8.5805042 25.818359,7.7441406 V 4 Z"
       style="fill:#ffffff;stroke-width:0.75757575"
       inkscape:connector-curvature="0" />
    <path
       style="fill:#ffffff;stroke-width:0.37878788"
       inkscape:connector-curvature="0"
       id="path849"
       d="m 24,20.363636 c -2.009091,0 -3.636364,1.627273 -3.636364,3.636364 0,2.009091 1.627273,3.636364 3.636364,3.636364 2.009091,0 3.636364,-1.627273 3.636364,-3.636364 0,-2.009091 -1.627273,-3.636364 -3.636364,-3.636364 z" />
    <path
       id="rect853"
       d="m 22.181818,4 v 14.545455 h 0.0071 C 22.758925,18.356334 23.366325,18.25071 24,18.25071 c 0.633675,0 1.241075,0.105624 1.81108,0.294745 h 0.0071 V 4 Z"
       style="opacity:1;fill:#ffffff;fill-opacity:1;stroke:none;stroke-width:5.97380829;stroke-linecap:round;stroke-linejoin:round;stroke-miterlimit:4;stroke-dasharray:none;stroke-opacity:1;paint-order:markers stroke fill"
       inkscape:connector-curvature="0" />
    <path
       id="rect853-7"
       d="M 22.181818,29.454545 V 44 h 3.636364 V 29.454545 h -0.0071 C 25.241075,29.643666 24.633675,29.74929 24,29.74929 c -0.633675,0 -1.241075,-0.105624 -1.81108,-0.294745 z"
       style="opacity:1;fill:#ffffff;fill-opacity:1;stroke:none;stroke-width:5.97380829;stroke-linecap:round;stroke-linejoin:round;stroke-miterlimit:4;stroke-dasharray:none;stroke-opacity:1;paint-order:markers stroke fill"
       inkscape:connector-curvature="0" />
    <path
       id="rect853-8"
       d="m 4,22.181818 v 3.636364 h 14.545455 v -0.0071 C 18.356334,25.241075 18.25071,24.633675 18.25071,24 c 0,-0.633675 0.105624,-1.241075 0.294745,-1.81108 v -0.0071 z"
       style="opacity:1;fill:#ffffff;fill-opacity:1;stroke:none;stroke-width:5.97380829;stroke-linecap:round;stroke-linejoin:round;stroke-miterlimit:4;stroke-dasharray:none;stroke-opacity:1;paint-order:markers stroke fill"
       inkscape:connector-curvature="0" />
    <path
       id="rect853-8-5"
       d="m 29.454545,22.181818 v 0.0071 c 0.189121,0.570005 0.294745,1.177405 0.294745,1.81108 0,0.633676 -0.105624,1.241076 -0.294745,1.81108 v 0.0071 H 44 v -3.636364 z"
       style="opacity:1;fill:#ffffff;fill-opacity:1;stroke:none;stroke-width:5.97380829;stroke-linecap:round;stroke-linejoin:round;stroke-miterlimit:4;stroke-dasharray:none;stroke-opacity:1;paint-order:markers stroke fill"
       inkscape:connector-curvature="0" />
    <g
       style="fill:#ffffff;stroke-width:0.83333331"
       transform="matrix(0.33332877,0,0,0.33332877,10.763587,21.492611)"
       id="g2094">
      <path
         style="opacity:1;fill:#ffffff;fill-opacity:1;stroke:none;stroke-width:1.40243781;stroke-linecap:round;stroke-linejoin:round;stroke-miterlimit:4;stroke-dasharray:none;stroke-dashoffset:0;stroke-opacity:1;paint-order:markers stroke fill"
         d="m 55.4375,22.250245 v 35.984391 h 9.999999 v 0.01512 h 6 V 54.249767 H 69.437502 61.4375 V 52.29662 H 59.439453 V 48.202863 H 61.4375 v -1.953109 h 7.953124 V 42.249766 H 61.4375 V 40.298585 H 59.439453 V 36.202862 H 61.4375 v -1.953109 h 7.951174 v -2.300787 l -3.513672,-3.689461 v -6.009752 z"
         id="rect9336-5-0-2-7"
         inkscape:connector-curvature="0" />
      <path
         style="opacity:1;fill:#ffffff;fill-opacity:1;stroke:none;stroke-width:1.40243781;stroke-linecap:round;stroke-linejoin:round;stroke-miterlimit:4;stroke-dasharray:none;stroke-dashoffset:0;stroke-opacity:1;paint-order:markers stroke fill"
         d="m 79.000002,22.250245 v 6.009751 l -3.513672,3.689462 v 2.300787 h 5.953122 2.000002 v 1.953109 h 2.000001 l -0.002,4.095723 h -1.998047 v 1.951181 h -2.000002 v 3.999987 H 83.4375 v 1.953109 h 2.001955 l -0.002,4.093758 H 83.4375 v 1.953146 h -7.999998 -2.000001 v 3.999988 h 6 v -0.01512 H 89.4375 V 22.250736 Z M 75.48633,42.250258 v 3.999987 h 5.951172 v -3.999987 z"
         id="rect9336-5-0-2-2-1"
         inkscape:connector-curvature="0" />
    </g>
    <ellipse
       ry="3.6733117"
       rx="7.1025047"
       cy="30.582405"
       cx="34.982742"
       id="path1576-6-5-3-6-2-7-4-2-7-0-1"
       style="opacity:0.79040061;fill:none;fill-opacity:1;stroke:none;stroke-width:1.71030319;stroke-linecap:round;stroke-linejoin:round;stroke-miterlimit:4;stroke-dasharray:none;stroke-dashoffset:0;stroke-opacity:1;paint-order:markers stroke fill" />
  </g>
</svg>
