<?xml version="1.0" encoding="UTF-8" standalone="no"?>
<svg
   height="48"
   width="48"
   version="1.1"
   id="svg4"
   sodipodi:docname="thermometer_48px.svg"
   inkscape:export-filename="C:\Users\M4800\Documents\AGH-LOCAL\LAB_INFORMATICS\00_PROJECT\Home-Monitoring-System\GUI\images\temperature_icon.png"
   inkscape:export-xdpi="26.3736"
   inkscape:export-ydpi="26.3736"
   inkscape:version="1.1.2 (b8e25be833, 2022-02-05)"
   xmlns:inkscape="http://www.inkscape.org/namespaces/inkscape"
   xmlns:sodipodi="http://sodipodi.sourceforge.net/DTD/sodipodi-0.dtd"
   xmlns="http://www.w3.org/2000/svg"
   xmlns:svg="http://www.w3.org/2000/svg">
  <defs
     id="defs8" />
  <sodipodi:namedview
     id="namedview6"
     pagecolor="#505050"
     bordercolor="#ffffff"
     borderopacity="1"
     inkscape:pageshadow="0"
     inkscape:pageopacity="0"
     inkscape:pagecheckerboard="1"
     showgrid="false"
     inkscape:zoom="8.4166665"
     inkscape:cx="6.2970298"
     inkscape:cy="21.564357"
     inkscape:window-width="1920"
     inkscape:window-height="1001"
     inkscape:window-x="-9"
     inkscape:window-y="-9"
     inkscape:window-maximized="1"
     inkscape:current-layer="svg4"
     showguides="false" />
  <path
     d="M24 42Q20.25 42 17.575 39.325Q14.9 36.65 14.9 32.9Q14.9 30.5 16.1 28.35Q17.3 26.2 19.4 24.9V10.6Q19.4 8.7 20.75 7.35Q22.1 6 24 6Q25.9 6 27.25 7.35Q28.6 8.7 28.6 10.6V24.9Q30.7 26.2 31.9 28.35Q33.1 30.5 33.1 32.9Q33.1 36.65 30.425 39.325Q27.75 42 24 42ZM24 39.05Q26.4 39.05 28.25 37.175Q30.1 35.3 30.1 32.9Q30.1 31.15 29.15 29.425Q28.2 27.7 26.6 27L25.6 26.55V10.6Q25.6 9.9 25.15 9.45Q24.7 9 24 9Q23.3 9 22.85 9.45Q22.4 9.9 22.4 10.6V26.55L21.4 27Q19.8 27.7 18.85 29.425Q17.9 31.15 17.9 32.9Q17.9 35.3 19.75 37.175Q21.6 39.05 24 39.05Z"
     id="path2"
     style="fill:#ffffff;fill-opacity:1"
     inkscape:export-filename="C:\Users\M4800\Documents\AGH-LOCAL\LAB_INFORMATICS\00_PROJECT\Home-Monitoring-System\GUI\images\temperature_icon.png"
     inkscape:export-xdpi="1054.9451"
     inkscape:export-ydpi="1054.9451" />
</svg>
