<?xml version="1.0" encoding="UTF-8" standalone="no"?>
<svg
   xmlns:dc="http://purl.org/dc/elements/1.1/"
   xmlns:cc="http://creativecommons.org/ns#"
   xmlns:rdf="http://www.w3.org/1999/02/22-rdf-syntax-ns#"
   xmlns:svg="http://www.w3.org/2000/svg"
   xmlns="http://www.w3.org/2000/svg"
   xmlns:sodipodi="http://sodipodi.sourceforge.net/DTD/sodipodi-0.dtd"
   xmlns:inkscape="http://www.inkscape.org/namespaces/inkscape"
   width="48"
   height="48"
   viewBox="0 0 48 48"
   version="1.1"
   id="svg4"
   sodipodi:docname="time.svg"
   inkscape:export-filename="C:\Users\barto\Desktop\Work\Graphics\icons\time_56px.png"
   inkscape:export-xdpi="112"
   inkscape:export-ydpi="112"
   inkscape:version="0.92.4 (5da689c313, 2019-01-14)">
  <metadata
     id="metadata10">
    <rdf:RDF>
      <cc:Work
         rdf:about="">
        <dc:format>image/svg+xml</dc:format>
        <dc:type
           rdf:resource="http://purl.org/dc/dcmitype/StillImage" />
        <dc:title></dc:title>
      </cc:Work>
    </rdf:RDF>
  </metadata>
  <defs
     id="defs8" />
  <sodipodi:namedview
     pagecolor="#ffffff"
     bordercolor="#666666"
     borderopacity="1"
     objecttolerance="10"
     gridtolerance="10"
     guidetolerance="10"
     inkscape:pageopacity="0"
     inkscape:pageshadow="2"
     inkscape:window-width="1920"
     inkscape:window-height="1057"
     id="namedview6"
     showgrid="false"
     inkscape:pagecheckerboard="true"
     inkscape:zoom="13.906433"
     inkscape:cx="6.4495374"
     inkscape:cy="20.803126"
     inkscape:window-x="-8"
     inkscape:window-y="-8"
     inkscape:window-maximized="1"
     inkscape:current-layer="svg4"
     fit-margin-top="0"
     fit-margin-left="0"
     fit-margin-right="0"
     fit-margin-bottom="0" />
  <path
     d="M 23.988,0 C 10.728,0 0,10.74 0,24 0,37.26 10.728,48 23.988,48 37.248,48 48,37.26 48,24 48,10.74 37.248,0 23.988,0 Z M 24,43.2 C 13.392,43.2 4.8,34.608 4.8,24 4.8,13.392 13.392,4.8 24,4.8 34.608,4.8 43.2,13.392 43.2,24 43.2,34.608 34.608,43.2 24,43.2 Z M 25.2,12 H 21.6 V 26.4 L 34.188,33.96 36,31.008 25.2,24.6 Z"
     id="path2"
     style="fill:#ffffff;stroke-width:1"
     inkscape:connector-curvature="0" />
</svg>
