<?xml version="1.0" encoding="UTF-8" standalone="no"?>
<svg
   xmlns:dc="http://purl.org/dc/elements/1.1/"
   xmlns:cc="http://creativecommons.org/ns#"
   xmlns:rdf="http://www.w3.org/1999/02/22-rdf-syntax-ns#"
   xmlns:svg="http://www.w3.org/2000/svg"
   xmlns="http://www.w3.org/2000/svg"
   xmlns:sodipodi="http://sodipodi.sourceforge.net/DTD/sodipodi-0.dtd"
   xmlns:inkscape="http://www.inkscape.org/namespaces/inkscape"
   viewBox="0 0 64 64"
   width="48"
   height="48"
   version="1.1"
   id="svg8"
   sodipodi:docname="unpair_48px.svg"
   style="fill:#ffffff"
   inkscape:version="0.92.4 (5da689c313, 2019-01-14)"
   inkscape:export-filename="C:\Users\barto\Desktop\Work\Graphics\icons\redone\unpair_48px.png"
   inkscape:export-xdpi="96"
   inkscape:export-ydpi="96">
  <metadata
     id="metadata14">
    <rdf:RDF>
      <cc:Work
         rdf:about="">
        <dc:format>image/svg+xml</dc:format>
        <dc:type
           rdf:resource="http://purl.org/dc/dcmitype/StillImage" />
        <dc:title></dc:title>
      </cc:Work>
    </rdf:RDF>
  </metadata>
  <defs
     id="defs12" />
  <sodipodi:namedview
     pagecolor="#ffffff"
     bordercolor="#666666"
     borderopacity="1"
     objecttolerance="10"
     gridtolerance="10"
     guidetolerance="10"
     inkscape:pageopacity="0"
     inkscape:pageshadow="2"
     inkscape:window-width="1920"
     inkscape:window-height="1057"
     id="namedview10"
     showgrid="false"
     inkscape:pagecheckerboard="true"
     inkscape:zoom="9.2709556"
     inkscape:cx="20.351838"
     inkscape:cy="17.990381"
     inkscape:window-x="-8"
     inkscape:window-y="-8"
     inkscape:window-maximized="1"
     inkscape:current-layer="svg8" />
  <path
     d="M 0,40 H 24 V 64 H 0 Z"
     id="path2"
     inkscape:connector-curvature="0"
     style="fill:none" />
  <path
     d="M 45.333334,18.666667 H 34.666667 v 5.066667 H 45.333334 C 49.893334,23.733334 53.6,27.44 53.6,32 c 0,3.813334 -2.613333,7.013334 -6.16,7.946667 l 3.893334,3.893334 C 55.68,41.626667 58.666667,37.2 58.666667,32 c 0,-7.36 -5.973333,-13.333333 -13.333333,-13.333333 z m -2.666667,10.666667 h -5.84 L 42.16,34.666667 h 0.506667 z M 5.333333,11.386667 13.626667,19.68 C 8.773333,21.653334 5.333333,26.426667 5.333333,32 c 0,7.36 5.973333,13.333334 13.333334,13.333334 H 29.333333 V 40.266667 H 18.666667 C 14.106667,40.266667 10.4,36.56 10.4,32 c 0,-4.24 3.226667,-7.733333 7.36,-8.186666 l 5.52,5.52 h -1.946667 v 5.333333 h 7.28 l 6.053334,6.053334 v 4.613333 H 39.28 L 49.973334,56 l 3.36,-3.36 L 8.7199997,7.9999995 Z"
     id="path4"
     inkscape:connector-curvature="0"
     style="stroke-width:1" />
  <path
     d="M 0,64 V 40"
     id="path6"
     inkscape:connector-curvature="0"
     style="fill:none" />
</svg>
