<?xml version="1.0" encoding="UTF-8" standalone="no"?>
<!-- Created with Inkscape (http://www.inkscape.org/) -->

<svg
   xmlns:dc="http://purl.org/dc/elements/1.1/"
   xmlns:cc="http://creativecommons.org/ns#"
   xmlns:rdf="http://www.w3.org/1999/02/22-rdf-syntax-ns#"
   xmlns:svg="http://www.w3.org/2000/svg"
   xmlns="http://www.w3.org/2000/svg"
   xmlns:sodipodi="http://sodipodi.sourceforge.net/DTD/sodipodi-0.dtd"
   xmlns:inkscape="http://www.inkscape.org/namespaces/inkscape"
   width="48"
   height="48"
   id="svg2186"
   sodipodi:version="0.32"
   inkscape:version="0.92.4 (5da689c313, 2019-01-14)"
   version="1.0"
   sodipodi:docname="vacuum_pump.svg"
   inkscape:output_extension="org.inkscape.output.svg.inkscape"
   inkscape:export-filename="C:\Users\barto\Desktop\Work\Graphics\icons\vacuum_pump_48px.png"
   inkscape:export-xdpi="96"
   inkscape:export-ydpi="96">
  <defs
     id="defs2188" />
  <sodipodi:namedview
     id="base"
     pagecolor="#ffffff"
     bordercolor="#666666"
     borderopacity="1.0"
     gridtolerance="10"
     guidetolerance="10"
     objecttolerance="10"
     inkscape:pageopacity="0.0"
     inkscape:pageshadow="2"
     inkscape:zoom="11.124979"
     inkscape:cx="6.0083954"
     inkscape:cy="26.086574"
     inkscape:document-units="mm"
     inkscape:current-layer="layer1"
     width="20mm"
     height="20mm"
     units="mm"
     inkscape:window-width="1920"
     inkscape:window-height="1057"
     inkscape:window-x="-8"
     inkscape:window-y="-8"
     showgrid="false"
     inkscape:pagecheckerboard="true"
     inkscape:window-maximized="1">
    <inkscape:grid
       type="xygrid"
       id="grid2200"
       spacingx="3.5433071"
       spacingy="3.5433071"
       units="mm"
       originx="0"
       originy="0" />
  </sodipodi:namedview>
  <metadata
     id="metadata2191">
    <rdf:RDF>
      <cc:Work
         rdf:about="">
        <dc:format>image/svg+xml</dc:format>
        <dc:type
           rdf:resource="http://purl.org/dc/dcmitype/StillImage" />
        <dc:title></dc:title>
      </cc:Work>
    </rdf:RDF>
  </metadata>
  <g
     inkscape:label="Layer 1"
     inkscape:groupmode="layer"
     id="layer1"
     transform="translate(0,-22.866145)">
    <circle
       r="0"
       cy="24.80315"
       cx="42.519684"
       style="fill:#ffffff;fill-opacity:1;stroke:#000000;stroke-width:0.26220471;stroke-miterlimit:4;stroke-dasharray:none;stroke-opacity:1"
       id="path2787" />
    <g
       id="g1053"
       transform="matrix(0.79999852,0,0,0.79999852,-6.1210223,19.509944)"
       style="fill:#ffffff;stroke-width:1.25000226">
      <path
         style="opacity:1;fill:#ffffff;fill-opacity:1;stroke:none;stroke-width:10.62994099;stroke-linecap:round;stroke-linejoin:round;stroke-miterlimit:4;stroke-dasharray:none;stroke-dashoffset:0;stroke-opacity:1;paint-order:markers stroke fill"
         d="m 37.652344,14.195312 c -1.201825,0 -2.377253,0.113863 -3.521485,0.31836 -0.01747,0.0025 -0.03545,0.0028 -0.05273,0.0059 l -0.002,0.0039 c -9.322656,1.693105 -16.423828,9.87086 -16.423828,19.671874 0,3.024913 0.695201,5.885309 1.904297,8.458985 l -0.0098,0.01563 c 0.14187,0.303413 0.293424,0.601423 0.449219,0.896484 0.04307,0.08076 0.08477,0.162084 0.128906,0.242188 0.02107,0.03824 0.04706,0.07324 0.06836,0.111328 0.26766,0.481695 0.552904,0.951635 0.857422,1.408203 0.01342,0.01994 0.02557,0.04066 0.03906,0.06055 0.288345,0.428902 0.587075,0.850167 0.908203,1.253906 l 0.01172,-0.02344 c 3.668251,4.607967 9.313343,7.576171 15.642578,7.576171 6.328255,0 11.972326,-2.967472 15.640625,-7.574218 l 0.01172,0.02344 c 0.319732,-0.401873 0.617134,-0.821197 0.904296,-1.248047 0.01846,-0.02719 0.03636,-0.05475 0.05469,-0.08203 0.321354,-0.478312 0.620428,-0.972325 0.90039,-1.478515 0.05835,-0.105493 0.111486,-0.213674 0.167969,-0.320313 0.0034,-0.0064 0.0064,-0.0131 0.0098,-0.01953 0.142487,-0.271947 0.283523,-0.545131 0.414062,-0.824219 l -0.0078,-0.01563 c 1.209565,-2.574085 1.904297,-5.435401 1.904297,-8.460938 0,-9.801797 -7.102026,-17.981625 -16.425782,-19.673828 l -0.002,-0.002 c -0.01736,-0.0031 -0.03536,-0.0047 -0.05273,-0.0078 -0.553984,-0.09894 -1.115027,-0.176421 -1.683594,-0.228516 -0.02658,-0.0024 -0.05347,-0.0035 -0.08008,-0.0059 -0.579127,-0.05072 -1.163865,-0.08203 -1.755859,-0.08203 z m 0,4 c 0.33554,0 0.663829,0.02864 0.99414,0.04883 l 12.589844,24.394531 c 0.906023,-1.458144 1.583924,-3.070708 1.984375,-4.794922 -0.400384,1.724382 -1.078317,3.336722 -1.984375,4.794922 -2.818823,4.536583 -7.831073,7.55664 -13.583984,7.55664 -5.753874,0 -10.767383,-3.020741 -13.585938,-7.558593 -0.915717,-1.474298 -1.599716,-3.105837 -1.998047,-4.851563 -0.263584,-1.155184 -0.416015,-2.352842 -0.416015,-3.589844 0,-6.700247 4.085871,-12.409899 9.908203,-14.798828 l -9.492188,18.388672 c 0.398331,1.745726 1.08233,3.377265 1.998047,4.851563 L 36.65625,18.246094 v -0.002 c 0.330948,-0.02026 0.659895,-0.04883 0.996094,-0.04883 z m -1.015625,0.05078 c -0.422931,0.02639 -0.840471,0.06969 -1.253907,0.126953 0.413443,-0.05845 0.830752,-0.100534 1.253907,-0.126953 z m 2.027343,0 c 0.425786,0.02648 0.845765,0.06805 1.261719,0.126953 -0.415767,-0.05779 -0.836302,-0.100508 -1.261719,-0.126953 z m 1.394532,0.148437 c 0.401427,0.06029 0.798522,0.12939 1.189453,0.21875 -0.391095,-0.08794 -0.787916,-0.15957 -1.189453,-0.21875 z m -4.824219,0.002 c -0.393798,0.05823 -0.784205,0.128982 -1.167969,0.214844 0.38396,-0.08751 0.773888,-0.15536 1.167969,-0.214844 z m 6.142578,0.25 c 0.812421,0.192874 1.604698,0.437038 2.363281,0.748047 5.824462,2.387951 9.91211,8.099 9.91211,14.800781 0,1.237663 -0.152158,2.436048 -0.416016,3.591797 L 43.740234,19.394531 C 42.981414,19.083425 42.19011,18.83651 41.376953,18.646484 Z m -7.539062,0.02148 c -0.639032,0.152976 -1.25948,0.349684 -1.865235,0.578125 0.6051,-0.22901 1.227231,-0.422743 1.865235,-0.578125 z m -16.5,28.28125 -0.0059,0.01172 0.01953,0.0098 c -0.0045,-0.0072 -0.0091,-0.0143 -0.01367,-0.02148 z m 40.626953,0.002 c -0.004,0.0064 -0.0077,0.01312 -0.01172,0.01953 l 0.01758,-0.0098 z"
         id="rect861-2"
         inkscape:connector-curvature="0" />
    </g>
  </g>
</svg>
