<?xml version="1.0" encoding="UTF-8" standalone="no"?>
<svg
   xmlns:dc="http://purl.org/dc/elements/1.1/"
   xmlns:cc="http://creativecommons.org/ns#"
   xmlns:rdf="http://www.w3.org/1999/02/22-rdf-syntax-ns#"
   xmlns:svg="http://www.w3.org/2000/svg"
   xmlns="http://www.w3.org/2000/svg"
   xmlns:sodipodi="http://sodipodi.sourceforge.net/DTD/sodipodi-0.dtd"
   xmlns:inkscape="http://www.inkscape.org/namespaces/inkscape"
   viewBox="0 0 64 64"
   width="48"
   height="48"
   version="1.1"
   id="svg6"
   sodipodi:docname="video_feed_turn_off.svg"
   style="fill:#ffffff"
   inkscape:export-filename="C:\Users\barto\Downloads\video_feed_off_48px.png"
   inkscape:export-xdpi="96"
   inkscape:export-ydpi="96"
   inkscape:version="0.92.4 (5da689c313, 2019-01-14)">
  <metadata
     id="metadata12">
    <rdf:RDF>
      <cc:Work
         rdf:about="">
        <dc:format>image/svg+xml</dc:format>
        <dc:type
           rdf:resource="http://purl.org/dc/dcmitype/StillImage" />
        <dc:title />
      </cc:Work>
    </rdf:RDF>
  </metadata>
  <defs
     id="defs10" />
  <sodipodi:namedview
     pagecolor="#ffffff"
     bordercolor="#666666"
     borderopacity="1"
     objecttolerance="10"
     gridtolerance="10"
     guidetolerance="10"
     inkscape:pageopacity="0"
     inkscape:pageshadow="2"
     inkscape:window-width="1920"
     inkscape:window-height="1057"
     id="namedview8"
     showgrid="false"
     inkscape:pagecheckerboard="true"
     inkscape:zoom="13.111111"
     inkscape:cx="8.7361306"
     inkscape:cy="21.986034"
     inkscape:window-x="-8"
     inkscape:window-y="-8"
     inkscape:window-maximized="1"
     inkscape:current-layer="svg6" />
  <path
     d="M 0,40 H 24 V 64 H 0 Z"
     id="path2"
     inkscape:connector-curvature="0"
     style="fill:none" />
  <g
     style="opacity:1;fill:#ffffff"
     id="g1392"
     transform="matrix(2.075,0,0,2.075,7.1,7.1)">
    <path
       id="path1378"
       d="M 0,0 H 24 V 24 H 0 Z M 0,0 H 24 V 24 H 0 Z"
       inkscape:connector-curvature="0"
       style="fill:none" />
    <path
       id="path1380"
       d="m 21,6.5 -4,4 V 7 C 17,6.45 16.55,6 16,6 H 9.82 L 21,17.18 Z M 3.27,2 2,3.27 4.73,6 H 4 C 3.45,6 3,6.45 3,7 v 10 c 0,0.55 0.45,1 1,1 h 12 c 0.21,0 0.39,-0.08 0.54,-0.18 L 19.73,21 21,19.73 Z"
       inkscape:connector-curvature="0"
       style="fill:#ffffff" />
  </g>
</svg>
