<?xml version="1.0" encoding="UTF-8" standalone="no"?>
<!-- Created with Inkscape (http://www.inkscape.org/) -->

<svg
   xmlns:dc="http://purl.org/dc/elements/1.1/"
   xmlns:cc="http://creativecommons.org/ns#"
   xmlns:rdf="http://www.w3.org/1999/02/22-rdf-syntax-ns#"
   xmlns:svg="http://www.w3.org/2000/svg"
   xmlns="http://www.w3.org/2000/svg"
   xmlns:sodipodi="http://sodipodi.sourceforge.net/DTD/sodipodi-0.dtd"
   xmlns:inkscape="http://www.inkscape.org/namespaces/inkscape"
   width="100"
   height="88.158676"
   viewBox="0 0 26.458335 23.325316"
   version="1.1"
   id="svg8"
   inkscape:version="0.92.4 (5da689c313, 2019-01-14)"
   sodipodi:docname="warning_triangle.svg"
   inkscape:export-filename="C:\Users\barto\Desktop\Work\Graphics\warning_triangle_384px.png"
   inkscape:export-xdpi="418.15509"
   inkscape:export-ydpi="418.15509">
  <defs
     id="defs2" />
  <sodipodi:namedview
     id="base"
     pagecolor="#ffffff"
     bordercolor="#666666"
     borderopacity="1.0"
     inkscape:pageopacity="0.0"
     inkscape:pageshadow="2"
     inkscape:zoom="7.9195959"
     inkscape:cx="41.5915"
     inkscape:cy="42.907998"
     inkscape:document-units="px"
     inkscape:current-layer="layer1"
     showgrid="false"
     inkscape:pagecheckerboard="true"
     fit-margin-top="0"
     fit-margin-left="0"
     fit-margin-right="0"
     fit-margin-bottom="0"
     inkscape:window-width="1920"
     inkscape:window-height="1057"
     inkscape:window-x="-8"
     inkscape:window-y="-8"
     inkscape:window-maximized="1"
     units="px" />
  <metadata
     id="metadata5">
    <rdf:RDF>
      <cc:Work
         rdf:about="">
        <dc:format>image/svg+xml</dc:format>
        <dc:type
           rdf:resource="http://purl.org/dc/dcmitype/StillImage" />
        <dc:title></dc:title>
      </cc:Work>
    </rdf:RDF>
  </metadata>
  <g
     inkscape:label="Layer 1"
     inkscape:groupmode="layer"
     id="layer1"
     transform="translate(-18.068082,-181.41386)">
    <g
       id="g920"
       transform="matrix(0.14801986,0,0,0.14801986,15.393647,174.43371)">
      <polygon
         transform="matrix(0.26458333,0,0,0.26458333,28.067351,57.155837)"
         style="fill:#1a1a1a;fill-opacity:1;stroke:#1a1a1a;stroke-width:75.59055328;stroke-linecap:round;stroke-linejoin:round;stroke-miterlimit:4;stroke-dasharray:none;stroke-opacity:1"
         points="0,520 300,0 600,520 "
         id="polygon826-0" />
      <polygon
         style="fill:#fed700;fill-opacity:1"
         transform="matrix(0.26458333,0,0,0.26458333,28.067351,57.156337)"
         points="600,520 0,520 300,0 "
         id="polygon826" />
      <g
         style="fill:#1a1a1a"
         transform="matrix(1.1124539,0,0,1.1124539,-12.082313,-15.668863)"
         id="g913">
        <path
           inkscape:connector-curvature="0"
           id="path901"
           d="m 116.80906,112.29189 -3.35788,36.40648 q -0.23565,2.82769 -1.88512,4.41826 -1.64948,1.53167 -4.12372,1.53167 -2.47422,0 -4.1237,-1.53167 -1.64951,-1.59057 -1.88512,-4.41826 l -3.416791,-36.40648 q -0.235646,-2.76878 -0.235646,-3.65244 0,-4.59498 2.768777,-7.36377 2.76878,-2.827677 6.89248,-2.827677 4.06481,0 6.83359,2.827677 2.82769,2.82768 2.82769,7.12813 0,0.88366 -0.29456,3.88808 z"
           style="font-style:normal;font-variant:normal;font-weight:bold;font-stretch:normal;font-size:90.31111145px;line-height:1.25;font-family:'Courier New';-inkscape-font-specification:'Courier New Bold';letter-spacing:0px;word-spacing:0px;fill:#1a1a1a;fill-opacity:1;stroke:none;stroke-width:0.35346094" />
        <path
           inkscape:connector-curvature="0"
           id="path863-9"
           d="m 114.86516,172.32984 q 0,2.88406 -2.20098,4.97119 -2.16304,2.0492 -5.08504,2.0492 -2.95995,0 -5.16094,-2.0492 -2.16304,-2.08713 -2.16304,-4.97119 0,-2.88406 2.16304,-4.97119 2.20098,-2.1251 5.16094,-2.1251 2.922,0 5.08504,2.1251 2.20098,2.08713 2.20098,4.97119 z"
           style="font-style:normal;font-variant:normal;font-weight:bold;font-stretch:normal;font-size:50.79999924px;line-height:1.25;font-family:Georgia;-inkscape-font-specification:'Georgia Bold';letter-spacing:0px;word-spacing:0px;fill:#1a1a1a;fill-opacity:1;stroke:none;stroke-width:0.40477899" />
      </g>
    </g>
  </g>
</svg>
