<?xml version="1.0" encoding="UTF-8" standalone="no"?>
<svg
   height="48"
   width="48"
   version="1.1"
   id="svg834"
   sodipodi:docname="door_closed.svg"
   inkscape:version="1.1.2 (b8e25be833, 2022-02-05)"
   inkscape:export-filename="C:\Users\M4800\Documents\AGH-LOCAL\LAB_INFORMATICS\00_PROJECT\Home-Monitoring-System\GUI\images\open_closed.png"
   inkscape:export-xdpi="1054.95"
   inkscape:export-ydpi="1054.95"
   xmlns:inkscape="http://www.inkscape.org/namespaces/inkscape"
   xmlns:sodipodi="http://sodipodi.sourceforge.net/DTD/sodipodi-0.dtd"
   xmlns="http://www.w3.org/2000/svg"
   xmlns:svg="http://www.w3.org/2000/svg">
  <defs
     id="defs838" />
  <sodipodi:namedview
     id="namedview836"
     pagecolor="#505050"
     bordercolor="#ffffff"
     borderopacity="1"
     inkscape:pageshadow="0"
     inkscape:pageopacity="0"
     inkscape:pagecheckerboard="1"
     showgrid="false"
     inkscape:zoom="4.0572917"
     inkscape:cx="-61.863928"
     inkscape:cy="-0.86264441"
     inkscape:window-width="1920"
     inkscape:window-height="1001"
     inkscape:window-x="-9"
     inkscape:window-y="-9"
     inkscape:window-maximized="1"
     inkscape:current-layer="svg834" />
  <path
     d="M6 42v-3h4V9q0-1.2.9-2.1.9-.9 2.1-.9h22q1.2 0 2.1.9.9.9.9 2.1v30h4v3Zm29-3V9H13v30Zm-6.65-13.45q.7 0 1.2-.5t.5-1.2q0-.7-.5-1.2t-1.2-.5q-.7 0-1.2.5t-.5 1.2q0 .7.5 1.2t1.2.5ZM13 9v30V9Z"
     id="path832"
     style="fill-opacity:1;fill:#ffffff" />
</svg>
