<?xml version="1.0" encoding="UTF-8" standalone="no"?>
<svg
   height="42"
   width="42"
   version="1.1"
   id="svg4"
   sodipodi:docname="motion_activate.svg"
   inkscape:version="1.1.2 (b8e25be833, 2022-02-05)"
   inkscape:export-filename="C:\Users\M4800\Documents\AGH-LOCAL\LAB_INFORMATICS\00_PROJECT\Home-Monitoring-System\GUI\images\motion_activate.png"
   inkscape:export-xdpi="1054.95"
   inkscape:export-ydpi="1054.95"
   xmlns:inkscape="http://www.inkscape.org/namespaces/inkscape"
   xmlns:sodipodi="http://sodipodi.sourceforge.net/DTD/sodipodi-0.dtd"
   xmlns="http://www.w3.org/2000/svg"
   xmlns:svg="http://www.w3.org/2000/svg">
  <defs
     id="defs8" />
  <sodipodi:namedview
     id="namedview6"
     pagecolor="#505050"
     bordercolor="#ffffff"
     borderopacity="1"
     inkscape:pageshadow="0"
     inkscape:pageopacity="0"
     inkscape:pagecheckerboard="1"
     showgrid="false"
     inkscape:zoom="4.2083333"
     inkscape:cx="-50.376239"
     inkscape:cy="37.900991"
     inkscape:window-width="1920"
     inkscape:window-height="1001"
     inkscape:window-x="-9"
     inkscape:window-y="-9"
     inkscape:window-maximized="1"
     inkscape:current-layer="svg4" />
  <path
     d="m 32.45,42 q -3.95,0 -6.75,-2.8 -2.8,-2.8 -2.8,-6.75 0,-4 2.8,-6.775 2.8,-2.775 6.75,-2.775 4,0 6.775,2.775 Q 42,28.45 42,32.45 42,36.4 39.225,39.2 36.45,42 32.45,42 Z M 3,40 Q 1.8,40 0.9,39.1 0,38.2 0,37 V 28.4 H 3 V 37 h 8.6 v 3 z m 29.6,-1.8 q 0.45,0 0.775,-0.3 0.325,-0.3 0.325,-0.8 0,-0.5 -0.325,-0.8 Q 33.05,36 32.6,36 q -0.5,0 -0.8,0.3 -0.3,0.3 -0.3,0.8 0,0.5 0.3,0.8 0.3,0.3 0.8,0.3 z m -0.9,-4.25 h 1.75 V 26.8 H 31.7 Z M 18.5,33.85 Q 13.6,33.3 10.15,29.85 6.7,26.4 6.15,21.5 H 9.1 q 0.5,3.7 3.125,6.3 2.625,2.6 6.275,3.1 z M 20,23.5 q -1.45,0 -2.475,-1.025 Q 16.5,21.45 16.5,20 16.5,18.55 17.525,17.525 18.55,16.5 20,16.5 q 1.45,0 2.475,1.025 Q 23.5,18.55 23.5,20 q 0,1.45 -1.025,2.475 Q 21.45,23.5 20,23.5 Z m -13.85,-5 q 0.55,-4.9 4,-8.35 3.45,-3.45 8.35,-4 V 9.1 q -3.7,0.5 -6.3,3.1 -2.6,2.6 -3.1,6.3 z m 24.75,0 Q 30.4,14.8 27.8,12.2 25.2,9.6 21.5,9.1 V 6.15 q 4.9,0.55 8.35,4 3.45,3.45 4,8.35 z M 0,11.6 V 3 Q 0,1.8 0.9,0.9 1.8,0 3,0 h 8.6 V 3 H 3 v 8.6 z m 37,0 V 3 H 28.4 V 0 H 37 Q 38.2,0 39.1,0.9 40,1.8 40,3 v 8.6 z"
     id="path2"
     style="fill:#b97e00;fill-opacity:1" />
</svg>
